  0
SECTION
  2
HEADER
  9
$ACADVER
  1
AC1009
  9
$FILLMODE
 70
 0
  9
$SPLFRAME
 70
 1
  9
$EXTMIN
 10
0
 20
0
 30
0.0
  9
$EXTMAX
 10
1058.33
 20
1058.33
 30
0.0
  0
ENDSEC
  0
SECTION
  2
TABLES
  0
TABLE
  2
LAYER
 70
1
  0
LAYER
  2
0
 70
     0
 62
     7
  6
CONTINUOUS
  0
ENDTAB
  0
ENDSEC
  0
SECTION
  2
ENTITIES
  0
POLYLINE
  8
0
 62
     0
 66
     1
 10
0
 20
0
 30
0.0
 70
     1
 40
0.566929
 41
0.566929
  0
VERTEX
  8
0
 10
10.0996
 20
10.0004
 30
0.0
 40
0.2
 41
0.2
  0
VERTEX
  8
0
 10
110.1
 20
10.0004
 30
0.0
 40
0.2
 41
0.2
  0
VERTEX
  8
0
 10
110.1
 20
19.9995
 30
0.0
 40
0.2
 41
0.2
  0
VERTEX
  8
0
 10
10.0996
 20
19.9995
 30
0.0
 40
0.2
 41
0.2
  0
VERTEX
  8
0
 10
10.0996
 20
10.0004
 30
0.0
 40
0.2
 41
0.2
  0
SEQEND
 8
0
  0
TEXT
  8
0
 62
     1
 10
28.2549
 20
13.7943
 30
0.0
 40
6.00075
  1
100.0mm, burn:0.10mm
 50
0
  0
POLYLINE
  8
0
 62
     5
 66
     1
 10
0
 20
0
 30
0.0
 70
     1
 40
0.566929
 41
0.566929
  0
VERTEX
  8
0
 10
30.1005
 20
27.8997
 30
0.0
 40
0.2
 41
0.2
  0
VERTEX
  8
0
 10
25.2002
 20
27.8997
 30
0.0
 40
0.2
 41
0.2
  0
VERTEX
  8
0
 10
25.1891
 20
27.8997
 30
0.0
 40
0.2
 41
0.2
  0
VERTEX
  8
0
 10
25.1575
 20
27.886
 30
0.0
 40
0.2
 41
0.2
  0
VERTEX
  8
0
 10
25.1616
 20
27.8626
 30
0.0
 40
0.2
 41
0.2
  0
VERTEX
  8
0
 10
25.185
 20
27.8584
 30
0.0
 40
0.2
 41
0.2
  0
VERTEX
  8
0
 10
25.2002
 20
27.8901
 30
0.0
 40
0.2
 41
0.2
  0
VERTEX
  8
0
 10
25.2002
 20
27.8997
 30
0.0
 40
0.2
 41
0.2
  0
VERTEX
  8
0
 10
25.2002
 20
32.6995
 30
0.0
 40
0.2
 41
0.2
  0
VERTEX
  8
0
 10
25.2002
 20
32.7105
 30
0.0
 40
0.2
 41
0.2
  0
VERTEX
  8
0
 10
25.185
 20
32.7422
 30
0.0
 40
0.2
 41
0.2
  0
VERTEX
  8
0
 10
25.1616
 20
32.7381
 30
0.0
 40
0.2
 41
0.2
  0
VERTEX
  8
0
 10
25.1575
 20
32.7146
 30
0.0
 40
0.2
 41
0.2
  0
VERTEX
  8
0
 10
25.1891
 20
32.6995
 30
0.0
 40
0.2
 41
0.2
  0
VERTEX
  8
0
 10
25.2002
 20
32.6995
 30
0.0
 40
0.2
 41
0.2
  0
VERTEX
  8
0
 10
35.0008
 20
32.6995
 30
0.0
 40
0.2
 41
0.2
  0
VERTEX
  8
0
 10
35.0104
 20
32.6995
 30
0.0
 40
0.2
 41
0.2
  0
VERTEX
  8
0
 10
35.0421
 20
32.7146
 30
0.0
 40
0.2
 41
0.2
  0
VERTEX
  8
0
 10
35.038
 20
32.7381
 30
0.0
 40
0.2
 41
0.2
  0
VERTEX
  8
0
 10
35.0146
 20
32.7422
 30
0.0
 40
0.2
 41
0.2
  0
VERTEX
  8
0
 10
35.0008
 20
32.7105
 30
0.0
 40
0.2
 41
0.2
  0
VERTEX
  8
0
 10
35.0008
 20
32.6995
 30
0.0
 40
0.2
 41
0.2
  0
VERTEX
  8
0
 10
35.0008
 20
27.8997
 30
0.0
 40
0.2
 41
0.2
  0
VERTEX
  8
0
 10
35.0008
 20
27.8901
 30
0.0
 40
0.2
 41
0.2
  0
VERTEX
  8
0
 10
35.0146
 20
27.8584
 30
0.0
 40
0.2
 41
0.2
  0
VERTEX
  8
0
 10
35.038
 20
27.8626
 30
0.0
 40
0.2
 41
0.2
  0
VERTEX
  8
0
 10
35.0421
 20
27.886
 30
0.0
 40
0.2
 41
0.2
  0
VERTEX
  8
0
 10
35.0104
 20
27.8997
 30
0.0
 40
0.2
 41
0.2
  0
VERTEX
  8
0
 10
35.0008
 20
27.8997
 30
0.0
 40
0.2
 41
0.2
  0
VERTEX
  8
0
 10
30.1005
 20
27.8997
 30
0.0
 40
0.2
 41
0.2
  0
SEQEND
 8
0
  0
POLYLINE
  8
0
 62
     5
 66
     1
 10
0
 20
0
 30
0.0
 70
     1
 40
0.566929
 41
0.566929
  0
VERTEX
  8
0
 10
50.1001
 20
27.8997
 30
0.0
 40
0.2
 41
0.2
  0
VERTEX
  8
0
 10
45.1997
 20
27.8997
 30
0.0
 40
0.2
 41
0.2
  0
VERTEX
  8
0
 10
45.1887
 20
27.8997
 30
0.0
 40
0.2
 41
0.2
  0
VERTEX
  8
0
 10
45.157
 20
27.886
 30
0.0
 40
0.2
 41
0.2
  0
VERTEX
  8
0
 10
45.1626
 20
27.8626
 30
0.0
 40
0.2
 41
0.2
  0
VERTEX
  8
0
 10
45.1845
 20
27.8584
 30
0.0
 40
0.2
 41
0.2
  0
VERTEX
  8
0
 10
45.1997
 20
27.8901
 30
0.0
 40
0.2
 41
0.2
  0
VERTEX
  8
0
 10
45.1997
 20
27.8997
 30
0.0
 40
0.2
 41
0.2
  0
VERTEX
  8
0
 10
45.1997
 20
32.6995
 30
0.0
 40
0.2
 41
0.2
  0
VERTEX
  8
0
 10
45.1997
 20
32.7105
 30
0.0
 40
0.2
 41
0.2
  0
VERTEX
  8
0
 10
45.1845
 20
32.7422
 30
0.0
 40
0.2
 41
0.2
  0
VERTEX
  8
0
 10
45.1626
 20
32.7381
 30
0.0
 40
0.2
 41
0.2
  0
VERTEX
  8
0
 10
45.157
 20
32.7146
 30
0.0
 40
0.2
 41
0.2
  0
VERTEX
  8
0
 10
45.1887
 20
32.6995
 30
0.0
 40
0.2
 41
0.2
  0
VERTEX
  8
0
 10
45.1997
 20
32.6995
 30
0.0
 40
0.2
 41
0.2
  0
VERTEX
  8
0
 10
55.0002
 20
32.6995
 30
0.0
 40
0.2
 41
0.2
  0
VERTEX
  8
0
 10
55.0101
 20
32.6995
 30
0.0
 40
0.2
 41
0.2
  0
VERTEX
  8
0
 10
55.0414
 20
32.7146
 30
0.0
 40
0.2
 41
0.2
  0
VERTEX
  8
0
 10
55.0376
 20
32.7381
 30
0.0
 40
0.2
 41
0.2
  0
VERTEX
  8
0
 10
55.0139
 20
32.7422
 30
0.0
 40
0.2
 41
0.2
  0
VERTEX
  8
0
 10
55.0002
 20
32.7105
 30
0.0
 40
0.2
 41
0.2
  0
VERTEX
  8
0
 10
55.0002
 20
32.6995
 30
0.0
 40
0.2
 41
0.2
  0
VERTEX
  8
0
 10
55.0002
 20
27.8997
 30
0.0
 40
0.2
 41
0.2
  0
VERTEX
  8
0
 10
55.0002
 20
27.8901
 30
0.0
 40
0.2
 41
0.2
  0
VERTEX
  8
0
 10
55.0139
 20
27.8584
 30
0.0
 40
0.2
 41
0.2
  0
VERTEX
  8
0
 10
55.0376
 20
27.8626
 30
0.0
 40
0.2
 41
0.2
  0
VERTEX
  8
0
 10
55.0414
 20
27.886
 30
0.0
 40
0.2
 41
0.2
  0
VERTEX
  8
0
 10
55.0101
 20
27.8997
 30
0.0
 40
0.2
 41
0.2
  0
VERTEX
  8
0
 10
55.0002
 20
27.8997
 30
0.0
 40
0.2
 41
0.2
  0
VERTEX
  8
0
 10
50.1001
 20
27.8997
 30
0.0
 40
0.2
 41
0.2
  0
SEQEND
 8
0
  0
POLYLINE
  8
0
 62
     5
 66
     1
 10
0
 20
0
 30
0.0
 70
     1
 40
0.566929
 41
0.566929
  0
VERTEX
  8
0
 10
70.1008
 20
27.8997
 30
0.0
 40
0.2
 41
0.2
  0
VERTEX
  8
0
 10
65.2004
 20
27.8997
 30
0.0
 40
0.2
 41
0.2
  0
VERTEX
  8
0
 10
65.1895
 20
27.8997
 30
0.0
 40
0.2
 41
0.2
  0
VERTEX
  8
0
 10
65.1577
 20
27.886
 30
0.0
 40
0.2
 41
0.2
  0
VERTEX
  8
0
 10
65.1619
 20
27.8626
 30
0.0
 40
0.2
 41
0.2
  0
VERTEX
  8
0
 10
65.1852
 20
27.8584
 30
0.0
 40
0.2
 41
0.2
  0
VERTEX
  8
0
 10
65.2004
 20
27.8901
 30
0.0
 40
0.2
 41
0.2
  0
VERTEX
  8
0
 10
65.2004
 20
27.8997
 30
0.0
 40
0.2
 41
0.2
  0
VERTEX
  8
0
 10
65.2004
 20
32.6995
 30
0.0
 40
0.2
 41
0.2
  0
VERTEX
  8
0
 10
65.2004
 20
32.7105
 30
0.0
 40
0.2
 41
0.2
  0
VERTEX
  8
0
 10
65.1852
 20
32.7422
 30
0.0
 40
0.2
 41
0.2
  0
VERTEX
  8
0
 10
65.1619
 20
32.7381
 30
0.0
 40
0.2
 41
0.2
  0
VERTEX
  8
0
 10
65.1577
 20
32.7146
 30
0.0
 40
0.2
 41
0.2
  0
VERTEX
  8
0
 10
65.1895
 20
32.6995
 30
0.0
 40
0.2
 41
0.2
  0
VERTEX
  8
0
 10
65.2004
 20
32.6995
 30
0.0
 40
0.2
 41
0.2
  0
VERTEX
  8
0
 10
74.9999
 20
32.6995
 30
0.0
 40
0.2
 41
0.2
  0
VERTEX
  8
0
 10
75.0094
 20
32.6995
 30
0.0
 40
0.2
 41
0.2
  0
VERTEX
  8
0
 10
75.0411
 20
32.7146
 30
0.0
 40
0.2
 41
0.2
  0
VERTEX
  8
0
 10
75.0369
 20
32.7381
 30
0.0
 40
0.2
 41
0.2
  0
VERTEX
  8
0
 10
75.0136
 20
32.7422
 30
0.0
 40
0.2
 41
0.2
  0
VERTEX
  8
0
 10
74.9999
 20
32.7105
 30
0.0
 40
0.2
 41
0.2
  0
VERTEX
  8
0
 10
74.9999
 20
32.6995
 30
0.0
 40
0.2
 41
0.2
  0
VERTEX
  8
0
 10
74.9999
 20
27.8997
 30
0.0
 40
0.2
 41
0.2
  0
VERTEX
  8
0
 10
74.9999
 20
27.8901
 30
0.0
 40
0.2
 41
0.2
  0
VERTEX
  8
0
 10
75.0136
 20
27.8584
 30
0.0
 40
0.2
 41
0.2
  0
VERTEX
  8
0
 10
75.0369
 20
27.8626
 30
0.0
 40
0.2
 41
0.2
  0
VERTEX
  8
0
 10
75.0411
 20
27.886
 30
0.0
 40
0.2
 41
0.2
  0
VERTEX
  8
0
 10
75.0094
 20
27.8997
 30
0.0
 40
0.2
 41
0.2
  0
VERTEX
  8
0
 10
74.9999
 20
27.8997
 30
0.0
 40
0.2
 41
0.2
  0
VERTEX
  8
0
 10
70.1008
 20
27.8997
 30
0.0
 40
0.2
 41
0.2
  0
SEQEND
 8
0
  0
POLYLINE
  8
0
 62
     5
 66
     1
 10
0
 20
0
 30
0.0
 70
     1
 40
0.566929
 41
0.566929
  0
VERTEX
  8
0
 10
90.1001
 20
27.8997
 30
0.0
 40
0.2
 41
0.2
  0
VERTEX
  8
0
 10
85.2001
 20
27.8997
 30
0.0
 40
0.2
 41
0.2
  0
VERTEX
  8
0
 10
85.1888
 20
27.8997
 30
0.0
 40
0.2
 41
0.2
  0
VERTEX
  8
0
 10
85.1574
 20
27.886
 30
0.0
 40
0.2
 41
0.2
  0
VERTEX
  8
0
 10
85.1613
 20
27.8626
 30
0.0
 40
0.2
 41
0.2
  0
VERTEX
  8
0
 10
85.1849
 20
27.8584
 30
0.0
 40
0.2
 41
0.2
  0
VERTEX
  8
0
 10
85.2001
 20
27.8901
 30
0.0
 40
0.2
 41
0.2
  0
VERTEX
  8
0
 10
85.2001
 20
27.8997
 30
0.0
 40
0.2
 41
0.2
  0
VERTEX
  8
0
 10
85.2001
 20
32.6995
 30
0.0
 40
0.2
 41
0.2
  0
VERTEX
  8
0
 10
85.2001
 20
32.7105
 30
0.0
 40
0.2
 41
0.2
  0
VERTEX
  8
0
 10
85.1849
 20
32.7422
 30
0.0
 40
0.2
 41
0.2
  0
VERTEX
  8
0
 10
85.1613
 20
32.7381
 30
0.0
 40
0.2
 41
0.2
  0
VERTEX
  8
0
 10
85.1574
 20
32.7146
 30
0.0
 40
0.2
 41
0.2
  0
VERTEX
  8
0
 10
85.1888
 20
32.6995
 30
0.0
 40
0.2
 41
0.2
  0
VERTEX
  8
0
 10
85.2001
 20
32.6995
 30
0.0
 40
0.2
 41
0.2
  0
VERTEX
  8
0
 10
94.9992
 20
32.6995
 30
0.0
 40
0.2
 41
0.2
  0
VERTEX
  8
0
 10
95.0087
 20
32.6995
 30
0.0
 40
0.2
 41
0.2
  0
VERTEX
  8
0
 10
95.0405
 20
32.7146
 30
0.0
 40
0.2
 41
0.2
  0
VERTEX
  8
0
 10
95.0366
 20
32.7381
 30
0.0
 40
0.2
 41
0.2
  0
VERTEX
  8
0
 10
95.0129
 20
32.7422
 30
0.0
 40
0.2
 41
0.2
  0
VERTEX
  8
0
 10
94.9992
 20
32.7105
 30
0.0
 40
0.2
 41
0.2
  0
VERTEX
  8
0
 10
94.9992
 20
32.6995
 30
0.0
 40
0.2
 41
0.2
  0
VERTEX
  8
0
 10
94.9992
 20
27.8997
 30
0.0
 40
0.2
 41
0.2
  0
VERTEX
  8
0
 10
94.9992
 20
27.8901
 30
0.0
 40
0.2
 41
0.2
  0
VERTEX
  8
0
 10
95.0129
 20
27.8584
 30
0.0
 40
0.2
 41
0.2
  0
VERTEX
  8
0
 10
95.0366
 20
27.8626
 30
0.0
 40
0.2
 41
0.2
  0
VERTEX
  8
0
 10
95.0405
 20
27.886
 30
0.0
 40
0.2
 41
0.2
  0
VERTEX
  8
0
 10
95.0087
 20
27.8997
 30
0.0
 40
0.2
 41
0.2
  0
VERTEX
  8
0
 10
94.9992
 20
27.8997
 30
0.0
 40
0.2
 41
0.2
  0
VERTEX
  8
0
 10
90.1001
 20
27.8997
 30
0.0
 40
0.2
 41
0.2
  0
SEQEND
 8
0
  0
POLYLINE
  8
0
 62
     5
 66
     1
 10
0
 20
0
 30
0.0
 70
     1
 40
0.566929
 41
0.566929
  0
VERTEX
  8
0
 10
110.1
 20
27.8997
 30
0.0
 40
0.2
 41
0.2
  0
VERTEX
  8
0
 10
105.199
 20
27.8997
 30
0.0
 40
0.2
 41
0.2
  0
VERTEX
  8
0
 10
105.188
 20
27.8997
 30
0.0
 40
0.2
 41
0.2
  0
VERTEX
  8
0
 10
105.157
 20
27.886
 30
0.0
 40
0.2
 41
0.2
  0
VERTEX
  8
0
 10
105.162
 20
27.8626
 30
0.0
 40
0.2
 41
0.2
  0
VERTEX
  8
0
 10
105.184
 20
27.8584
 30
0.0
 40
0.2
 41
0.2
  0
VERTEX
  8
0
 10
105.199
 20
27.8901
 30
0.0
 40
0.2
 41
0.2
  0
VERTEX
  8
0
 10
105.199
 20
27.8997
 30
0.0
 40
0.2
 41
0.2
  0
VERTEX
  8
0
 10
105.199
 20
32.6995
 30
0.0
 40
0.2
 41
0.2
  0
VERTEX
  8
0
 10
105.199
 20
32.7105
 30
0.0
 40
0.2
 41
0.2
  0
VERTEX
  8
0
 10
105.184
 20
32.7422
 30
0.0
 40
0.2
 41
0.2
  0
VERTEX
  8
0
 10
105.162
 20
32.7381
 30
0.0
 40
0.2
 41
0.2
  0
VERTEX
  8
0
 10
105.157
 20
32.7146
 30
0.0
 40
0.2
 41
0.2
  0
VERTEX
  8
0
 10
105.188
 20
32.6995
 30
0.0
 40
0.2
 41
0.2
  0
VERTEX
  8
0
 10
105.199
 20
32.6995
 30
0.0
 40
0.2
 41
0.2
  0
VERTEX
  8
0
 10
115
 20
32.6995
 30
0.0
 40
0.2
 41
0.2
  0
VERTEX
  8
0
 10
115.01
 20
32.6995
 30
0.0
 40
0.2
 41
0.2
  0
VERTEX
  8
0
 10
115.042
 20
32.7146
 30
0.0
 40
0.2
 41
0.2
  0
VERTEX
  8
0
 10
115.037
 20
32.7381
 30
0.0
 40
0.2
 41
0.2
  0
VERTEX
  8
0
 10
115.014
 20
32.7422
 30
0.0
 40
0.2
 41
0.2
  0
VERTEX
  8
0
 10
115
 20
32.7105
 30
0.0
 40
0.2
 41
0.2
  0
VERTEX
  8
0
 10
115
 20
32.6995
 30
0.0
 40
0.2
 41
0.2
  0
VERTEX
  8
0
 10
115
 20
27.8997
 30
0.0
 40
0.2
 41
0.2
  0
VERTEX
  8
0
 10
115
 20
27.8901
 30
0.0
 40
0.2
 41
0.2
  0
VERTEX
  8
0
 10
115.014
 20
27.8584
 30
0.0
 40
0.2
 41
0.2
  0
VERTEX
  8
0
 10
115.037
 20
27.8626
 30
0.0
 40
0.2
 41
0.2
  0
VERTEX
  8
0
 10
115.042
 20
27.886
 30
0.0
 40
0.2
 41
0.2
  0
VERTEX
  8
0
 10
115.01
 20
27.8997
 30
0.0
 40
0.2
 41
0.2
  0
VERTEX
  8
0
 10
115
 20
27.8997
 30
0.0
 40
0.2
 41
0.2
  0
VERTEX
  8
0
 10
110.1
 20
27.8997
 30
0.0
 40
0.2
 41
0.2
  0
SEQEND
 8
0
  0
TEXT
  8
0
 62
     1
 10
66.0982
 20
62.2311
 30
0.0
 40
4.0005
  1
front
 50
0
  0
POLYLINE
  8
0
 62
     0
 66
     1
 10
0
 20
0
 30
0.0
 40
0.566929
 41
0.566929
  0
VERTEX
  8
0
 10
15.1005
 20
22.7004
 30
0.0
 40
0.2
 41
0.2
  0
VERTEX
  8
0
 10
40.0995
 20
22.7004
 30
0.0
 40
0.2
 41
0.2
  0
SEQEND
 8
0
  0
POLYLINE
  8
0
 62
     0
 66
     1
 10
0
 20
0
 30
0.0
 40
0.566929
 41
0.566929
  0
VERTEX
  8
0
 10
45.1005
 20
22.7004
 30
0.0
 40
0.2
 41
0.2
  0
VERTEX
  8
0
 10
95.0997
 20
22.7004
 30
0.0
 40
0.2
 41
0.2
  0
SEQEND
 8
0
  0
POLYLINE
  8
0
 62
     0
 66
     1
 10
0
 20
0
 30
0.0
 40
0.566929
 41
0.566929
  0
VERTEX
  8
0
 10
100.099
 20
22.7004
 30
0.0
 40
0.2
 41
0.2
  0
VERTEX
  8
0
 10
125.1
 20
22.7004
 30
0.0
 40
0.2
 41
0.2
  0
VERTEX
  8
0
 10
130.099
 20
22.7004
 30
0.0
 40
0.2
 41
0.2
  0
VERTEX
  8
0
 10
130.116
 20
22.7004
 30
0.0
 40
0.2
 41
0.2
  0
VERTEX
  8
0
 10
130.169
 20
22.7294
 30
0.0
 40
0.2
 41
0.2
  0
VERTEX
  8
0
 10
130.2
 20
22.7831
 30
0.0
 40
0.2
 41
0.2
  0
VERTEX
  8
0
 10
130.2
 20
22.7996
 30
0.0
 40
0.2
 41
0.2
  0
VERTEX
  8
0
 10
130.2
 20
29.8428
 30
0.0
 40
0.2
 41
0.2
  0
SEQEND
 8
0
  0
POLYLINE
  8
0
 62
     0
 66
     1
 10
0
 20
0
 30
0.0
 40
0.566929
 41
0.566929
  0
VERTEX
  8
0
 10
130.2
 20
34.8423
 30
0.0
 40
0.2
 41
0.2
  0
VERTEX
  8
0
 10
130.2
 20
41.8853
 30
0.0
 40
0.2
 41
0.2
  0
VERTEX
  8
0
 10
130.2
 20
41.9033
 30
0.0
 40
0.2
 41
0.2
  0
VERTEX
  8
0
 10
130.169
 20
41.9559
 30
0.0
 40
0.2
 41
0.2
  0
VERTEX
  8
0
 10
130.116
 20
41.9848
 30
0.0
 40
0.2
 41
0.2
  0
VERTEX
  8
0
 10
130.099
 20
41.9848
 30
0.0
 40
0.2
 41
0.2
  0
VERTEX
  8
0
 10
125.2
 20
41.9848
 30
0.0
 40
0.2
 41
0.2
  0
VERTEX
  8
0
 10
125.189
 20
41.9848
 30
0.0
 40
0.2
 41
0.2
  0
VERTEX
  8
0
 10
125.157
 20
41.971
 30
0.0
 40
0.2
 41
0.2
  0
VERTEX
  8
0
 10
125.162
 20
41.9474
 30
0.0
 40
0.2
 41
0.2
  0
VERTEX
  8
0
 10
125.185
 20
41.9435
 30
0.0
 40
0.2
 41
0.2
  0
VERTEX
  8
0
 10
125.2
 20
41.9749
 30
0.0
 40
0.2
 41
0.2
  0
VERTEX
  8
0
 10
125.2
 20
41.9848
 30
0.0
 40
0.2
 41
0.2
  0
VERTEX
  8
0
 10
125.2
 20
51.7853
 30
0.0
 40
0.2
 41
0.2
  0
VERTEX
  8
0
 10
125.2
 20
51.7962
 30
0.0
 40
0.2
 41
0.2
  0
VERTEX
  8
0
 10
125.185
 20
51.828
 30
0.0
 40
0.2
 41
0.2
  0
VERTEX
  8
0
 10
125.162
 20
51.8223
 30
0.0
 40
0.2
 41
0.2
  0
VERTEX
  8
0
 10
125.157
 20
51.8005
 30
0.0
 40
0.2
 41
0.2
  0
VERTEX
  8
0
 10
125.189
 20
51.7853
 30
0.0
 40
0.2
 41
0.2
  0
VERTEX
  8
0
 10
125.2
 20
51.7853
 30
0.0
 40
0.2
 41
0.2
  0
VERTEX
  8
0
 10
130.099
 20
51.7853
 30
0.0
 40
0.2
 41
0.2
  0
VERTEX
  8
0
 10
130.116
 20
51.7853
 30
0.0
 40
0.2
 41
0.2
  0
VERTEX
  8
0
 10
130.169
 20
51.8142
 30
0.0
 40
0.2
 41
0.2
  0
VERTEX
  8
0
 10
130.2
 20
51.8679
 30
0.0
 40
0.2
 41
0.2
  0
VERTEX
  8
0
 10
130.2
 20
51.8844
 30
0.0
 40
0.2
 41
0.2
  0
VERTEX
  8
0
 10
130.2
 20
61.885
 30
0.0
 40
0.2
 41
0.2
  0
VERTEX
  8
0
 10
130.2
 20
61.903
 30
0.0
 40
0.2
 41
0.2
  0
VERTEX
  8
0
 10
130.169
 20
61.9552
 30
0.0
 40
0.2
 41
0.2
  0
VERTEX
  8
0
 10
130.116
 20
61.9841
 30
0.0
 40
0.2
 41
0.2
  0
VERTEX
  8
0
 10
130.099
 20
61.9841
 30
0.0
 40
0.2
 41
0.2
  0
VERTEX
  8
0
 10
125.2
 20
61.9841
 30
0.0
 40
0.2
 41
0.2
  0
VERTEX
  8
0
 10
125.189
 20
61.9841
 30
0.0
 40
0.2
 41
0.2
  0
VERTEX
  8
0
 10
125.157
 20
61.9704
 30
0.0
 40
0.2
 41
0.2
  0
VERTEX
  8
0
 10
125.162
 20
61.9471
 30
0.0
 40
0.2
 41
0.2
  0
VERTEX
  8
0
 10
125.185
 20
61.9428
 30
0.0
 40
0.2
 41
0.2
  0
VERTEX
  8
0
 10
125.2
 20
61.9746
 30
0.0
 40
0.2
 41
0.2
  0
VERTEX
  8
0
 10
125.2
 20
61.9841
 30
0.0
 40
0.2
 41
0.2
  0
VERTEX
  8
0
 10
125.2
 20
71.7846
 30
0.0
 40
0.2
 41
0.2
  0
VERTEX
  8
0
 10
125.2
 20
71.7959
 30
0.0
 40
0.2
 41
0.2
  0
VERTEX
  8
0
 10
125.185
 20
71.8273
 30
0.0
 40
0.2
 41
0.2
  0
VERTEX
  8
0
 10
125.162
 20
71.8234
 30
0.0
 40
0.2
 41
0.2
  0
VERTEX
  8
0
 10
125.157
 20
71.7998
 30
0.0
 40
0.2
 41
0.2
  0
VERTEX
  8
0
 10
125.189
 20
71.7846
 30
0.0
 40
0.2
 41
0.2
  0
VERTEX
  8
0
 10
125.2
 20
71.7846
 30
0.0
 40
0.2
 41
0.2
  0
VERTEX
  8
0
 10
130.099
 20
71.7846
 30
0.0
 40
0.2
 41
0.2
  0
VERTEX
  8
0
 10
130.116
 20
71.7846
 30
0.0
 40
0.2
 41
0.2
  0
VERTEX
  8
0
 10
130.169
 20
71.815
 30
0.0
 40
0.2
 41
0.2
  0
VERTEX
  8
0
 10
130.2
 20
71.869
 30
0.0
 40
0.2
 41
0.2
  0
VERTEX
  8
0
 10
130.2
 20
71.8855
 30
0.0
 40
0.2
 41
0.2
  0
VERTEX
  8
0
 10
130.2
 20
78.927
 30
0.0
 40
0.2
 41
0.2
  0
SEQEND
 8
0
  0
POLYLINE
  8
0
 62
     0
 66
     1
 10
0
 20
0
 30
0.0
 40
0.566929
 41
0.566929
  0
VERTEX
  8
0
 10
130.2
 20
83.9265
 30
0.0
 40
0.2
 41
0.2
  0
VERTEX
  8
0
 10
130.2
 20
90.9697
 30
0.0
 40
0.2
 41
0.2
  0
VERTEX
  8
0
 10
130.2
 20
90.9877
 30
0.0
 40
0.2
 41
0.2
  0
VERTEX
  8
0
 10
130.169
 20
91.0414
 30
0.0
 40
0.2
 41
0.2
  0
VERTEX
  8
0
 10
130.116
 20
91.0703
 30
0.0
 40
0.2
 41
0.2
  0
VERTEX
  8
0
 10
130.099
 20
91.0703
 30
0.0
 40
0.2
 41
0.2
  0
VERTEX
  8
0
 10
130.116
 20
91.0703
 30
0.0
 40
0.2
 41
0.2
  0
VERTEX
  8
0
 10
130.169
 20
91.0414
 30
0.0
 40
0.2
 41
0.2
  0
VERTEX
  8
0
 10
130.2
 20
90.9877
 30
0.0
 40
0.2
 41
0.2
  0
VERTEX
  8
0
 10
130.2
 20
90.9697
 30
0.0
 40
0.2
 41
0.2
  0
VERTEX
  8
0
 10
130.2
 20
93.4695
 30
0.0
 40
0.2
 41
0.2
  0
VERTEX
  8
0
 10
130.2
 20
93.8004
 30
0.0
 40
0.2
 41
0.2
  0
VERTEX
  8
0
 10
130.112
 20
94.791
 30
0.0
 40
0.2
 41
0.2
  0
VERTEX
  8
0
 10
129.855
 20
96.085
 30
0.0
 40
0.2
 41
0.2
  0
VERTEX
  8
0
 10
129.431
 20
97.3335
 30
0.0
 40
0.2
 41
0.2
  0
VERTEX
  8
0
 10
129.01
 20
98.2349
 30
0.0
 40
0.2
 41
0.2
  0
VERTEX
  8
0
 10
128.846
 20
98.5202
 30
0.0
 40
0.2
 41
0.2
  0
VERTEX
  8
0
 10
128.764
 20
98.6649
 30
0.0
 40
0.2
 41
0.2
  0
VERTEX
  8
0
 10
128.495
 20
99.0836
 30
0.0
 40
0.2
 41
0.2
  0
VERTEX
  8
0
 10
128.111
 20
99.6213
 30
0.0
 40
0.2
 41
0.2
  0
VERTEX
  8
0
 10
127.692
 20
100.131
 30
0.0
 40
0.2
 41
0.2
  0
VERTEX
  8
0
 10
127.241
 20
100.612
 30
0.0
 40
0.2
 41
0.2
  0
VERTEX
  8
0
 10
126.76
 20
101.063
 30
0.0
 40
0.2
 41
0.2
  0
VERTEX
  8
0
 10
126.25
 20
101.481
 30
0.0
 40
0.2
 41
0.2
  0
VERTEX
  8
0
 10
125.713
 20
101.866
 30
0.0
 40
0.2
 41
0.2
  0
VERTEX
  8
0
 10
125.294
 20
102.133
 30
0.0
 40
0.2
 41
0.2
  0
VERTEX
  8
0
 10
125.151
 20
102.216
 30
0.0
 40
0.2
 41
0.2
  0
VERTEX
  8
0
 10
124.864
 20
102.381
 30
0.0
 40
0.2
 41
0.2
  0
VERTEX
  8
0
 10
123.962
 20
102.803
 30
0.0
 40
0.2
 41
0.2
  0
VERTEX
  8
0
 10
122.714
 20
103.226
 30
0.0
 40
0.2
 41
0.2
  0
VERTEX
  8
0
 10
121.42
 20
103.484
 30
0.0
 40
0.2
 41
0.2
  0
VERTEX
  8
0
 10
120.43
 20
103.571
 30
0.0
 40
0.2
 41
0.2
  0
VERTEX
  8
0
 10
120.1
 20
103.571
 30
0.0
 40
0.2
 41
0.2
  0
VERTEX
  8
0
 10
119.769
 20
103.571
 30
0.0
 40
0.2
 41
0.2
  0
VERTEX
  8
0
 10
118.779
 20
103.484
 30
0.0
 40
0.2
 41
0.2
  0
VERTEX
  8
0
 10
117.485
 20
103.226
 30
0.0
 40
0.2
 41
0.2
  0
VERTEX
  8
0
 10
116.236
 20
102.803
 30
0.0
 40
0.2
 41
0.2
  0
VERTEX
  8
0
 10
115.335
 20
102.381
 30
0.0
 40
0.2
 41
0.2
  0
VERTEX
  8
0
 10
115.05
 20
102.216
 30
0.0
 40
0.2
 41
0.2
  0
VERTEX
  8
0
 10
114.906
 20
102.133
 30
0.0
 40
0.2
 41
0.2
  0
VERTEX
  8
0
 10
114.486
 20
101.866
 30
0.0
 40
0.2
 41
0.2
  0
VERTEX
  8
0
 10
113.949
 20
101.481
 30
0.0
 40
0.2
 41
0.2
  0
VERTEX
  8
0
 10
113.439
 20
101.063
 30
0.0
 40
0.2
 41
0.2
  0
VERTEX
  8
0
 10
112.958
 20
100.612
 30
0.0
 40
0.2
 41
0.2
  0
VERTEX
  8
0
 10
112.507
 20
100.131
 30
0.0
 40
0.2
 41
0.2
  0
VERTEX
  8
0
 10
112.088
 20
99.6213
 30
0.0
 40
0.2
 41
0.2
  0
VERTEX
  8
0
 10
111.704
 20
99.0836
 30
0.0
 40
0.2
 41
0.2
  0
VERTEX
  8
0
 10
111.437
 20
98.6635
 30
0.0
 40
0.2
 41
0.2
  0
VERTEX
  8
0
 10
111.354
 20
98.5202
 30
0.0
 40
0.2
 41
0.2
  0
VERTEX
  8
0
 10
111.188
 20
98.2349
 30
0.0
 40
0.2
 41
0.2
  0
VERTEX
  8
0
 10
110.767
 20
97.3335
 30
0.0
 40
0.2
 41
0.2
  0
VERTEX
  8
0
 10
110.344
 20
96.085
 30
0.0
 40
0.2
 41
0.2
  0
VERTEX
  8
0
 10
110.086
 20
94.791
 30
0.0
 40
0.2
 41
0.2
  0
VERTEX
  8
0
 10
110.001
 20
93.8004
 30
0.0
 40
0.2
 41
0.2
  0
VERTEX
  8
0
 10
110.001
 20
93.4695
 30
0.0
 40
0.2
 41
0.2
  0
VERTEX
  8
0
 10
110.001
 20
93.3154
 30
0.0
 40
0.2
 41
0.2
  0
VERTEX
  8
0
 10
109.918
 20
92.8494
 30
0.0
 40
0.2
 41
0.2
  0
VERTEX
  8
0
 10
109.73
 20
92.3618
 30
0.0
 40
0.2
 41
0.2
  0
VERTEX
  8
0
 10
109.678
 20
92.2694
 30
0.0
 40
0.2
 41
0.2
  0
VERTEX
  8
0
 10
109.624
 20
92.1784
 30
0.0
 40
0.2
 41
0.2
  0
VERTEX
  8
0
 10
109.296
 20
91.7734
 30
0.0
 40
0.2
 41
0.2
  0
VERTEX
  8
0
 10
108.891
 20
91.4453
 30
0.0
 40
0.2
 41
0.2
  0
VERTEX
  8
0
 10
108.8
 20
91.3917
 30
0.0
 40
0.2
 41
0.2
  0
VERTEX
  8
0
 10
108.708
 20
91.3391
 30
0.0
 40
0.2
 41
0.2
  0
VERTEX
  8
0
 10
108.22
 20
91.1532
 30
0.0
 40
0.2
 41
0.2
  0
VERTEX
  8
0
 10
107.754
 20
91.0703
 30
0.0
 40
0.2
 41
0.2
  0
VERTEX
  8
0
 10
107.6
 20
91.0703
 30
0.0
 40
0.2
 41
0.2
  0
VERTEX
  8
0
 10
85.725
 20
91.0703
 30
0.0
 40
0.2
 41
0.2
  0
SEQEND
 8
0
  0
POLYLINE
  8
0
 62
     0
 66
     1
 10
0
 20
0
 30
0.0
 40
0.566929
 41
0.566929
  0
VERTEX
  8
0
 10
80.7254
 20
91.0703
 30
0.0
 40
0.2
 41
0.2
  0
VERTEX
  8
0
 10
36.9757
 20
91.0703
 30
0.0
 40
0.2
 41
0.2
  0
SEQEND
 8
0
  0
POLYLINE
  8
0
 62
     0
 66
     1
 10
0
 20
0
 30
0.0
 40
0.566929
 41
0.566929
  0
VERTEX
  8
0
 10
31.9746
 20
91.0703
 30
0.0
 40
0.2
 41
0.2
  0
VERTEX
  8
0
 10
10.0996
 20
91.0703
 30
0.0
 40
0.2
 41
0.2
  0
VERTEX
  8
0
 10
10.0817
 20
91.0703
 30
0.0
 40
0.2
 41
0.2
  0
VERTEX
  8
0
 10
10.0294
 20
91.0414
 30
0.0
 40
0.2
 41
0.2
  0
VERTEX
  8
0
 10
10.0004
 20
90.9877
 30
0.0
 40
0.2
 41
0.2
  0
VERTEX
  8
0
 10
10.0004
 20
90.9697
 30
0.0
 40
0.2
 41
0.2
  0
VERTEX
  8
0
 10
10.0004
 20
83.9265
 30
0.0
 40
0.2
 41
0.2
  0
SEQEND
 8
0
  0
POLYLINE
  8
0
 62
     0
 66
     1
 10
0
 20
0
 30
0.0
 40
0.566929
 41
0.566929
  0
VERTEX
  8
0
 10
10.0004
 20
78.927
 30
0.0
 40
0.2
 41
0.2
  0
VERTEX
  8
0
 10
10.0004
 20
71.8855
 30
0.0
 40
0.2
 41
0.2
  0
VERTEX
  8
0
 10
10.0004
 20
71.869
 30
0.0
 40
0.2
 41
0.2
  0
VERTEX
  8
0
 10
10.0294
 20
71.815
 30
0.0
 40
0.2
 41
0.2
  0
VERTEX
  8
0
 10
10.0817
 20
71.7846
 30
0.0
 40
0.2
 41
0.2
  0
VERTEX
  8
0
 10
10.0996
 20
71.7846
 30
0.0
 40
0.2
 41
0.2
  0
VERTEX
  8
0
 10
14.9999
 20
71.7846
 30
0.0
 40
0.2
 41
0.2
  0
VERTEX
  8
0
 10
15.0096
 20
71.7846
 30
0.0
 40
0.2
 41
0.2
  0
VERTEX
  8
0
 10
15.0413
 20
71.7998
 30
0.0
 40
0.2
 41
0.2
  0
VERTEX
  8
0
 10
15.0372
 20
71.8234
 30
0.0
 40
0.2
 41
0.2
  0
VERTEX
  8
0
 10
15.0137
 20
71.8273
 30
0.0
 40
0.2
 41
0.2
  0
VERTEX
  8
0
 10
14.9999
 20
71.7959
 30
0.0
 40
0.2
 41
0.2
  0
VERTEX
  8
0
 10
14.9999
 20
71.7846
 30
0.0
 40
0.2
 41
0.2
  0
VERTEX
  8
0
 10
14.9999
 20
61.9841
 30
0.0
 40
0.2
 41
0.2
  0
VERTEX
  8
0
 10
14.9999
 20
61.9746
 30
0.0
 40
0.2
 41
0.2
  0
VERTEX
  8
0
 10
15.0137
 20
61.9428
 30
0.0
 40
0.2
 41
0.2
  0
VERTEX
  8
0
 10
15.0372
 20
61.9471
 30
0.0
 40
0.2
 41
0.2
  0
VERTEX
  8
0
 10
15.0413
 20
61.9704
 30
0.0
 40
0.2
 41
0.2
  0
VERTEX
  8
0
 10
15.0096
 20
61.9841
 30
0.0
 40
0.2
 41
0.2
  0
VERTEX
  8
0
 10
14.9999
 20
61.9841
 30
0.0
 40
0.2
 41
0.2
  0
VERTEX
  8
0
 10
10.0996
 20
61.9841
 30
0.0
 40
0.2
 41
0.2
  0
VERTEX
  8
0
 10
10.0817
 20
61.9841
 30
0.0
 40
0.2
 41
0.2
  0
VERTEX
  8
0
 10
10.0294
 20
61.9552
 30
0.0
 40
0.2
 41
0.2
  0
VERTEX
  8
0
 10
10.0004
 20
61.903
 30
0.0
 40
0.2
 41
0.2
  0
VERTEX
  8
0
 10
10.0004
 20
61.885
 30
0.0
 40
0.2
 41
0.2
  0
VERTEX
  8
0
 10
10.0004
 20
51.8844
 30
0.0
 40
0.2
 41
0.2
  0
VERTEX
  8
0
 10
10.0004
 20
51.8679
 30
0.0
 40
0.2
 41
0.2
  0
VERTEX
  8
0
 10
10.0294
 20
51.8142
 30
0.0
 40
0.2
 41
0.2
  0
VERTEX
  8
0
 10
10.0817
 20
51.7853
 30
0.0
 40
0.2
 41
0.2
  0
VERTEX
  8
0
 10
10.0996
 20
51.7853
 30
0.0
 40
0.2
 41
0.2
  0
VERTEX
  8
0
 10
14.9999
 20
51.7853
 30
0.0
 40
0.2
 41
0.2
  0
VERTEX
  8
0
 10
15.0096
 20
51.7853
 30
0.0
 40
0.2
 41
0.2
  0
VERTEX
  8
0
 10
15.0413
 20
51.8005
 30
0.0
 40
0.2
 41
0.2
  0
VERTEX
  8
0
 10
15.0372
 20
51.8223
 30
0.0
 40
0.2
 41
0.2
  0
VERTEX
  8
0
 10
15.0137
 20
51.828
 30
0.0
 40
0.2
 41
0.2
  0
VERTEX
  8
0
 10
14.9999
 20
51.7962
 30
0.0
 40
0.2
 41
0.2
  0
VERTEX
  8
0
 10
14.9999
 20
51.7853
 30
0.0
 40
0.2
 41
0.2
  0
VERTEX
  8
0
 10
14.9999
 20
41.9848
 30
0.0
 40
0.2
 41
0.2
  0
VERTEX
  8
0
 10
14.9999
 20
41.9749
 30
0.0
 40
0.2
 41
0.2
  0
VERTEX
  8
0
 10
15.0137
 20
41.9435
 30
0.0
 40
0.2
 41
0.2
  0
VERTEX
  8
0
 10
15.0372
 20
41.9474
 30
0.0
 40
0.2
 41
0.2
  0
VERTEX
  8
0
 10
15.0413
 20
41.971
 30
0.0
 40
0.2
 41
0.2
  0
VERTEX
  8
0
 10
15.0096
 20
41.9848
 30
0.0
 40
0.2
 41
0.2
  0
VERTEX
  8
0
 10
14.9999
 20
41.9848
 30
0.0
 40
0.2
 41
0.2
  0
VERTEX
  8
0
 10
10.0996
 20
41.9848
 30
0.0
 40
0.2
 41
0.2
  0
VERTEX
  8
0
 10
10.0817
 20
41.9848
 30
0.0
 40
0.2
 41
0.2
  0
VERTEX
  8
0
 10
10.0294
 20
41.9559
 30
0.0
 40
0.2
 41
0.2
  0
VERTEX
  8
0
 10
10.0004
 20
41.9033
 30
0.0
 40
0.2
 41
0.2
  0
VERTEX
  8
0
 10
10.0004
 20
41.8853
 30
0.0
 40
0.2
 41
0.2
  0
VERTEX
  8
0
 10
10.0004
 20
34.8423
 30
0.0
 40
0.2
 41
0.2
  0
SEQEND
 8
0
  0
POLYLINE
  8
0
 62
     0
 66
     1
 10
0
 20
0
 30
0.0
 40
0.566929
 41
0.566929
  0
VERTEX
  8
0
 10
10.0004
 20
29.8428
 30
0.0
 40
0.2
 41
0.2
  0
VERTEX
  8
0
 10
10.0004
 20
22.7996
 30
0.0
 40
0.2
 41
0.2
  0
VERTEX
  8
0
 10
10.0004
 20
22.7831
 30
0.0
 40
0.2
 41
0.2
  0
VERTEX
  8
0
 10
10.0294
 20
22.7294
 30
0.0
 40
0.2
 41
0.2
  0
VERTEX
  8
0
 10
10.0817
 20
22.7004
 30
0.0
 40
0.2
 41
0.2
  0
VERTEX
  8
0
 10
10.0996
 20
22.7004
 30
0.0
 40
0.2
 41
0.2
  0
VERTEX
  8
0
 10
15.1005
 20
22.7004
 30
0.0
 40
0.2
 41
0.2
  0
SEQEND
 8
0
  0
POLYLINE
  8
0
 62
     5
 66
     1
 10
0
 20
0
 30
0.0
 70
     1
 40
0.566929
 41
0.566929
  0
VERTEX
  8
0
 10
115.2
 20
93.5701
 30
0.0
 40
0.2
 41
0.2
  0
VERTEX
  8
0
 10
115.2
 20
93.7451
 30
0.0
 40
0.2
 41
0.2
  0
VERTEX
  8
0
 10
115.249
 20
94.2703
 30
0.0
 40
0.2
 41
0.2
  0
VERTEX
  8
0
 10
115.398
 20
94.9508
 30
0.0
 40
0.2
 41
0.2
  0
VERTEX
  8
0
 10
115.642
 20
95.6042
 30
0.0
 40
0.2
 41
0.2
  0
VERTEX
  8
0
 10
115.883
 20
96.0727
 30
0.0
 40
0.2
 41
0.2
  0
VERTEX
  8
0
 10
115.979
 20
96.2187
 30
0.0
 40
0.2
 41
0.2
  0
VERTEX
  8
0
 10
116.072
 20
96.3662
 30
0.0
 40
0.2
 41
0.2
  0
VERTEX
  8
0
 10
116.397
 20
96.7811
 30
0.0
 40
0.2
 41
0.2
  0
VERTEX
  8
0
 10
116.891
 20
97.2742
 30
0.0
 40
0.2
 41
0.2
  0
VERTEX
  8
0
 10
117.449
 20
97.6919
 30
0.0
 40
0.2
 41
0.2
  0
VERTEX
  8
0
 10
117.905
 20
97.9551
 30
0.0
 40
0.2
 41
0.2
  0
VERTEX
  8
0
 10
118.065
 20
98.0267
 30
0.0
 40
0.2
 41
0.2
  0
VERTEX
  8
0
 10
118.223
 20
98.0997
 30
0.0
 40
0.2
 41
0.2
  0
VERTEX
  8
0
 10
118.721
 20
98.2719
 30
0.0
 40
0.2
 41
0.2
  0
VERTEX
  8
0
 10
119.402
 20
98.4194
 30
0.0
 40
0.2
 41
0.2
  0
VERTEX
  8
0
 10
120.098
 20
98.4705
 30
0.0
 40
0.2
 41
0.2
  0
VERTEX
  8
0
 10
120.624
 20
98.4444
 30
0.0
 40
0.2
 41
0.2
  0
VERTEX
  8
0
 10
120.797
 20
98.4194
 30
0.0
 40
0.2
 41
0.2
  0
VERTEX
  8
0
 10
120.97
 20
98.3947
 30
0.0
 40
0.2
 41
0.2
  0
VERTEX
  8
0
 10
121.482
 20
98.2708
 30
0.0
 40
0.2
 41
0.2
  0
VERTEX
  8
0
 10
122.136
 20
98.0267
 30
0.0
 40
0.2
 41
0.2
  0
VERTEX
  8
0
 10
122.746
 20
97.6933
 30
0.0
 40
0.2
 41
0.2
  0
VERTEX
  8
0
 10
123.176
 20
97.3875
 30
0.0
 40
0.2
 41
0.2
  0
VERTEX
  8
0
 10
123.308
 20
97.2728
 30
0.0
 40
0.2
 41
0.2
  0
VERTEX
  8
0
 10
123.439
 20
97.1599
 30
0.0
 40
0.2
 41
0.2
  0
VERTEX
  8
0
 10
123.804
 20
96.7782
 30
0.0
 40
0.2
 41
0.2
  0
VERTEX
  8
0
 10
124.222
 20
96.2201
 30
0.0
 40
0.2
 41
0.2
  0
VERTEX
  8
0
 10
124.557
 20
95.6084
 30
0.0
 40
0.2
 41
0.2
  0
VERTEX
  8
0
 10
124.752
 20
95.1191
 30
0.0
 40
0.2
 41
0.2
  0
VERTEX
  8
0
 10
124.802
 20
94.9508
 30
0.0
 40
0.2
 41
0.2
  0
VERTEX
  8
0
 10
124.85
 20
94.7843
 30
0.0
 40
0.2
 41
0.2
  0
VERTEX
  8
0
 10
124.951
 20
94.2661
 30
0.0
 40
0.2
 41
0.2
  0
VERTEX
  8
0
 10
125
 20
93.5701
 30
0.0
 40
0.2
 41
0.2
  0
VERTEX
  8
0
 10
124.951
 20
92.8758
 30
0.0
 40
0.2
 41
0.2
  0
VERTEX
  8
0
 10
124.85
 20
92.3576
 30
0.0
 40
0.2
 41
0.2
  0
VERTEX
  8
0
 10
124.802
 20
92.1893
 30
0.0
 40
0.2
 41
0.2
  0
VERTEX
  8
0
 10
124.752
 20
92.0228
 30
0.0
 40
0.2
 41
0.2
  0
VERTEX
  8
0
 10
124.557
 20
91.5335
 30
0.0
 40
0.2
 41
0.2
  0
VERTEX
  8
0
 10
124.222
 20
90.9214
 30
0.0
 40
0.2
 41
0.2
  0
VERTEX
  8
0
 10
123.804
 20
90.3633
 30
0.0
 40
0.2
 41
0.2
  0
VERTEX
  8
0
 10
123.44
 20
89.9806
 30
0.0
 40
0.2
 41
0.2
  0
VERTEX
  8
0
 10
123.308
 20
89.8659
 30
0.0
 40
0.2
 41
0.2
  0
VERTEX
  8
0
 10
123.176
 20
89.7516
 30
0.0
 40
0.2
 41
0.2
  0
VERTEX
  8
0
 10
122.746
 20
89.4472
 30
0.0
 40
0.2
 41
0.2
  0
VERTEX
  8
0
 10
122.136
 20
89.1134
 30
0.0
 40
0.2
 41
0.2
  0
VERTEX
  8
0
 10
121.482
 20
88.8697
 30
0.0
 40
0.2
 41
0.2
  0
VERTEX
  8
0
 10
120.97
 20
88.7444
 30
0.0
 40
0.2
 41
0.2
  0
VERTEX
  8
0
 10
120.797
 20
88.7194
 30
0.0
 40
0.2
 41
0.2
  0
VERTEX
  8
0
 10
120.624
 20
88.6947
 30
0.0
 40
0.2
 41
0.2
  0
VERTEX
  8
0
 10
120.098
 20
88.67
 30
0.0
 40
0.2
 41
0.2
  0
VERTEX
  8
0
 10
119.402
 20
88.7194
 30
0.0
 40
0.2
 41
0.2
  0
VERTEX
  8
0
 10
118.721
 20
88.8683
 30
0.0
 40
0.2
 41
0.2
  0
VERTEX
  8
0
 10
118.223
 20
89.0404
 30
0.0
 40
0.2
 41
0.2
  0
VERTEX
  8
0
 10
118.065
 20
89.1124
 30
0.0
 40
0.2
 41
0.2
  0
VERTEX
  8
0
 10
117.905
 20
89.1854
 30
0.0
 40
0.2
 41
0.2
  0
VERTEX
  8
0
 10
117.449
 20
89.4486
 30
0.0
 40
0.2
 41
0.2
  0
VERTEX
  8
0
 10
116.891
 20
89.8673
 30
0.0
 40
0.2
 41
0.2
  0
VERTEX
  8
0
 10
116.397
 20
90.3609
 30
0.0
 40
0.2
 41
0.2
  0
VERTEX
  8
0
 10
116.072
 20
90.7743
 30
0.0
 40
0.2
 41
0.2
  0
VERTEX
  8
0
 10
115.979
 20
90.9204
 30
0.0
 40
0.2
 41
0.2
  0
VERTEX
  8
0
 10
115.883
 20
91.0678
 30
0.0
 40
0.2
 41
0.2
  0
VERTEX
  8
0
 10
115.642
 20
91.5363
 30
0.0
 40
0.2
 41
0.2
  0
VERTEX
  8
0
 10
115.398
 20
92.1893
 30
0.0
 40
0.2
 41
0.2
  0
VERTEX
  8
0
 10
115.249
 20
92.8716
 30
0.0
 40
0.2
 41
0.2
  0
VERTEX
  8
0
 10
115.2
 20
93.3965
 30
0.0
 40
0.2
 41
0.2
  0
VERTEX
  8
0
 10
115.2
 20
93.5701
 30
0.0
 40
0.2
 41
0.2
  0
SEQEND
 8
0
  0
POLYLINE
  8
0
 62
     5
 66
     1
 10
0
 20
0
 30
0.0
 70
     1
 40
0.566929
 41
0.566929
  0
VERTEX
  8
0
 10
120.1
 20
95.9693
 30
0.0
 40
0.2
 41
0.2
  0
VERTEX
  8
0
 10
122.166
 20
95.9693
 30
0.0
 40
0.2
 41
0.2
  0
VERTEX
  8
0
 10
122.175
 20
95.9693
 30
0.0
 40
0.2
 41
0.2
  0
VERTEX
  8
0
 10
122.207
 20
95.9845
 30
0.0
 40
0.2
 41
0.2
  0
VERTEX
  8
0
 10
122.203
 20
96.0078
 30
0.0
 40
0.2
 41
0.2
  0
VERTEX
  8
0
 10
122.18
 20
96.012
 30
0.0
 40
0.2
 41
0.2
  0
VERTEX
  8
0
 10
122.166
 20
95.9803
 30
0.0
 40
0.2
 41
0.2
  0
VERTEX
  8
0
 10
122.166
 20
95.9693
 30
0.0
 40
0.2
 41
0.2
  0
VERTEX
  8
0
 10
122.166
 20
91.1698
 30
0.0
 40
0.2
 41
0.2
  0
VERTEX
  8
0
 10
122.166
 20
91.1599
 30
0.0
 40
0.2
 41
0.2
  0
VERTEX
  8
0
 10
122.18
 20
91.1281
 30
0.0
 40
0.2
 41
0.2
  0
VERTEX
  8
0
 10
122.203
 20
91.1324
 30
0.0
 40
0.2
 41
0.2
  0
VERTEX
  8
0
 10
122.207
 20
91.156
 30
0.0
 40
0.2
 41
0.2
  0
VERTEX
  8
0
 10
122.175
 20
91.1698
 30
0.0
 40
0.2
 41
0.2
  0
VERTEX
  8
0
 10
122.166
 20
91.1698
 30
0.0
 40
0.2
 41
0.2
  0
VERTEX
  8
0
 10
118.035
 20
91.1698
 30
0.0
 40
0.2
 41
0.2
  0
VERTEX
  8
0
 10
118.024
 20
91.1698
 30
0.0
 40
0.2
 41
0.2
  0
VERTEX
  8
0
 10
117.992
 20
91.156
 30
0.0
 40
0.2
 41
0.2
  0
VERTEX
  8
0
 10
117.997
 20
91.1324
 30
0.0
 40
0.2
 41
0.2
  0
VERTEX
  8
0
 10
118.019
 20
91.1281
 30
0.0
 40
0.2
 41
0.2
  0
VERTEX
  8
0
 10
118.035
 20
91.1599
 30
0.0
 40
0.2
 41
0.2
  0
VERTEX
  8
0
 10
118.035
 20
91.1698
 30
0.0
 40
0.2
 41
0.2
  0
VERTEX
  8
0
 10
118.035
 20
95.9693
 30
0.0
 40
0.2
 41
0.2
  0
VERTEX
  8
0
 10
118.035
 20
95.9803
 30
0.0
 40
0.2
 41
0.2
  0
VERTEX
  8
0
 10
118.019
 20
96.012
 30
0.0
 40
0.2
 41
0.2
  0
VERTEX
  8
0
 10
117.997
 20
96.0078
 30
0.0
 40
0.2
 41
0.2
  0
VERTEX
  8
0
 10
117.992
 20
95.9845
 30
0.0
 40
0.2
 41
0.2
  0
VERTEX
  8
0
 10
118.024
 20
95.9693
 30
0.0
 40
0.2
 41
0.2
  0
VERTEX
  8
0
 10
118.035
 20
95.9693
 30
0.0
 40
0.2
 41
0.2
  0
VERTEX
  8
0
 10
120.1
 20
95.9693
 30
0.0
 40
0.2
 41
0.2
  0
SEQEND
 8
0
  0
POLYLINE
  8
0
 62
     5
 66
     1
 10
0
 20
0
 30
0.0
 70
     1
 40
0.566929
 41
0.566929
  0
VERTEX
  8
0
 10
30.1005
 20
111.27
 30
0.0
 40
0.2
 41
0.2
  0
VERTEX
  8
0
 10
25.2002
 20
111.27
 30
0.0
 40
0.2
 41
0.2
  0
VERTEX
  8
0
 10
25.1891
 20
111.27
 30
0.0
 40
0.2
 41
0.2
  0
VERTEX
  8
0
 10
25.1575
 20
111.256
 30
0.0
 40
0.2
 41
0.2
  0
VERTEX
  8
0
 10
25.1616
 20
111.233
 30
0.0
 40
0.2
 41
0.2
  0
VERTEX
  8
0
 10
25.185
 20
111.228
 30
0.0
 40
0.2
 41
0.2
  0
VERTEX
  8
0
 10
25.2002
 20
111.26
 30
0.0
 40
0.2
 41
0.2
  0
VERTEX
  8
0
 10
25.2002
 20
111.27
 30
0.0
 40
0.2
 41
0.2
  0
VERTEX
  8
0
 10
25.2002
 20
116.07
 30
0.0
 40
0.2
 41
0.2
  0
VERTEX
  8
0
 10
25.2002
 20
116.08
 30
0.0
 40
0.2
 41
0.2
  0
VERTEX
  8
0
 10
25.185
 20
116.112
 30
0.0
 40
0.2
 41
0.2
  0
VERTEX
  8
0
 10
25.1616
 20
116.108
 30
0.0
 40
0.2
 41
0.2
  0
VERTEX
  8
0
 10
25.1575
 20
116.085
 30
0.0
 40
0.2
 41
0.2
  0
VERTEX
  8
0
 10
25.1891
 20
116.07
 30
0.0
 40
0.2
 41
0.2
  0
VERTEX
  8
0
 10
25.2002
 20
116.07
 30
0.0
 40
0.2
 41
0.2
  0
VERTEX
  8
0
 10
35.0008
 20
116.07
 30
0.0
 40
0.2
 41
0.2
  0
VERTEX
  8
0
 10
35.0104
 20
116.07
 30
0.0
 40
0.2
 41
0.2
  0
VERTEX
  8
0
 10
35.0421
 20
116.085
 30
0.0
 40
0.2
 41
0.2
  0
VERTEX
  8
0
 10
35.038
 20
116.108
 30
0.0
 40
0.2
 41
0.2
  0
VERTEX
  8
0
 10
35.0146
 20
116.112
 30
0.0
 40
0.2
 41
0.2
  0
VERTEX
  8
0
 10
35.0008
 20
116.08
 30
0.0
 40
0.2
 41
0.2
  0
VERTEX
  8
0
 10
35.0008
 20
116.07
 30
0.0
 40
0.2
 41
0.2
  0
VERTEX
  8
0
 10
35.0008
 20
111.27
 30
0.0
 40
0.2
 41
0.2
  0
VERTEX
  8
0
 10
35.0008
 20
111.26
 30
0.0
 40
0.2
 41
0.2
  0
VERTEX
  8
0
 10
35.0146
 20
111.228
 30
0.0
 40
0.2
 41
0.2
  0
VERTEX
  8
0
 10
35.038
 20
111.233
 30
0.0
 40
0.2
 41
0.2
  0
VERTEX
  8
0
 10
35.0421
 20
111.256
 30
0.0
 40
0.2
 41
0.2
  0
VERTEX
  8
0
 10
35.0104
 20
111.27
 30
0.0
 40
0.2
 41
0.2
  0
VERTEX
  8
0
 10
35.0008
 20
111.27
 30
0.0
 40
0.2
 41
0.2
  0
VERTEX
  8
0
 10
30.1005
 20
111.27
 30
0.0
 40
0.2
 41
0.2
  0
SEQEND
 8
0
  0
POLYLINE
  8
0
 62
     5
 66
     1
 10
0
 20
0
 30
0.0
 70
     1
 40
0.566929
 41
0.566929
  0
VERTEX
  8
0
 10
50.1001
 20
111.27
 30
0.0
 40
0.2
 41
0.2
  0
VERTEX
  8
0
 10
45.1997
 20
111.27
 30
0.0
 40
0.2
 41
0.2
  0
VERTEX
  8
0
 10
45.1887
 20
111.27
 30
0.0
 40
0.2
 41
0.2
  0
VERTEX
  8
0
 10
45.157
 20
111.256
 30
0.0
 40
0.2
 41
0.2
  0
VERTEX
  8
0
 10
45.1626
 20
111.233
 30
0.0
 40
0.2
 41
0.2
  0
VERTEX
  8
0
 10
45.1845
 20
111.228
 30
0.0
 40
0.2
 41
0.2
  0
VERTEX
  8
0
 10
45.1997
 20
111.26
 30
0.0
 40
0.2
 41
0.2
  0
VERTEX
  8
0
 10
45.1997
 20
111.27
 30
0.0
 40
0.2
 41
0.2
  0
VERTEX
  8
0
 10
45.1997
 20
116.07
 30
0.0
 40
0.2
 41
0.2
  0
VERTEX
  8
0
 10
45.1997
 20
116.08
 30
0.0
 40
0.2
 41
0.2
  0
VERTEX
  8
0
 10
45.1845
 20
116.112
 30
0.0
 40
0.2
 41
0.2
  0
VERTEX
  8
0
 10
45.1626
 20
116.108
 30
0.0
 40
0.2
 41
0.2
  0
VERTEX
  8
0
 10
45.157
 20
116.085
 30
0.0
 40
0.2
 41
0.2
  0
VERTEX
  8
0
 10
45.1887
 20
116.07
 30
0.0
 40
0.2
 41
0.2
  0
VERTEX
  8
0
 10
45.1997
 20
116.07
 30
0.0
 40
0.2
 41
0.2
  0
VERTEX
  8
0
 10
55.0002
 20
116.07
 30
0.0
 40
0.2
 41
0.2
  0
VERTEX
  8
0
 10
55.0101
 20
116.07
 30
0.0
 40
0.2
 41
0.2
  0
VERTEX
  8
0
 10
55.0414
 20
116.085
 30
0.0
 40
0.2
 41
0.2
  0
VERTEX
  8
0
 10
55.0376
 20
116.108
 30
0.0
 40
0.2
 41
0.2
  0
VERTEX
  8
0
 10
55.0139
 20
116.112
 30
0.0
 40
0.2
 41
0.2
  0
VERTEX
  8
0
 10
55.0002
 20
116.08
 30
0.0
 40
0.2
 41
0.2
  0
VERTEX
  8
0
 10
55.0002
 20
116.07
 30
0.0
 40
0.2
 41
0.2
  0
VERTEX
  8
0
 10
55.0002
 20
111.27
 30
0.0
 40
0.2
 41
0.2
  0
VERTEX
  8
0
 10
55.0002
 20
111.26
 30
0.0
 40
0.2
 41
0.2
  0
VERTEX
  8
0
 10
55.0139
 20
111.228
 30
0.0
 40
0.2
 41
0.2
  0
VERTEX
  8
0
 10
55.0376
 20
111.233
 30
0.0
 40
0.2
 41
0.2
  0
VERTEX
  8
0
 10
55.0414
 20
111.256
 30
0.0
 40
0.2
 41
0.2
  0
VERTEX
  8
0
 10
55.0101
 20
111.27
 30
0.0
 40
0.2
 41
0.2
  0
VERTEX
  8
0
 10
55.0002
 20
111.27
 30
0.0
 40
0.2
 41
0.2
  0
VERTEX
  8
0
 10
50.1001
 20
111.27
 30
0.0
 40
0.2
 41
0.2
  0
SEQEND
 8
0
  0
POLYLINE
  8
0
 62
     5
 66
     1
 10
0
 20
0
 30
0.0
 70
     1
 40
0.566929
 41
0.566929
  0
VERTEX
  8
0
 10
70.1008
 20
111.27
 30
0.0
 40
0.2
 41
0.2
  0
VERTEX
  8
0
 10
65.2004
 20
111.27
 30
0.0
 40
0.2
 41
0.2
  0
VERTEX
  8
0
 10
65.1895
 20
111.27
 30
0.0
 40
0.2
 41
0.2
  0
VERTEX
  8
0
 10
65.1577
 20
111.256
 30
0.0
 40
0.2
 41
0.2
  0
VERTEX
  8
0
 10
65.1619
 20
111.233
 30
0.0
 40
0.2
 41
0.2
  0
VERTEX
  8
0
 10
65.1852
 20
111.228
 30
0.0
 40
0.2
 41
0.2
  0
VERTEX
  8
0
 10
65.2004
 20
111.26
 30
0.0
 40
0.2
 41
0.2
  0
VERTEX
  8
0
 10
65.2004
 20
111.27
 30
0.0
 40
0.2
 41
0.2
  0
VERTEX
  8
0
 10
65.2004
 20
116.07
 30
0.0
 40
0.2
 41
0.2
  0
VERTEX
  8
0
 10
65.2004
 20
116.08
 30
0.0
 40
0.2
 41
0.2
  0
VERTEX
  8
0
 10
65.1852
 20
116.112
 30
0.0
 40
0.2
 41
0.2
  0
VERTEX
  8
0
 10
65.1619
 20
116.108
 30
0.0
 40
0.2
 41
0.2
  0
VERTEX
  8
0
 10
65.1577
 20
116.085
 30
0.0
 40
0.2
 41
0.2
  0
VERTEX
  8
0
 10
65.1895
 20
116.07
 30
0.0
 40
0.2
 41
0.2
  0
VERTEX
  8
0
 10
65.2004
 20
116.07
 30
0.0
 40
0.2
 41
0.2
  0
VERTEX
  8
0
 10
74.9999
 20
116.07
 30
0.0
 40
0.2
 41
0.2
  0
VERTEX
  8
0
 10
75.0094
 20
116.07
 30
0.0
 40
0.2
 41
0.2
  0
VERTEX
  8
0
 10
75.0411
 20
116.085
 30
0.0
 40
0.2
 41
0.2
  0
VERTEX
  8
0
 10
75.0369
 20
116.108
 30
0.0
 40
0.2
 41
0.2
  0
VERTEX
  8
0
 10
75.0136
 20
116.112
 30
0.0
 40
0.2
 41
0.2
  0
VERTEX
  8
0
 10
74.9999
 20
116.08
 30
0.0
 40
0.2
 41
0.2
  0
VERTEX
  8
0
 10
74.9999
 20
116.07
 30
0.0
 40
0.2
 41
0.2
  0
VERTEX
  8
0
 10
74.9999
 20
111.27
 30
0.0
 40
0.2
 41
0.2
  0
VERTEX
  8
0
 10
74.9999
 20
111.26
 30
0.0
 40
0.2
 41
0.2
  0
VERTEX
  8
0
 10
75.0136
 20
111.228
 30
0.0
 40
0.2
 41
0.2
  0
VERTEX
  8
0
 10
75.0369
 20
111.233
 30
0.0
 40
0.2
 41
0.2
  0
VERTEX
  8
0
 10
75.0411
 20
111.256
 30
0.0
 40
0.2
 41
0.2
  0
VERTEX
  8
0
 10
75.0094
 20
111.27
 30
0.0
 40
0.2
 41
0.2
  0
VERTEX
  8
0
 10
74.9999
 20
111.27
 30
0.0
 40
0.2
 41
0.2
  0
VERTEX
  8
0
 10
70.1008
 20
111.27
 30
0.0
 40
0.2
 41
0.2
  0
SEQEND
 8
0
  0
POLYLINE
  8
0
 62
     5
 66
     1
 10
0
 20
0
 30
0.0
 70
     1
 40
0.566929
 41
0.566929
  0
VERTEX
  8
0
 10
90.1001
 20
111.27
 30
0.0
 40
0.2
 41
0.2
  0
VERTEX
  8
0
 10
85.2001
 20
111.27
 30
0.0
 40
0.2
 41
0.2
  0
VERTEX
  8
0
 10
85.1888
 20
111.27
 30
0.0
 40
0.2
 41
0.2
  0
VERTEX
  8
0
 10
85.1574
 20
111.256
 30
0.0
 40
0.2
 41
0.2
  0
VERTEX
  8
0
 10
85.1613
 20
111.233
 30
0.0
 40
0.2
 41
0.2
  0
VERTEX
  8
0
 10
85.1849
 20
111.228
 30
0.0
 40
0.2
 41
0.2
  0
VERTEX
  8
0
 10
85.2001
 20
111.26
 30
0.0
 40
0.2
 41
0.2
  0
VERTEX
  8
0
 10
85.2001
 20
111.27
 30
0.0
 40
0.2
 41
0.2
  0
VERTEX
  8
0
 10
85.2001
 20
116.07
 30
0.0
 40
0.2
 41
0.2
  0
VERTEX
  8
0
 10
85.2001
 20
116.08
 30
0.0
 40
0.2
 41
0.2
  0
VERTEX
  8
0
 10
85.1849
 20
116.112
 30
0.0
 40
0.2
 41
0.2
  0
VERTEX
  8
0
 10
85.1613
 20
116.108
 30
0.0
 40
0.2
 41
0.2
  0
VERTEX
  8
0
 10
85.1574
 20
116.085
 30
0.0
 40
0.2
 41
0.2
  0
VERTEX
  8
0
 10
85.1888
 20
116.07
 30
0.0
 40
0.2
 41
0.2
  0
VERTEX
  8
0
 10
85.2001
 20
116.07
 30
0.0
 40
0.2
 41
0.2
  0
VERTEX
  8
0
 10
94.9992
 20
116.07
 30
0.0
 40
0.2
 41
0.2
  0
VERTEX
  8
0
 10
95.0087
 20
116.07
 30
0.0
 40
0.2
 41
0.2
  0
VERTEX
  8
0
 10
95.0405
 20
116.085
 30
0.0
 40
0.2
 41
0.2
  0
VERTEX
  8
0
 10
95.0366
 20
116.108
 30
0.0
 40
0.2
 41
0.2
  0
VERTEX
  8
0
 10
95.0129
 20
116.112
 30
0.0
 40
0.2
 41
0.2
  0
VERTEX
  8
0
 10
94.9992
 20
116.08
 30
0.0
 40
0.2
 41
0.2
  0
VERTEX
  8
0
 10
94.9992
 20
116.07
 30
0.0
 40
0.2
 41
0.2
  0
VERTEX
  8
0
 10
94.9992
 20
111.27
 30
0.0
 40
0.2
 41
0.2
  0
VERTEX
  8
0
 10
94.9992
 20
111.26
 30
0.0
 40
0.2
 41
0.2
  0
VERTEX
  8
0
 10
95.0129
 20
111.228
 30
0.0
 40
0.2
 41
0.2
  0
VERTEX
  8
0
 10
95.0366
 20
111.233
 30
0.0
 40
0.2
 41
0.2
  0
VERTEX
  8
0
 10
95.0405
 20
111.256
 30
0.0
 40
0.2
 41
0.2
  0
VERTEX
  8
0
 10
95.0087
 20
111.27
 30
0.0
 40
0.2
 41
0.2
  0
VERTEX
  8
0
 10
94.9992
 20
111.27
 30
0.0
 40
0.2
 41
0.2
  0
VERTEX
  8
0
 10
90.1001
 20
111.27
 30
0.0
 40
0.2
 41
0.2
  0
SEQEND
 8
0
  0
POLYLINE
  8
0
 62
     5
 66
     1
 10
0
 20
0
 30
0.0
 70
     1
 40
0.566929
 41
0.566929
  0
VERTEX
  8
0
 10
110.1
 20
111.27
 30
0.0
 40
0.2
 41
0.2
  0
VERTEX
  8
0
 10
105.199
 20
111.27
 30
0.0
 40
0.2
 41
0.2
  0
VERTEX
  8
0
 10
105.188
 20
111.27
 30
0.0
 40
0.2
 41
0.2
  0
VERTEX
  8
0
 10
105.157
 20
111.256
 30
0.0
 40
0.2
 41
0.2
  0
VERTEX
  8
0
 10
105.162
 20
111.233
 30
0.0
 40
0.2
 41
0.2
  0
VERTEX
  8
0
 10
105.184
 20
111.228
 30
0.0
 40
0.2
 41
0.2
  0
VERTEX
  8
0
 10
105.199
 20
111.26
 30
0.0
 40
0.2
 41
0.2
  0
VERTEX
  8
0
 10
105.199
 20
111.27
 30
0.0
 40
0.2
 41
0.2
  0
VERTEX
  8
0
 10
105.199
 20
116.07
 30
0.0
 40
0.2
 41
0.2
  0
VERTEX
  8
0
 10
105.199
 20
116.08
 30
0.0
 40
0.2
 41
0.2
  0
VERTEX
  8
0
 10
105.184
 20
116.112
 30
0.0
 40
0.2
 41
0.2
  0
VERTEX
  8
0
 10
105.162
 20
116.108
 30
0.0
 40
0.2
 41
0.2
  0
VERTEX
  8
0
 10
105.157
 20
116.085
 30
0.0
 40
0.2
 41
0.2
  0
VERTEX
  8
0
 10
105.188
 20
116.07
 30
0.0
 40
0.2
 41
0.2
  0
VERTEX
  8
0
 10
105.199
 20
116.07
 30
0.0
 40
0.2
 41
0.2
  0
VERTEX
  8
0
 10
115
 20
116.07
 30
0.0
 40
0.2
 41
0.2
  0
VERTEX
  8
0
 10
115.01
 20
116.07
 30
0.0
 40
0.2
 41
0.2
  0
VERTEX
  8
0
 10
115.042
 20
116.085
 30
0.0
 40
0.2
 41
0.2
  0
VERTEX
  8
0
 10
115.037
 20
116.108
 30
0.0
 40
0.2
 41
0.2
  0
VERTEX
  8
0
 10
115.014
 20
116.112
 30
0.0
 40
0.2
 41
0.2
  0
VERTEX
  8
0
 10
115
 20
116.08
 30
0.0
 40
0.2
 41
0.2
  0
VERTEX
  8
0
 10
115
 20
116.07
 30
0.0
 40
0.2
 41
0.2
  0
VERTEX
  8
0
 10
115
 20
111.27
 30
0.0
 40
0.2
 41
0.2
  0
VERTEX
  8
0
 10
115
 20
111.26
 30
0.0
 40
0.2
 41
0.2
  0
VERTEX
  8
0
 10
115.014
 20
111.228
 30
0.0
 40
0.2
 41
0.2
  0
VERTEX
  8
0
 10
115.037
 20
111.233
 30
0.0
 40
0.2
 41
0.2
  0
VERTEX
  8
0
 10
115.042
 20
111.256
 30
0.0
 40
0.2
 41
0.2
  0
VERTEX
  8
0
 10
115.01
 20
111.27
 30
0.0
 40
0.2
 41
0.2
  0
VERTEX
  8
0
 10
115
 20
111.27
 30
0.0
 40
0.2
 41
0.2
  0
VERTEX
  8
0
 10
110.1
 20
111.27
 30
0.0
 40
0.2
 41
0.2
  0
SEQEND
 8
0
  0
TEXT
  8
0
 62
     1
 10
65.8763
 20
145.601
 30
0.0
 40
4.0005
  1
back
 50
0
  0
POLYLINE
  8
0
 62
     0
 66
     1
 10
0
 20
0
 30
0.0
 40
0.566929
 41
0.566929
  0
VERTEX
  8
0
 10
15.1005
 20
106.07
 30
0.0
 40
0.2
 41
0.2
  0
VERTEX
  8
0
 10
40.0995
 20
106.07
 30
0.0
 40
0.2
 41
0.2
  0
SEQEND
 8
0
  0
POLYLINE
  8
0
 62
     0
 66
     1
 10
0
 20
0
 30
0.0
 40
0.566929
 41
0.566929
  0
VERTEX
  8
0
 10
45.1005
 20
106.07
 30
0.0
 40
0.2
 41
0.2
  0
VERTEX
  8
0
 10
95.0997
 20
106.07
 30
0.0
 40
0.2
 41
0.2
  0
SEQEND
 8
0
  0
POLYLINE
  8
0
 62
     0
 66
     1
 10
0
 20
0
 30
0.0
 40
0.566929
 41
0.566929
  0
VERTEX
  8
0
 10
100.099
 20
106.07
 30
0.0
 40
0.2
 41
0.2
  0
VERTEX
  8
0
 10
125.1
 20
106.07
 30
0.0
 40
0.2
 41
0.2
  0
VERTEX
  8
0
 10
130.099
 20
106.07
 30
0.0
 40
0.2
 41
0.2
  0
VERTEX
  8
0
 10
130.116
 20
106.07
 30
0.0
 40
0.2
 41
0.2
  0
VERTEX
  8
0
 10
130.169
 20
106.099
 30
0.0
 40
0.2
 41
0.2
  0
VERTEX
  8
0
 10
130.2
 20
106.153
 30
0.0
 40
0.2
 41
0.2
  0
VERTEX
  8
0
 10
130.2
 20
106.17
 30
0.0
 40
0.2
 41
0.2
  0
VERTEX
  8
0
 10
130.2
 20
113.213
 30
0.0
 40
0.2
 41
0.2
  0
SEQEND
 8
0
  0
POLYLINE
  8
0
 62
     0
 66
     1
 10
0
 20
0
 30
0.0
 40
0.566929
 41
0.566929
  0
VERTEX
  8
0
 10
130.2
 20
118.212
 30
0.0
 40
0.2
 41
0.2
  0
VERTEX
  8
0
 10
130.2
 20
125.256
 30
0.0
 40
0.2
 41
0.2
  0
VERTEX
  8
0
 10
130.2
 20
125.273
 30
0.0
 40
0.2
 41
0.2
  0
VERTEX
  8
0
 10
130.169
 20
125.326
 30
0.0
 40
0.2
 41
0.2
  0
VERTEX
  8
0
 10
130.116
 20
125.355
 30
0.0
 40
0.2
 41
0.2
  0
VERTEX
  8
0
 10
130.099
 20
125.355
 30
0.0
 40
0.2
 41
0.2
  0
VERTEX
  8
0
 10
125.2
 20
125.355
 30
0.0
 40
0.2
 41
0.2
  0
VERTEX
  8
0
 10
125.189
 20
125.355
 30
0.0
 40
0.2
 41
0.2
  0
VERTEX
  8
0
 10
125.157
 20
125.341
 30
0.0
 40
0.2
 41
0.2
  0
VERTEX
  8
0
 10
125.162
 20
125.317
 30
0.0
 40
0.2
 41
0.2
  0
VERTEX
  8
0
 10
125.185
 20
125.313
 30
0.0
 40
0.2
 41
0.2
  0
VERTEX
  8
0
 10
125.2
 20
125.345
 30
0.0
 40
0.2
 41
0.2
  0
VERTEX
  8
0
 10
125.2
 20
125.355
 30
0.0
 40
0.2
 41
0.2
  0
VERTEX
  8
0
 10
125.2
 20
135.155
 30
0.0
 40
0.2
 41
0.2
  0
VERTEX
  8
0
 10
125.2
 20
135.166
 30
0.0
 40
0.2
 41
0.2
  0
VERTEX
  8
0
 10
125.185
 20
135.198
 30
0.0
 40
0.2
 41
0.2
  0
VERTEX
  8
0
 10
125.162
 20
135.193
 30
0.0
 40
0.2
 41
0.2
  0
VERTEX
  8
0
 10
125.157
 20
135.17
 30
0.0
 40
0.2
 41
0.2
  0
VERTEX
  8
0
 10
125.189
 20
135.155
 30
0.0
 40
0.2
 41
0.2
  0
VERTEX
  8
0
 10
125.2
 20
135.155
 30
0.0
 40
0.2
 41
0.2
  0
VERTEX
  8
0
 10
130.099
 20
135.155
 30
0.0
 40
0.2
 41
0.2
  0
VERTEX
  8
0
 10
130.116
 20
135.155
 30
0.0
 40
0.2
 41
0.2
  0
VERTEX
  8
0
 10
130.169
 20
135.184
 30
0.0
 40
0.2
 41
0.2
  0
VERTEX
  8
0
 10
130.2
 20
135.238
 30
0.0
 40
0.2
 41
0.2
  0
VERTEX
  8
0
 10
130.2
 20
135.254
 30
0.0
 40
0.2
 41
0.2
  0
VERTEX
  8
0
 10
130.2
 20
145.255
 30
0.0
 40
0.2
 41
0.2
  0
VERTEX
  8
0
 10
130.2
 20
145.273
 30
0.0
 40
0.2
 41
0.2
  0
VERTEX
  8
0
 10
130.169
 20
145.325
 30
0.0
 40
0.2
 41
0.2
  0
VERTEX
  8
0
 10
130.116
 20
145.354
 30
0.0
 40
0.2
 41
0.2
  0
VERTEX
  8
0
 10
130.099
 20
145.354
 30
0.0
 40
0.2
 41
0.2
  0
VERTEX
  8
0
 10
125.2
 20
145.354
 30
0.0
 40
0.2
 41
0.2
  0
VERTEX
  8
0
 10
125.189
 20
145.354
 30
0.0
 40
0.2
 41
0.2
  0
VERTEX
  8
0
 10
125.157
 20
145.34
 30
0.0
 40
0.2
 41
0.2
  0
VERTEX
  8
0
 10
125.162
 20
145.317
 30
0.0
 40
0.2
 41
0.2
  0
VERTEX
  8
0
 10
125.185
 20
145.313
 30
0.0
 40
0.2
 41
0.2
  0
VERTEX
  8
0
 10
125.2
 20
145.344
 30
0.0
 40
0.2
 41
0.2
  0
VERTEX
  8
0
 10
125.2
 20
145.354
 30
0.0
 40
0.2
 41
0.2
  0
VERTEX
  8
0
 10
125.2
 20
155.155
 30
0.0
 40
0.2
 41
0.2
  0
VERTEX
  8
0
 10
125.2
 20
155.166
 30
0.0
 40
0.2
 41
0.2
  0
VERTEX
  8
0
 10
125.185
 20
155.198
 30
0.0
 40
0.2
 41
0.2
  0
VERTEX
  8
0
 10
125.162
 20
155.193
 30
0.0
 40
0.2
 41
0.2
  0
VERTEX
  8
0
 10
125.157
 20
155.17
 30
0.0
 40
0.2
 41
0.2
  0
VERTEX
  8
0
 10
125.189
 20
155.155
 30
0.0
 40
0.2
 41
0.2
  0
VERTEX
  8
0
 10
125.2
 20
155.155
 30
0.0
 40
0.2
 41
0.2
  0
VERTEX
  8
0
 10
130.099
 20
155.155
 30
0.0
 40
0.2
 41
0.2
  0
VERTEX
  8
0
 10
130.116
 20
155.155
 30
0.0
 40
0.2
 41
0.2
  0
VERTEX
  8
0
 10
130.169
 20
155.185
 30
0.0
 40
0.2
 41
0.2
  0
VERTEX
  8
0
 10
130.2
 20
155.239
 30
0.0
 40
0.2
 41
0.2
  0
VERTEX
  8
0
 10
130.2
 20
155.255
 30
0.0
 40
0.2
 41
0.2
  0
VERTEX
  8
0
 10
130.2
 20
162.297
 30
0.0
 40
0.2
 41
0.2
  0
SEQEND
 8
0
  0
POLYLINE
  8
0
 62
     0
 66
     1
 10
0
 20
0
 30
0.0
 40
0.566929
 41
0.566929
  0
VERTEX
  8
0
 10
130.2
 20
167.298
 30
0.0
 40
0.2
 41
0.2
  0
VERTEX
  8
0
 10
130.2
 20
174.34
 30
0.0
 40
0.2
 41
0.2
  0
VERTEX
  8
0
 10
130.2
 20
174.358
 30
0.0
 40
0.2
 41
0.2
  0
VERTEX
  8
0
 10
130.169
 20
174.412
 30
0.0
 40
0.2
 41
0.2
  0
VERTEX
  8
0
 10
130.116
 20
174.44
 30
0.0
 40
0.2
 41
0.2
  0
VERTEX
  8
0
 10
130.099
 20
174.44
 30
0.0
 40
0.2
 41
0.2
  0
VERTEX
  8
0
 10
108.226
 20
174.44
 30
0.0
 40
0.2
 41
0.2
  0
SEQEND
 8
0
  0
POLYLINE
  8
0
 62
     0
 66
     1
 10
0
 20
0
 30
0.0
 40
0.566929
 41
0.566929
  0
VERTEX
  8
0
 10
103.225
 20
174.44
 30
0.0
 40
0.2
 41
0.2
  0
VERTEX
  8
0
 10
59.4748
 20
174.44
 30
0.0
 40
0.2
 41
0.2
  0
SEQEND
 8
0
  0
POLYLINE
  8
0
 62
     0
 66
     1
 10
0
 20
0
 30
0.0
 40
0.566929
 41
0.566929
  0
VERTEX
  8
0
 10
54.4752
 20
174.44
 30
0.0
 40
0.2
 41
0.2
  0
VERTEX
  8
0
 10
32.6003
 20
174.44
 30
0.0
 40
0.2
 41
0.2
  0
VERTEX
  8
0
 10
32.4446
 20
174.44
 30
0.0
 40
0.2
 41
0.2
  0
VERTEX
  8
0
 10
31.9787
 20
174.523
 30
0.0
 40
0.2
 41
0.2
  0
VERTEX
  8
0
 10
31.4909
 20
174.709
 30
0.0
 40
0.2
 41
0.2
  0
VERTEX
  8
0
 10
31.4
 20
174.762
 30
0.0
 40
0.2
 41
0.2
  0
VERTEX
  8
0
 10
31.3311
 20
174.801
 30
0.0
 40
0.2
 41
0.2
  0
VERTEX
  8
0
 10
31.1381
 20
174.937
 30
0.0
 40
0.2
 41
0.2
  0
VERTEX
  8
0
 10
30.9025
 20
175.143
 30
0.0
 40
0.2
 41
0.2
  0
VERTEX
  8
0
 10
30.6958
 20
175.379
 30
0.0
 40
0.2
 41
0.2
  0
VERTEX
  8
0
 10
30.5608
 20
175.572
 30
0.0
 40
0.2
 41
0.2
  0
VERTEX
  8
0
 10
30.5222
 20
175.639
 30
0.0
 40
0.2
 41
0.2
  0
VERTEX
  8
0
 10
30.4684
 20
175.732
 30
0.0
 40
0.2
 41
0.2
  0
VERTEX
  8
0
 10
30.281
 20
176.22
 30
0.0
 40
0.2
 41
0.2
  0
VERTEX
  8
0
 10
30.1997
 20
176.685
 30
0.0
 40
0.2
 41
0.2
  0
VERTEX
  8
0
 10
30.1997
 20
176.839
 30
0.0
 40
0.2
 41
0.2
  0
VERTEX
  8
0
 10
30.1997
 20
177.17
 30
0.0
 40
0.2
 41
0.2
  0
VERTEX
  8
0
 10
30.1115
 20
178.161
 30
0.0
 40
0.2
 41
0.2
  0
VERTEX
  8
0
 10
29.8552
 20
179.455
 30
0.0
 40
0.2
 41
0.2
  0
VERTEX
  8
0
 10
29.4308
 20
180.703
 30
0.0
 40
0.2
 41
0.2
  0
VERTEX
  8
0
 10
29.0105
 20
181.605
 30
0.0
 40
0.2
 41
0.2
  0
VERTEX
  8
0
 10
28.8465
 20
181.89
 30
0.0
 40
0.2
 41
0.2
  0
VERTEX
  8
0
 10
28.7638
 20
182.035
 30
0.0
 40
0.2
 41
0.2
  0
VERTEX
  8
0
 10
28.4951
 20
182.453
 30
0.0
 40
0.2
 41
0.2
  0
VERTEX
  8
0
 10
28.1106
 20
182.991
 30
0.0
 40
0.2
 41
0.2
  0
VERTEX
  8
0
 10
27.6917
 20
183.501
 30
0.0
 40
0.2
 41
0.2
  0
VERTEX
  8
0
 10
27.2411
 20
183.982
 30
0.0
 40
0.2
 41
0.2
  0
VERTEX
  8
0
 10
26.7601
 20
184.433
 30
0.0
 40
0.2
 41
0.2
  0
VERTEX
  8
0
 10
26.2503
 20
184.851
 30
0.0
 40
0.2
 41
0.2
  0
VERTEX
  8
0
 10
25.7128
 20
185.236
 30
0.0
 40
0.2
 41
0.2
  0
VERTEX
  8
0
 10
25.2925
 20
185.503
 30
0.0
 40
0.2
 41
0.2
  0
VERTEX
  8
0
 10
25.1492
 20
185.586
 30
0.0
 40
0.2
 41
0.2
  0
VERTEX
  8
0
 10
24.8626
 20
185.751
 30
0.0
 40
0.2
 41
0.2
  0
VERTEX
  8
0
 10
23.9613
 20
186.173
 30
0.0
 40
0.2
 41
0.2
  0
VERTEX
  8
0
 10
22.7128
 20
186.596
 30
0.0
 40
0.2
 41
0.2
  0
VERTEX
  8
0
 10
21.4202
 20
186.854
 30
0.0
 40
0.2
 41
0.2
  0
VERTEX
  8
0
 10
20.4294
 20
186.939
 30
0.0
 40
0.2
 41
0.2
  0
VERTEX
  8
0
 10
20.1001
 20
186.939
 30
0.0
 40
0.2
 41
0.2
  0
VERTEX
  8
0
 10
19.7693
 20
186.939
 30
0.0
 40
0.2
 41
0.2
  0
VERTEX
  8
0
 10
18.7785
 20
186.854
 30
0.0
 40
0.2
 41
0.2
  0
VERTEX
  8
0
 10
17.4859
 20
186.596
 30
0.0
 40
0.2
 41
0.2
  0
VERTEX
  8
0
 10
16.2374
 20
186.173
 30
0.0
 40
0.2
 41
0.2
  0
VERTEX
  8
0
 10
15.3348
 20
185.751
 30
0.0
 40
0.2
 41
0.2
  0
VERTEX
  8
0
 10
15.0496
 20
185.586
 30
0.0
 40
0.2
 41
0.2
  0
VERTEX
  8
0
 10
14.9062
 20
185.503
 30
0.0
 40
0.2
 41
0.2
  0
VERTEX
  8
0
 10
14.4859
 20
185.236
 30
0.0
 40
0.2
 41
0.2
  0
VERTEX
  8
0
 10
13.9485
 20
184.851
 30
0.0
 40
0.2
 41
0.2
  0
VERTEX
  8
0
 10
13.4386
 20
184.433
 30
0.0
 40
0.2
 41
0.2
  0
VERTEX
  8
0
 10
12.9577
 20
183.982
 30
0.0
 40
0.2
 41
0.2
  0
VERTEX
  8
0
 10
12.5071
 20
183.501
 30
0.0
 40
0.2
 41
0.2
  0
VERTEX
  8
0
 10
12.0881
 20
182.991
 30
0.0
 40
0.2
 41
0.2
  0
VERTEX
  8
0
 10
11.7037
 20
182.453
 30
0.0
 40
0.2
 41
0.2
  0
VERTEX
  8
0
 10
11.4363
 20
182.033
 30
0.0
 40
0.2
 41
0.2
  0
VERTEX
  8
0
 10
11.3537
 20
181.89
 30
0.0
 40
0.2
 41
0.2
  0
VERTEX
  8
0
 10
11.1883
 20
181.605
 30
0.0
 40
0.2
 41
0.2
  0
VERTEX
  8
0
 10
10.7666
 20
180.703
 30
0.0
 40
0.2
 41
0.2
  0
VERTEX
  8
0
 10
10.3436
 20
179.455
 30
0.0
 40
0.2
 41
0.2
  0
VERTEX
  8
0
 10
10.0858
 20
178.161
 30
0.0
 40
0.2
 41
0.2
  0
VERTEX
  8
0
 10
10.0004
 20
177.17
 30
0.0
 40
0.2
 41
0.2
  0
VERTEX
  8
0
 10
10.0004
 20
176.839
 30
0.0
 40
0.2
 41
0.2
  0
VERTEX
  8
0
 10
10.0004
 20
174.34
 30
0.0
 40
0.2
 41
0.2
  0
VERTEX
  8
0
 10
10.0004
 20
174.358
 30
0.0
 40
0.2
 41
0.2
  0
VERTEX
  8
0
 10
10.0294
 20
174.412
 30
0.0
 40
0.2
 41
0.2
  0
VERTEX
  8
0
 10
10.0817
 20
174.44
 30
0.0
 40
0.2
 41
0.2
  0
VERTEX
  8
0
 10
10.0996
 20
174.44
 30
0.0
 40
0.2
 41
0.2
  0
VERTEX
  8
0
 10
10.0817
 20
174.44
 30
0.0
 40
0.2
 41
0.2
  0
VERTEX
  8
0
 10
10.0294
 20
174.412
 30
0.0
 40
0.2
 41
0.2
  0
VERTEX
  8
0
 10
10.0004
 20
174.358
 30
0.0
 40
0.2
 41
0.2
  0
VERTEX
  8
0
 10
10.0004
 20
174.34
 30
0.0
 40
0.2
 41
0.2
  0
VERTEX
  8
0
 10
10.0004
 20
167.298
 30
0.0
 40
0.2
 41
0.2
  0
SEQEND
 8
0
  0
POLYLINE
  8
0
 62
     0
 66
     1
 10
0
 20
0
 30
0.0
 40
0.566929
 41
0.566929
  0
VERTEX
  8
0
 10
10.0004
 20
162.297
 30
0.0
 40
0.2
 41
0.2
  0
VERTEX
  8
0
 10
10.0004
 20
155.255
 30
0.0
 40
0.2
 41
0.2
  0
VERTEX
  8
0
 10
10.0004
 20
155.239
 30
0.0
 40
0.2
 41
0.2
  0
VERTEX
  8
0
 10
10.0294
 20
155.185
 30
0.0
 40
0.2
 41
0.2
  0
VERTEX
  8
0
 10
10.0817
 20
155.155
 30
0.0
 40
0.2
 41
0.2
  0
VERTEX
  8
0
 10
10.0996
 20
155.155
 30
0.0
 40
0.2
 41
0.2
  0
VERTEX
  8
0
 10
14.9999
 20
155.155
 30
0.0
 40
0.2
 41
0.2
  0
VERTEX
  8
0
 10
15.0096
 20
155.155
 30
0.0
 40
0.2
 41
0.2
  0
VERTEX
  8
0
 10
15.0413
 20
155.17
 30
0.0
 40
0.2
 41
0.2
  0
VERTEX
  8
0
 10
15.0372
 20
155.193
 30
0.0
 40
0.2
 41
0.2
  0
VERTEX
  8
0
 10
15.0137
 20
155.198
 30
0.0
 40
0.2
 41
0.2
  0
VERTEX
  8
0
 10
14.9999
 20
155.166
 30
0.0
 40
0.2
 41
0.2
  0
VERTEX
  8
0
 10
14.9999
 20
155.155
 30
0.0
 40
0.2
 41
0.2
  0
VERTEX
  8
0
 10
14.9999
 20
145.354
 30
0.0
 40
0.2
 41
0.2
  0
VERTEX
  8
0
 10
14.9999
 20
145.344
 30
0.0
 40
0.2
 41
0.2
  0
VERTEX
  8
0
 10
15.0137
 20
145.313
 30
0.0
 40
0.2
 41
0.2
  0
VERTEX
  8
0
 10
15.0372
 20
145.317
 30
0.0
 40
0.2
 41
0.2
  0
VERTEX
  8
0
 10
15.0413
 20
145.34
 30
0.0
 40
0.2
 41
0.2
  0
VERTEX
  8
0
 10
15.0096
 20
145.354
 30
0.0
 40
0.2
 41
0.2
  0
VERTEX
  8
0
 10
14.9999
 20
145.354
 30
0.0
 40
0.2
 41
0.2
  0
VERTEX
  8
0
 10
10.0996
 20
145.354
 30
0.0
 40
0.2
 41
0.2
  0
VERTEX
  8
0
 10
10.0817
 20
145.354
 30
0.0
 40
0.2
 41
0.2
  0
VERTEX
  8
0
 10
10.0294
 20
145.325
 30
0.0
 40
0.2
 41
0.2
  0
VERTEX
  8
0
 10
10.0004
 20
145.273
 30
0.0
 40
0.2
 41
0.2
  0
VERTEX
  8
0
 10
10.0004
 20
145.255
 30
0.0
 40
0.2
 41
0.2
  0
VERTEX
  8
0
 10
10.0004
 20
135.254
 30
0.0
 40
0.2
 41
0.2
  0
VERTEX
  8
0
 10
10.0004
 20
135.238
 30
0.0
 40
0.2
 41
0.2
  0
VERTEX
  8
0
 10
10.0294
 20
135.184
 30
0.0
 40
0.2
 41
0.2
  0
VERTEX
  8
0
 10
10.0817
 20
135.155
 30
0.0
 40
0.2
 41
0.2
  0
VERTEX
  8
0
 10
10.0996
 20
135.155
 30
0.0
 40
0.2
 41
0.2
  0
VERTEX
  8
0
 10
14.9999
 20
135.155
 30
0.0
 40
0.2
 41
0.2
  0
VERTEX
  8
0
 10
15.0096
 20
135.155
 30
0.0
 40
0.2
 41
0.2
  0
VERTEX
  8
0
 10
15.0413
 20
135.17
 30
0.0
 40
0.2
 41
0.2
  0
VERTEX
  8
0
 10
15.0372
 20
135.193
 30
0.0
 40
0.2
 41
0.2
  0
VERTEX
  8
0
 10
15.0137
 20
135.198
 30
0.0
 40
0.2
 41
0.2
  0
VERTEX
  8
0
 10
14.9999
 20
135.166
 30
0.0
 40
0.2
 41
0.2
  0
VERTEX
  8
0
 10
14.9999
 20
135.155
 30
0.0
 40
0.2
 41
0.2
  0
VERTEX
  8
0
 10
14.9999
 20
125.355
 30
0.0
 40
0.2
 41
0.2
  0
VERTEX
  8
0
 10
14.9999
 20
125.345
 30
0.0
 40
0.2
 41
0.2
  0
VERTEX
  8
0
 10
15.0137
 20
125.313
 30
0.0
 40
0.2
 41
0.2
  0
VERTEX
  8
0
 10
15.0372
 20
125.317
 30
0.0
 40
0.2
 41
0.2
  0
VERTEX
  8
0
 10
15.0413
 20
125.341
 30
0.0
 40
0.2
 41
0.2
  0
VERTEX
  8
0
 10
15.0096
 20
125.355
 30
0.0
 40
0.2
 41
0.2
  0
VERTEX
  8
0
 10
14.9999
 20
125.355
 30
0.0
 40
0.2
 41
0.2
  0
VERTEX
  8
0
 10
10.0996
 20
125.355
 30
0.0
 40
0.2
 41
0.2
  0
VERTEX
  8
0
 10
10.0817
 20
125.355
 30
0.0
 40
0.2
 41
0.2
  0
VERTEX
  8
0
 10
10.0294
 20
125.326
 30
0.0
 40
0.2
 41
0.2
  0
VERTEX
  8
0
 10
10.0004
 20
125.273
 30
0.0
 40
0.2
 41
0.2
  0
VERTEX
  8
0
 10
10.0004
 20
125.256
 30
0.0
 40
0.2
 41
0.2
  0
VERTEX
  8
0
 10
10.0004
 20
118.212
 30
0.0
 40
0.2
 41
0.2
  0
SEQEND
 8
0
  0
POLYLINE
  8
0
 62
     0
 66
     1
 10
0
 20
0
 30
0.0
 40
0.566929
 41
0.566929
  0
VERTEX
  8
0
 10
10.0004
 20
113.213
 30
0.0
 40
0.2
 41
0.2
  0
VERTEX
  8
0
 10
10.0004
 20
106.17
 30
0.0
 40
0.2
 41
0.2
  0
VERTEX
  8
0
 10
10.0004
 20
106.153
 30
0.0
 40
0.2
 41
0.2
  0
VERTEX
  8
0
 10
10.0294
 20
106.099
 30
0.0
 40
0.2
 41
0.2
  0
VERTEX
  8
0
 10
10.0817
 20
106.07
 30
0.0
 40
0.2
 41
0.2
  0
VERTEX
  8
0
 10
10.0996
 20
106.07
 30
0.0
 40
0.2
 41
0.2
  0
VERTEX
  8
0
 10
15.1005
 20
106.07
 30
0.0
 40
0.2
 41
0.2
  0
SEQEND
 8
0
  0
POLYLINE
  8
0
 62
     5
 66
     1
 10
0
 20
0
 30
0.0
 70
     1
 40
0.566929
 41
0.566929
  0
VERTEX
  8
0
 10
15.1997
 20
176.94
 30
0.0
 40
0.2
 41
0.2
  0
VERTEX
  8
0
 10
15.1997
 20
177.115
 30
0.0
 40
0.2
 41
0.2
  0
VERTEX
  8
0
 10
15.2494
 20
177.64
 30
0.0
 40
0.2
 41
0.2
  0
VERTEX
  8
0
 10
15.3982
 20
178.321
 30
0.0
 40
0.2
 41
0.2
  0
VERTEX
  8
0
 10
15.6421
 20
178.974
 30
0.0
 40
0.2
 41
0.2
  0
VERTEX
  8
0
 10
15.8833
 20
179.443
 30
0.0
 40
0.2
 41
0.2
  0
VERTEX
  8
0
 10
15.9784
 20
179.589
 30
0.0
 40
0.2
 41
0.2
  0
VERTEX
  8
0
 10
16.0721
 20
179.736
 30
0.0
 40
0.2
 41
0.2
  0
VERTEX
  8
0
 10
16.3973
 20
180.151
 30
0.0
 40
0.2
 41
0.2
  0
VERTEX
  8
0
 10
16.8906
 20
180.644
 30
0.0
 40
0.2
 41
0.2
  0
VERTEX
  8
0
 10
17.4487
 20
181.062
 30
0.0
 40
0.2
 41
0.2
  0
VERTEX
  8
0
 10
17.9048
 20
181.325
 30
0.0
 40
0.2
 41
0.2
  0
VERTEX
  8
0
 10
18.0647
 20
181.397
 30
0.0
 40
0.2
 41
0.2
  0
VERTEX
  8
0
 10
18.2232
 20
181.47
 30
0.0
 40
0.2
 41
0.2
  0
VERTEX
  8
0
 10
18.7206
 20
181.642
 30
0.0
 40
0.2
 41
0.2
  0
VERTEX
  8
0
 10
19.4014
 20
181.79
 30
0.0
 40
0.2
 41
0.2
  0
VERTEX
  8
0
 10
20.0973
 20
181.84
 30
0.0
 40
0.2
 41
0.2
  0
VERTEX
  8
0
 10
20.6237
 20
181.814
 30
0.0
 40
0.2
 41
0.2
  0
VERTEX
  8
0
 10
20.7973
 20
181.79
 30
0.0
 40
0.2
 41
0.2
  0
VERTEX
  8
0
 10
20.9696
 20
181.765
 30
0.0
 40
0.2
 41
0.2
  0
VERTEX
  8
0
 10
21.4822
 20
181.641
 30
0.0
 40
0.2
 41
0.2
  0
VERTEX
  8
0
 10
22.1354
 20
181.397
 30
0.0
 40
0.2
 41
0.2
  0
VERTEX
  8
0
 10
22.7459
 20
181.063
 30
0.0
 40
0.2
 41
0.2
  0
VERTEX
  8
0
 10
23.1758
 20
180.757
 30
0.0
 40
0.2
 41
0.2
  0
VERTEX
  8
0
 10
23.3081
 20
180.643
 30
0.0
 40
0.2
 41
0.2
  0
VERTEX
  8
0
 10
23.439
 20
180.53
 30
0.0
 40
0.2
 41
0.2
  0
VERTEX
  8
0
 10
23.8042
 20
180.148
 30
0.0
 40
0.2
 41
0.2
  0
VERTEX
  8
0
 10
24.2218
 20
179.59
 30
0.0
 40
0.2
 41
0.2
  0
VERTEX
  8
0
 10
24.5566
 20
178.978
 30
0.0
 40
0.2
 41
0.2
  0
VERTEX
  8
0
 10
24.7523
 20
178.489
 30
0.0
 40
0.2
 41
0.2
  0
VERTEX
  8
0
 10
24.8019
 20
178.321
 30
0.0
 40
0.2
 41
0.2
  0
VERTEX
  8
0
 10
24.8502
 20
178.154
 30
0.0
 40
0.2
 41
0.2
  0
VERTEX
  8
0
 10
24.9508
 20
177.636
 30
0.0
 40
0.2
 41
0.2
  0
VERTEX
  8
0
 10
25.0004
 20
176.94
 30
0.0
 40
0.2
 41
0.2
  0
VERTEX
  8
0
 10
24.9508
 20
176.246
 30
0.0
 40
0.2
 41
0.2
  0
VERTEX
  8
0
 10
24.8502
 20
175.727
 30
0.0
 40
0.2
 41
0.2
  0
VERTEX
  8
0
 10
24.8019
 20
175.559
 30
0.0
 40
0.2
 41
0.2
  0
VERTEX
  8
0
 10
24.7523
 20
175.393
 30
0.0
 40
0.2
 41
0.2
  0
VERTEX
  8
0
 10
24.5566
 20
174.903
 30
0.0
 40
0.2
 41
0.2
  0
VERTEX
  8
0
 10
24.2218
 20
174.292
 30
0.0
 40
0.2
 41
0.2
  0
VERTEX
  8
0
 10
23.8042
 20
173.734
 30
0.0
 40
0.2
 41
0.2
  0
VERTEX
  8
0
 10
23.4404
 20
173.35
 30
0.0
 40
0.2
 41
0.2
  0
VERTEX
  8
0
 10
23.3081
 20
173.236
 30
0.0
 40
0.2
 41
0.2
  0
VERTEX
  8
0
 10
23.1758
 20
173.121
 30
0.0
 40
0.2
 41
0.2
  0
VERTEX
  8
0
 10
22.7459
 20
172.817
 30
0.0
 40
0.2
 41
0.2
  0
VERTEX
  8
0
 10
22.1354
 20
172.484
 30
0.0
 40
0.2
 41
0.2
  0
VERTEX
  8
0
 10
21.4822
 20
172.24
 30
0.0
 40
0.2
 41
0.2
  0
VERTEX
  8
0
 10
20.9696
 20
172.114
 30
0.0
 40
0.2
 41
0.2
  0
VERTEX
  8
0
 10
20.7973
 20
172.09
 30
0.0
 40
0.2
 41
0.2
  0
VERTEX
  8
0
 10
20.6237
 20
172.065
 30
0.0
 40
0.2
 41
0.2
  0
VERTEX
  8
0
 10
20.0973
 20
172.04
 30
0.0
 40
0.2
 41
0.2
  0
VERTEX
  8
0
 10
19.4014
 20
172.09
 30
0.0
 40
0.2
 41
0.2
  0
VERTEX
  8
0
 10
18.7206
 20
172.238
 30
0.0
 40
0.2
 41
0.2
  0
VERTEX
  8
0
 10
18.2232
 20
172.411
 30
0.0
 40
0.2
 41
0.2
  0
VERTEX
  8
0
 10
18.0647
 20
172.482
 30
0.0
 40
0.2
 41
0.2
  0
VERTEX
  8
0
 10
17.9048
 20
172.555
 30
0.0
 40
0.2
 41
0.2
  0
VERTEX
  8
0
 10
17.4487
 20
172.818
 30
0.0
 40
0.2
 41
0.2
  0
VERTEX
  8
0
 10
16.8906
 20
173.237
 30
0.0
 40
0.2
 41
0.2
  0
VERTEX
  8
0
 10
16.3973
 20
173.731
 30
0.0
 40
0.2
 41
0.2
  0
VERTEX
  8
0
 10
16.0721
 20
174.144
 30
0.0
 40
0.2
 41
0.2
  0
VERTEX
  8
0
 10
15.9784
 20
174.29
 30
0.0
 40
0.2
 41
0.2
  0
VERTEX
  8
0
 10
15.8833
 20
174.438
 30
0.0
 40
0.2
 41
0.2
  0
VERTEX
  8
0
 10
15.6421
 20
174.906
 30
0.0
 40
0.2
 41
0.2
  0
VERTEX
  8
0
 10
15.3982
 20
175.559
 30
0.0
 40
0.2
 41
0.2
  0
VERTEX
  8
0
 10
15.2494
 20
176.241
 30
0.0
 40
0.2
 41
0.2
  0
VERTEX
  8
0
 10
15.1997
 20
176.766
 30
0.0
 40
0.2
 41
0.2
  0
VERTEX
  8
0
 10
15.1997
 20
176.94
 30
0.0
 40
0.2
 41
0.2
  0
SEQEND
 8
0
  0
POLYLINE
  8
0
 62
     5
 66
     1
 10
0
 20
0
 30
0.0
 70
     1
 40
0.566929
 41
0.566929
  0
VERTEX
  8
0
 10
20.1001
 20
179.339
 30
0.0
 40
0.2
 41
0.2
  0
VERTEX
  8
0
 10
22.1644
 20
179.339
 30
0.0
 40
0.2
 41
0.2
  0
VERTEX
  8
0
 10
22.174
 20
179.339
 30
0.0
 40
0.2
 41
0.2
  0
VERTEX
  8
0
 10
22.2057
 20
179.354
 30
0.0
 40
0.2
 41
0.2
  0
VERTEX
  8
0
 10
22.2016
 20
179.378
 30
0.0
 40
0.2
 41
0.2
  0
VERTEX
  8
0
 10
22.1782
 20
179.382
 30
0.0
 40
0.2
 41
0.2
  0
VERTEX
  8
0
 10
22.1644
 20
179.35
 30
0.0
 40
0.2
 41
0.2
  0
VERTEX
  8
0
 10
22.1644
 20
179.339
 30
0.0
 40
0.2
 41
0.2
  0
VERTEX
  8
0
 10
22.1644
 20
174.54
 30
0.0
 40
0.2
 41
0.2
  0
VERTEX
  8
0
 10
22.1644
 20
174.53
 30
0.0
 40
0.2
 41
0.2
  0
VERTEX
  8
0
 10
22.1782
 20
174.498
 30
0.0
 40
0.2
 41
0.2
  0
VERTEX
  8
0
 10
22.2016
 20
174.502
 30
0.0
 40
0.2
 41
0.2
  0
VERTEX
  8
0
 10
22.2057
 20
174.526
 30
0.0
 40
0.2
 41
0.2
  0
VERTEX
  8
0
 10
22.174
 20
174.54
 30
0.0
 40
0.2
 41
0.2
  0
VERTEX
  8
0
 10
22.1644
 20
174.54
 30
0.0
 40
0.2
 41
0.2
  0
VERTEX
  8
0
 10
18.0344
 20
174.54
 30
0.0
 40
0.2
 41
0.2
  0
VERTEX
  8
0
 10
18.0233
 20
174.54
 30
0.0
 40
0.2
 41
0.2
  0
VERTEX
  8
0
 10
17.9917
 20
174.526
 30
0.0
 40
0.2
 41
0.2
  0
VERTEX
  8
0
 10
17.9972
 20
174.502
 30
0.0
 40
0.2
 41
0.2
  0
VERTEX
  8
0
 10
18.0192
 20
174.498
 30
0.0
 40
0.2
 41
0.2
  0
VERTEX
  8
0
 10
18.0344
 20
174.53
 30
0.0
 40
0.2
 41
0.2
  0
VERTEX
  8
0
 10
18.0344
 20
174.54
 30
0.0
 40
0.2
 41
0.2
  0
VERTEX
  8
0
 10
18.0344
 20
179.339
 30
0.0
 40
0.2
 41
0.2
  0
VERTEX
  8
0
 10
18.0344
 20
179.35
 30
0.0
 40
0.2
 41
0.2
  0
VERTEX
  8
0
 10
18.0192
 20
179.382
 30
0.0
 40
0.2
 41
0.2
  0
VERTEX
  8
0
 10
17.9972
 20
179.378
 30
0.0
 40
0.2
 41
0.2
  0
VERTEX
  8
0
 10
17.9917
 20
179.354
 30
0.0
 40
0.2
 41
0.2
  0
VERTEX
  8
0
 10
18.0233
 20
179.339
 30
0.0
 40
0.2
 41
0.2
  0
VERTEX
  8
0
 10
18.0344
 20
179.339
 30
0.0
 40
0.2
 41
0.2
  0
VERTEX
  8
0
 10
20.1001
 20
179.339
 30
0.0
 40
0.2
 41
0.2
  0
SEQEND
 8
0
  0
TEXT
  8
0
 62
     1
 10
63.9858
 20
226.136
 30
0.0
 40
4.0005
  1
bottom
 50
0
  0
POLYLINE
  8
0
 62
     0
 66
     1
 10
0
 20
0
 30
0.0
 40
0.566929
 41
0.566929
  0
VERTEX
  8
0
 10
15.1005
 20
194.44
 30
0.0
 40
0.2
 41
0.2
  0
VERTEX
  8
0
 10
17.6003
 20
194.44
 30
0.0
 40
0.2
 41
0.2
  0
SEQEND
 8
0
  0
POLYLINE
  8
0
 62
     0
 66
     1
 10
0
 20
0
 30
0.0
 40
0.566929
 41
0.566929
  0
VERTEX
  8
0
 10
22.5998
 20
194.44
 30
0.0
 40
0.2
 41
0.2
  0
VERTEX
  8
0
 10
25.0004
 20
194.44
 30
0.0
 40
0.2
 41
0.2
  0
VERTEX
  8
0
 10
25.01
 20
194.44
 30
0.0
 40
0.2
 41
0.2
  0
VERTEX
  8
0
 10
25.0417
 20
194.455
 30
0.0
 40
0.2
 41
0.2
  0
VERTEX
  8
0
 10
25.0376
 20
194.477
 30
0.0
 40
0.2
 41
0.2
  0
VERTEX
  8
0
 10
25.0142
 20
194.483
 30
0.0
 40
0.2
 41
0.2
  0
VERTEX
  8
0
 10
25.0004
 20
194.451
 30
0.0
 40
0.2
 41
0.2
  0
VERTEX
  8
0
 10
25.0004
 20
194.44
 30
0.0
 40
0.2
 41
0.2
  0
VERTEX
  8
0
 10
25.0004
 20
189.539
 30
0.0
 40
0.2
 41
0.2
  0
VERTEX
  8
0
 10
25.0004
 20
189.523
 30
0.0
 40
0.2
 41
0.2
  0
VERTEX
  8
0
 10
25.0293
 20
189.469
 30
0.0
 40
0.2
 41
0.2
  0
VERTEX
  8
0
 10
25.0817
 20
189.44
 30
0.0
 40
0.2
 41
0.2
  0
VERTEX
  8
0
 10
25.0996
 20
189.44
 30
0.0
 40
0.2
 41
0.2
  0
VERTEX
  8
0
 10
35.1
 20
189.44
 30
0.0
 40
0.2
 41
0.2
  0
VERTEX
  8
0
 10
35.1166
 20
189.44
 30
0.0
 40
0.2
 41
0.2
  0
VERTEX
  8
0
 10
35.1703
 20
189.469
 30
0.0
 40
0.2
 41
0.2
  0
VERTEX
  8
0
 10
35.2006
 20
189.523
 30
0.0
 40
0.2
 41
0.2
  0
VERTEX
  8
0
 10
35.2006
 20
189.539
 30
0.0
 40
0.2
 41
0.2
  0
VERTEX
  8
0
 10
35.2006
 20
194.44
 30
0.0
 40
0.2
 41
0.2
  0
VERTEX
  8
0
 10
35.2006
 20
194.451
 30
0.0
 40
0.2
 41
0.2
  0
VERTEX
  8
0
 10
35.1855
 20
194.483
 30
0.0
 40
0.2
 41
0.2
  0
VERTEX
  8
0
 10
35.162
 20
194.477
 30
0.0
 40
0.2
 41
0.2
  0
VERTEX
  8
0
 10
35.1579
 20
194.455
 30
0.0
 40
0.2
 41
0.2
  0
VERTEX
  8
0
 10
35.1896
 20
194.44
 30
0.0
 40
0.2
 41
0.2
  0
VERTEX
  8
0
 10
35.2006
 20
194.44
 30
0.0
 40
0.2
 41
0.2
  0
VERTEX
  8
0
 10
45
 20
194.44
 30
0.0
 40
0.2
 41
0.2
  0
VERTEX
  8
0
 10
45.0095
 20
194.44
 30
0.0
 40
0.2
 41
0.2
  0
VERTEX
  8
0
 10
45.0413
 20
194.455
 30
0.0
 40
0.2
 41
0.2
  0
VERTEX
  8
0
 10
45.037
 20
194.477
 30
0.0
 40
0.2
 41
0.2
  0
VERTEX
  8
0
 10
45.0137
 20
194.483
 30
0.0
 40
0.2
 41
0.2
  0
VERTEX
  8
0
 10
45
 20
194.451
 30
0.0
 40
0.2
 41
0.2
  0
VERTEX
  8
0
 10
45
 20
194.44
 30
0.0
 40
0.2
 41
0.2
  0
VERTEX
  8
0
 10
45
 20
189.539
 30
0.0
 40
0.2
 41
0.2
  0
VERTEX
  8
0
 10
45
 20
189.523
 30
0.0
 40
0.2
 41
0.2
  0
VERTEX
  8
0
 10
45.0289
 20
189.469
 30
0.0
 40
0.2
 41
0.2
  0
VERTEX
  8
0
 10
45.0825
 20
189.44
 30
0.0
 40
0.2
 41
0.2
  0
VERTEX
  8
0
 10
45.1005
 20
189.44
 30
0.0
 40
0.2
 41
0.2
  0
VERTEX
  8
0
 10
55.0997
 20
189.44
 30
0.0
 40
0.2
 41
0.2
  0
VERTEX
  8
0
 10
55.1159
 20
189.44
 30
0.0
 40
0.2
 41
0.2
  0
VERTEX
  8
0
 10
55.1699
 20
189.469
 30
0.0
 40
0.2
 41
0.2
  0
VERTEX
  8
0
 10
55.2002
 20
189.523
 30
0.0
 40
0.2
 41
0.2
  0
VERTEX
  8
0
 10
55.2002
 20
189.539
 30
0.0
 40
0.2
 41
0.2
  0
VERTEX
  8
0
 10
55.2002
 20
194.44
 30
0.0
 40
0.2
 41
0.2
  0
VERTEX
  8
0
 10
55.2002
 20
194.451
 30
0.0
 40
0.2
 41
0.2
  0
VERTEX
  8
0
 10
55.185
 20
194.483
 30
0.0
 40
0.2
 41
0.2
  0
VERTEX
  8
0
 10
55.1614
 20
194.477
 30
0.0
 40
0.2
 41
0.2
  0
VERTEX
  8
0
 10
55.1575
 20
194.455
 30
0.0
 40
0.2
 41
0.2
  0
VERTEX
  8
0
 10
55.1889
 20
194.44
 30
0.0
 40
0.2
 41
0.2
  0
VERTEX
  8
0
 10
55.2002
 20
194.44
 30
0.0
 40
0.2
 41
0.2
  0
VERTEX
  8
0
 10
65.0007
 20
194.44
 30
0.0
 40
0.2
 41
0.2
  0
VERTEX
  8
0
 10
65.0102
 20
194.44
 30
0.0
 40
0.2
 41
0.2
  0
VERTEX
  8
0
 10
65.042
 20
194.455
 30
0.0
 40
0.2
 41
0.2
  0
VERTEX
  8
0
 10
65.0378
 20
194.477
 30
0.0
 40
0.2
 41
0.2
  0
VERTEX
  8
0
 10
65.0145
 20
194.483
 30
0.0
 40
0.2
 41
0.2
  0
VERTEX
  8
0
 10
65.0007
 20
194.451
 30
0.0
 40
0.2
 41
0.2
  0
VERTEX
  8
0
 10
65.0007
 20
194.44
 30
0.0
 40
0.2
 41
0.2
  0
VERTEX
  8
0
 10
65.0007
 20
189.539
 30
0.0
 40
0.2
 41
0.2
  0
VERTEX
  8
0
 10
65.0007
 20
189.523
 30
0.0
 40
0.2
 41
0.2
  0
VERTEX
  8
0
 10
65.0296
 20
189.469
 30
0.0
 40
0.2
 41
0.2
  0
VERTEX
  8
0
 10
65.0819
 20
189.44
 30
0.0
 40
0.2
 41
0.2
  0
VERTEX
  8
0
 10
65.0998
 20
189.44
 30
0.0
 40
0.2
 41
0.2
  0
VERTEX
  8
0
 10
75.1004
 20
189.44
 30
0.0
 40
0.2
 41
0.2
  0
VERTEX
  8
0
 10
75.117
 20
189.44
 30
0.0
 40
0.2
 41
0.2
  0
VERTEX
  8
0
 10
75.1706
 20
189.469
 30
0.0
 40
0.2
 41
0.2
  0
VERTEX
  8
0
 10
75.1995
 20
189.523
 30
0.0
 40
0.2
 41
0.2
  0
VERTEX
  8
0
 10
75.1995
 20
189.539
 30
0.0
 40
0.2
 41
0.2
  0
VERTEX
  8
0
 10
75.1995
 20
194.44
 30
0.0
 40
0.2
 41
0.2
  0
VERTEX
  8
0
 10
75.1995
 20
194.451
 30
0.0
 40
0.2
 41
0.2
  0
VERTEX
  8
0
 10
75.1844
 20
194.483
 30
0.0
 40
0.2
 41
0.2
  0
VERTEX
  8
0
 10
75.1625
 20
194.477
 30
0.0
 40
0.2
 41
0.2
  0
VERTEX
  8
0
 10
75.1568
 20
194.455
 30
0.0
 40
0.2
 41
0.2
  0
VERTEX
  8
0
 10
75.1886
 20
194.44
 30
0.0
 40
0.2
 41
0.2
  0
VERTEX
  8
0
 10
75.1995
 20
194.44
 30
0.0
 40
0.2
 41
0.2
  0
VERTEX
  8
0
 10
85
 20
194.44
 30
0.0
 40
0.2
 41
0.2
  0
VERTEX
  8
0
 10
85.0099
 20
194.44
 30
0.0
 40
0.2
 41
0.2
  0
VERTEX
  8
0
 10
85.0417
 20
194.455
 30
0.0
 40
0.2
 41
0.2
  0
VERTEX
  8
0
 10
85.0374
 20
194.477
 30
0.0
 40
0.2
 41
0.2
  0
VERTEX
  8
0
 10
85.0138
 20
194.483
 30
0.0
 40
0.2
 41
0.2
  0
VERTEX
  8
0
 10
85
 20
194.451
 30
0.0
 40
0.2
 41
0.2
  0
VERTEX
  8
0
 10
85
 20
194.44
 30
0.0
 40
0.2
 41
0.2
  0
VERTEX
  8
0
 10
85
 20
189.539
 30
0.0
 40
0.2
 41
0.2
  0
VERTEX
  8
0
 10
85
 20
189.523
 30
0.0
 40
0.2
 41
0.2
  0
VERTEX
  8
0
 10
85.029
 20
189.469
 30
0.0
 40
0.2
 41
0.2
  0
VERTEX
  8
0
 10
85.0815
 20
189.44
 30
0.0
 40
0.2
 41
0.2
  0
VERTEX
  8
0
 10
85.0995
 20
189.44
 30
0.0
 40
0.2
 41
0.2
  0
VERTEX
  8
0
 10
95.0997
 20
189.44
 30
0.0
 40
0.2
 41
0.2
  0
VERTEX
  8
0
 10
95.1163
 20
189.44
 30
0.0
 40
0.2
 41
0.2
  0
VERTEX
  8
0
 10
95.1699
 20
189.469
 30
0.0
 40
0.2
 41
0.2
  0
VERTEX
  8
0
 10
95.2003
 20
189.523
 30
0.0
 40
0.2
 41
0.2
  0
VERTEX
  8
0
 10
95.2003
 20
189.539
 30
0.0
 40
0.2
 41
0.2
  0
VERTEX
  8
0
 10
95.2003
 20
194.44
 30
0.0
 40
0.2
 41
0.2
  0
VERTEX
  8
0
 10
95.2003
 20
194.451
 30
0.0
 40
0.2
 41
0.2
  0
VERTEX
  8
0
 10
95.1851
 20
194.483
 30
0.0
 40
0.2
 41
0.2
  0
VERTEX
  8
0
 10
95.1618
 20
194.477
 30
0.0
 40
0.2
 41
0.2
  0
VERTEX
  8
0
 10
95.1576
 20
194.455
 30
0.0
 40
0.2
 41
0.2
  0
VERTEX
  8
0
 10
95.1893
 20
194.44
 30
0.0
 40
0.2
 41
0.2
  0
VERTEX
  8
0
 10
95.2003
 20
194.44
 30
0.0
 40
0.2
 41
0.2
  0
VERTEX
  8
0
 10
105
 20
194.44
 30
0.0
 40
0.2
 41
0.2
  0
VERTEX
  8
0
 10
105.009
 20
194.44
 30
0.0
 40
0.2
 41
0.2
  0
VERTEX
  8
0
 10
105.041
 20
194.455
 30
0.0
 40
0.2
 41
0.2
  0
VERTEX
  8
0
 10
105.037
 20
194.477
 30
0.0
 40
0.2
 41
0.2
  0
VERTEX
  8
0
 10
105.013
 20
194.483
 30
0.0
 40
0.2
 41
0.2
  0
VERTEX
  8
0
 10
105
 20
194.451
 30
0.0
 40
0.2
 41
0.2
  0
VERTEX
  8
0
 10
105
 20
194.44
 30
0.0
 40
0.2
 41
0.2
  0
VERTEX
  8
0
 10
105
 20
189.539
 30
0.0
 40
0.2
 41
0.2
  0
VERTEX
  8
0
 10
105
 20
189.523
 30
0.0
 40
0.2
 41
0.2
  0
VERTEX
  8
0
 10
105.029
 20
189.469
 30
0.0
 40
0.2
 41
0.2
  0
VERTEX
  8
0
 10
105.082
 20
189.44
 30
0.0
 40
0.2
 41
0.2
  0
VERTEX
  8
0
 10
105.1
 20
189.44
 30
0.0
 40
0.2
 41
0.2
  0
VERTEX
  8
0
 10
115.101
 20
189.44
 30
0.0
 40
0.2
 41
0.2
  0
VERTEX
  8
0
 10
115.117
 20
189.44
 30
0.0
 40
0.2
 41
0.2
  0
VERTEX
  8
0
 10
115.171
 20
189.469
 30
0.0
 40
0.2
 41
0.2
  0
VERTEX
  8
0
 10
115.2
 20
189.523
 30
0.0
 40
0.2
 41
0.2
  0
VERTEX
  8
0
 10
115.2
 20
189.539
 30
0.0
 40
0.2
 41
0.2
  0
VERTEX
  8
0
 10
115.2
 20
194.44
 30
0.0
 40
0.2
 41
0.2
  0
VERTEX
  8
0
 10
115.2
 20
194.451
 30
0.0
 40
0.2
 41
0.2
  0
VERTEX
  8
0
 10
115.185
 20
194.483
 30
0.0
 40
0.2
 41
0.2
  0
VERTEX
  8
0
 10
115.163
 20
194.477
 30
0.0
 40
0.2
 41
0.2
  0
VERTEX
  8
0
 10
115.157
 20
194.455
 30
0.0
 40
0.2
 41
0.2
  0
VERTEX
  8
0
 10
115.189
 20
194.44
 30
0.0
 40
0.2
 41
0.2
  0
VERTEX
  8
0
 10
115.2
 20
194.44
 30
0.0
 40
0.2
 41
0.2
  0
VERTEX
  8
0
 10
117.6
 20
194.44
 30
0.0
 40
0.2
 41
0.2
  0
SEQEND
 8
0
  0
POLYLINE
  8
0
 62
     0
 66
     1
 10
0
 20
0
 30
0.0
 40
0.566929
 41
0.566929
  0
VERTEX
  8
0
 10
122.6
 20
194.44
 30
0.0
 40
0.2
 41
0.2
  0
VERTEX
  8
0
 10
125.1
 20
194.44
 30
0.0
 40
0.2
 41
0.2
  0
VERTEX
  8
0
 10
125.116
 20
194.44
 30
0.0
 40
0.2
 41
0.2
  0
VERTEX
  8
0
 10
125.17
 20
194.47
 30
0.0
 40
0.2
 41
0.2
  0
VERTEX
  8
0
 10
125.2
 20
194.522
 30
0.0
 40
0.2
 41
0.2
  0
VERTEX
  8
0
 10
125.2
 20
194.539
 30
0.0
 40
0.2
 41
0.2
  0
VERTEX
  8
0
 10
125.2
 20
200.79
 30
0.0
 40
0.2
 41
0.2
  0
SEQEND
 8
0
  0
POLYLINE
  8
0
 62
     0
 66
     1
 10
0
 20
0
 30
0.0
 40
0.566929
 41
0.566929
  0
VERTEX
  8
0
 10
125.2
 20
205.789
 30
0.0
 40
0.2
 41
0.2
  0
VERTEX
  8
0
 10
125.2
 20
211.939
 30
0.0
 40
0.2
 41
0.2
  0
VERTEX
  8
0
 10
125.2
 20
211.951
 30
0.0
 40
0.2
 41
0.2
  0
VERTEX
  8
0
 10
125.185
 20
211.982
 30
0.0
 40
0.2
 41
0.2
  0
VERTEX
  8
0
 10
125.162
 20
211.978
 30
0.0
 40
0.2
 41
0.2
  0
VERTEX
  8
0
 10
125.157
 20
211.955
 30
0.0
 40
0.2
 41
0.2
  0
VERTEX
  8
0
 10
125.189
 20
211.939
 30
0.0
 40
0.2
 41
0.2
  0
VERTEX
  8
0
 10
125.2
 20
211.939
 30
0.0
 40
0.2
 41
0.2
  0
VERTEX
  8
0
 10
130.099
 20
211.939
 30
0.0
 40
0.2
 41
0.2
  0
VERTEX
  8
0
 10
130.116
 20
211.939
 30
0.0
 40
0.2
 41
0.2
  0
VERTEX
  8
0
 10
130.169
 20
211.97
 30
0.0
 40
0.2
 41
0.2
  0
VERTEX
  8
0
 10
130.2
 20
212.024
 30
0.0
 40
0.2
 41
0.2
  0
VERTEX
  8
0
 10
130.2
 20
212.04
 30
0.0
 40
0.2
 41
0.2
  0
VERTEX
  8
0
 10
130.2
 20
222.039
 30
0.0
 40
0.2
 41
0.2
  0
VERTEX
  8
0
 10
130.2
 20
222.057
 30
0.0
 40
0.2
 41
0.2
  0
VERTEX
  8
0
 10
130.169
 20
222.111
 30
0.0
 40
0.2
 41
0.2
  0
VERTEX
  8
0
 10
130.116
 20
222.14
 30
0.0
 40
0.2
 41
0.2
  0
VERTEX
  8
0
 10
130.099
 20
222.14
 30
0.0
 40
0.2
 41
0.2
  0
VERTEX
  8
0
 10
125.2
 20
222.14
 30
0.0
 40
0.2
 41
0.2
  0
VERTEX
  8
0
 10
125.189
 20
222.14
 30
0.0
 40
0.2
 41
0.2
  0
VERTEX
  8
0
 10
125.157
 20
222.126
 30
0.0
 40
0.2
 41
0.2
  0
VERTEX
  8
0
 10
125.162
 20
222.103
 30
0.0
 40
0.2
 41
0.2
  0
VERTEX
  8
0
 10
125.185
 20
222.098
 30
0.0
 40
0.2
 41
0.2
  0
VERTEX
  8
0
 10
125.2
 20
222.13
 30
0.0
 40
0.2
 41
0.2
  0
VERTEX
  8
0
 10
125.2
 20
222.14
 30
0.0
 40
0.2
 41
0.2
  0
VERTEX
  8
0
 10
125.2
 20
231.94
 30
0.0
 40
0.2
 41
0.2
  0
VERTEX
  8
0
 10
125.2
 20
231.951
 30
0.0
 40
0.2
 41
0.2
  0
VERTEX
  8
0
 10
125.185
 20
231.983
 30
0.0
 40
0.2
 41
0.2
  0
VERTEX
  8
0
 10
125.162
 20
231.977
 30
0.0
 40
0.2
 41
0.2
  0
VERTEX
  8
0
 10
125.157
 20
231.956
 30
0.0
 40
0.2
 41
0.2
  0
VERTEX
  8
0
 10
125.189
 20
231.94
 30
0.0
 40
0.2
 41
0.2
  0
VERTEX
  8
0
 10
125.2
 20
231.94
 30
0.0
 40
0.2
 41
0.2
  0
VERTEX
  8
0
 10
130.099
 20
231.94
 30
0.0
 40
0.2
 41
0.2
  0
VERTEX
  8
0
 10
130.116
 20
231.94
 30
0.0
 40
0.2
 41
0.2
  0
VERTEX
  8
0
 10
130.169
 20
231.969
 30
0.0
 40
0.2
 41
0.2
  0
VERTEX
  8
0
 10
130.2
 20
232.023
 30
0.0
 40
0.2
 41
0.2
  0
VERTEX
  8
0
 10
130.2
 20
232.04
 30
0.0
 40
0.2
 41
0.2
  0
VERTEX
  8
0
 10
130.2
 20
242.04
 30
0.0
 40
0.2
 41
0.2
  0
VERTEX
  8
0
 10
130.2
 20
242.058
 30
0.0
 40
0.2
 41
0.2
  0
VERTEX
  8
0
 10
130.169
 20
242.11
 30
0.0
 40
0.2
 41
0.2
  0
VERTEX
  8
0
 10
130.116
 20
242.139
 30
0.0
 40
0.2
 41
0.2
  0
VERTEX
  8
0
 10
130.099
 20
242.139
 30
0.0
 40
0.2
 41
0.2
  0
VERTEX
  8
0
 10
125.2
 20
242.139
 30
0.0
 40
0.2
 41
0.2
  0
VERTEX
  8
0
 10
125.189
 20
242.139
 30
0.0
 40
0.2
 41
0.2
  0
VERTEX
  8
0
 10
125.157
 20
242.126
 30
0.0
 40
0.2
 41
0.2
  0
VERTEX
  8
0
 10
125.162
 20
242.102
 30
0.0
 40
0.2
 41
0.2
  0
VERTEX
  8
0
 10
125.185
 20
242.098
 30
0.0
 40
0.2
 41
0.2
  0
VERTEX
  8
0
 10
125.2
 20
242.13
 30
0.0
 40
0.2
 41
0.2
  0
VERTEX
  8
0
 10
125.2
 20
242.139
 30
0.0
 40
0.2
 41
0.2
  0
VERTEX
  8
0
 10
125.2
 20
248.29
 30
0.0
 40
0.2
 41
0.2
  0
SEQEND
 8
0
  0
POLYLINE
  8
0
 62
     0
 66
     1
 10
0
 20
0
 30
0.0
 40
0.566929
 41
0.566929
  0
VERTEX
  8
0
 10
125.2
 20
253.29
 30
0.0
 40
0.2
 41
0.2
  0
VERTEX
  8
0
 10
125.2
 20
259.54
 30
0.0
 40
0.2
 41
0.2
  0
VERTEX
  8
0
 10
125.2
 20
259.558
 30
0.0
 40
0.2
 41
0.2
  0
VERTEX
  8
0
 10
125.17
 20
259.611
 30
0.0
 40
0.2
 41
0.2
  0
VERTEX
  8
0
 10
125.116
 20
259.64
 30
0.0
 40
0.2
 41
0.2
  0
VERTEX
  8
0
 10
125.1
 20
259.64
 30
0.0
 40
0.2
 41
0.2
  0
VERTEX
  8
0
 10
122.6
 20
259.64
 30
0.0
 40
0.2
 41
0.2
  0
SEQEND
 8
0
  0
POLYLINE
  8
0
 62
     0
 66
     1
 10
0
 20
0
 30
0.0
 40
0.566929
 41
0.566929
  0
VERTEX
  8
0
 10
117.6
 20
259.64
 30
0.0
 40
0.2
 41
0.2
  0
VERTEX
  8
0
 10
115.2
 20
259.64
 30
0.0
 40
0.2
 41
0.2
  0
VERTEX
  8
0
 10
115.189
 20
259.64
 30
0.0
 40
0.2
 41
0.2
  0
VERTEX
  8
0
 10
115.157
 20
259.626
 30
0.0
 40
0.2
 41
0.2
  0
VERTEX
  8
0
 10
115.163
 20
259.603
 30
0.0
 40
0.2
 41
0.2
  0
VERTEX
  8
0
 10
115.185
 20
259.599
 30
0.0
 40
0.2
 41
0.2
  0
VERTEX
  8
0
 10
115.2
 20
259.631
 30
0.0
 40
0.2
 41
0.2
  0
VERTEX
  8
0
 10
115.2
 20
259.64
 30
0.0
 40
0.2
 41
0.2
  0
VERTEX
  8
0
 10
115.2
 20
264.539
 30
0.0
 40
0.2
 41
0.2
  0
VERTEX
  8
0
 10
115.2
 20
264.557
 30
0.0
 40
0.2
 41
0.2
  0
VERTEX
  8
0
 10
115.171
 20
264.611
 30
0.0
 40
0.2
 41
0.2
  0
VERTEX
  8
0
 10
115.117
 20
264.64
 30
0.0
 40
0.2
 41
0.2
  0
VERTEX
  8
0
 10
115.101
 20
264.64
 30
0.0
 40
0.2
 41
0.2
  0
VERTEX
  8
0
 10
105.1
 20
264.64
 30
0.0
 40
0.2
 41
0.2
  0
VERTEX
  8
0
 10
105.082
 20
264.64
 30
0.0
 40
0.2
 41
0.2
  0
VERTEX
  8
0
 10
105.029
 20
264.611
 30
0.0
 40
0.2
 41
0.2
  0
VERTEX
  8
0
 10
105
 20
264.557
 30
0.0
 40
0.2
 41
0.2
  0
VERTEX
  8
0
 10
105
 20
264.539
 30
0.0
 40
0.2
 41
0.2
  0
VERTEX
  8
0
 10
105
 20
259.64
 30
0.0
 40
0.2
 41
0.2
  0
VERTEX
  8
0
 10
105
 20
259.631
 30
0.0
 40
0.2
 41
0.2
  0
VERTEX
  8
0
 10
105.013
 20
259.599
 30
0.0
 40
0.2
 41
0.2
  0
VERTEX
  8
0
 10
105.037
 20
259.603
 30
0.0
 40
0.2
 41
0.2
  0
VERTEX
  8
0
 10
105.041
 20
259.626
 30
0.0
 40
0.2
 41
0.2
  0
VERTEX
  8
0
 10
105.009
 20
259.64
 30
0.0
 40
0.2
 41
0.2
  0
VERTEX
  8
0
 10
105
 20
259.64
 30
0.0
 40
0.2
 41
0.2
  0
VERTEX
  8
0
 10
95.2003
 20
259.64
 30
0.0
 40
0.2
 41
0.2
  0
VERTEX
  8
0
 10
95.1893
 20
259.64
 30
0.0
 40
0.2
 41
0.2
  0
VERTEX
  8
0
 10
95.1576
 20
259.626
 30
0.0
 40
0.2
 41
0.2
  0
VERTEX
  8
0
 10
95.1618
 20
259.603
 30
0.0
 40
0.2
 41
0.2
  0
VERTEX
  8
0
 10
95.1851
 20
259.599
 30
0.0
 40
0.2
 41
0.2
  0
VERTEX
  8
0
 10
95.2003
 20
259.631
 30
0.0
 40
0.2
 41
0.2
  0
VERTEX
  8
0
 10
95.2003
 20
259.64
 30
0.0
 40
0.2
 41
0.2
  0
VERTEX
  8
0
 10
95.2003
 20
264.539
 30
0.0
 40
0.2
 41
0.2
  0
VERTEX
  8
0
 10
95.2003
 20
264.557
 30
0.0
 40
0.2
 41
0.2
  0
VERTEX
  8
0
 10
95.1699
 20
264.611
 30
0.0
 40
0.2
 41
0.2
  0
VERTEX
  8
0
 10
95.1163
 20
264.64
 30
0.0
 40
0.2
 41
0.2
  0
VERTEX
  8
0
 10
95.0997
 20
264.64
 30
0.0
 40
0.2
 41
0.2
  0
VERTEX
  8
0
 10
85.0995
 20
264.64
 30
0.0
 40
0.2
 41
0.2
  0
VERTEX
  8
0
 10
85.0815
 20
264.64
 30
0.0
 40
0.2
 41
0.2
  0
VERTEX
  8
0
 10
85.029
 20
264.611
 30
0.0
 40
0.2
 41
0.2
  0
VERTEX
  8
0
 10
85
 20
264.557
 30
0.0
 40
0.2
 41
0.2
  0
VERTEX
  8
0
 10
85
 20
264.539
 30
0.0
 40
0.2
 41
0.2
  0
VERTEX
  8
0
 10
85
 20
259.64
 30
0.0
 40
0.2
 41
0.2
  0
VERTEX
  8
0
 10
85
 20
259.631
 30
0.0
 40
0.2
 41
0.2
  0
VERTEX
  8
0
 10
85.0138
 20
259.599
 30
0.0
 40
0.2
 41
0.2
  0
VERTEX
  8
0
 10
85.0374
 20
259.603
 30
0.0
 40
0.2
 41
0.2
  0
VERTEX
  8
0
 10
85.0417
 20
259.626
 30
0.0
 40
0.2
 41
0.2
  0
VERTEX
  8
0
 10
85.0099
 20
259.64
 30
0.0
 40
0.2
 41
0.2
  0
VERTEX
  8
0
 10
85
 20
259.64
 30
0.0
 40
0.2
 41
0.2
  0
VERTEX
  8
0
 10
75.1995
 20
259.64
 30
0.0
 40
0.2
 41
0.2
  0
VERTEX
  8
0
 10
75.1886
 20
259.64
 30
0.0
 40
0.2
 41
0.2
  0
VERTEX
  8
0
 10
75.1568
 20
259.626
 30
0.0
 40
0.2
 41
0.2
  0
VERTEX
  8
0
 10
75.1625
 20
259.603
 30
0.0
 40
0.2
 41
0.2
  0
VERTEX
  8
0
 10
75.1844
 20
259.599
 30
0.0
 40
0.2
 41
0.2
  0
VERTEX
  8
0
 10
75.1995
 20
259.631
 30
0.0
 40
0.2
 41
0.2
  0
VERTEX
  8
0
 10
75.1995
 20
259.64
 30
0.0
 40
0.2
 41
0.2
  0
VERTEX
  8
0
 10
75.1995
 20
264.539
 30
0.0
 40
0.2
 41
0.2
  0
VERTEX
  8
0
 10
75.1995
 20
264.557
 30
0.0
 40
0.2
 41
0.2
  0
VERTEX
  8
0
 10
75.1706
 20
264.611
 30
0.0
 40
0.2
 41
0.2
  0
VERTEX
  8
0
 10
75.117
 20
264.64
 30
0.0
 40
0.2
 41
0.2
  0
VERTEX
  8
0
 10
75.1004
 20
264.64
 30
0.0
 40
0.2
 41
0.2
  0
VERTEX
  8
0
 10
65.0998
 20
264.64
 30
0.0
 40
0.2
 41
0.2
  0
VERTEX
  8
0
 10
65.0819
 20
264.64
 30
0.0
 40
0.2
 41
0.2
  0
VERTEX
  8
0
 10
65.0296
 20
264.611
 30
0.0
 40
0.2
 41
0.2
  0
VERTEX
  8
0
 10
65.0007
 20
264.557
 30
0.0
 40
0.2
 41
0.2
  0
VERTEX
  8
0
 10
65.0007
 20
264.539
 30
0.0
 40
0.2
 41
0.2
  0
VERTEX
  8
0
 10
65.0007
 20
259.64
 30
0.0
 40
0.2
 41
0.2
  0
VERTEX
  8
0
 10
65.0007
 20
259.631
 30
0.0
 40
0.2
 41
0.2
  0
VERTEX
  8
0
 10
65.0145
 20
259.599
 30
0.0
 40
0.2
 41
0.2
  0
VERTEX
  8
0
 10
65.0378
 20
259.603
 30
0.0
 40
0.2
 41
0.2
  0
VERTEX
  8
0
 10
65.042
 20
259.626
 30
0.0
 40
0.2
 41
0.2
  0
VERTEX
  8
0
 10
65.0102
 20
259.64
 30
0.0
 40
0.2
 41
0.2
  0
VERTEX
  8
0
 10
65.0007
 20
259.64
 30
0.0
 40
0.2
 41
0.2
  0
VERTEX
  8
0
 10
55.2002
 20
259.64
 30
0.0
 40
0.2
 41
0.2
  0
VERTEX
  8
0
 10
55.1889
 20
259.64
 30
0.0
 40
0.2
 41
0.2
  0
VERTEX
  8
0
 10
55.1575
 20
259.626
 30
0.0
 40
0.2
 41
0.2
  0
VERTEX
  8
0
 10
55.1614
 20
259.603
 30
0.0
 40
0.2
 41
0.2
  0
VERTEX
  8
0
 10
55.185
 20
259.599
 30
0.0
 40
0.2
 41
0.2
  0
VERTEX
  8
0
 10
55.2002
 20
259.631
 30
0.0
 40
0.2
 41
0.2
  0
VERTEX
  8
0
 10
55.2002
 20
259.64
 30
0.0
 40
0.2
 41
0.2
  0
VERTEX
  8
0
 10
55.2002
 20
264.539
 30
0.0
 40
0.2
 41
0.2
  0
VERTEX
  8
0
 10
55.2002
 20
264.557
 30
0.0
 40
0.2
 41
0.2
  0
VERTEX
  8
0
 10
55.1699
 20
264.611
 30
0.0
 40
0.2
 41
0.2
  0
VERTEX
  8
0
 10
55.1159
 20
264.64
 30
0.0
 40
0.2
 41
0.2
  0
VERTEX
  8
0
 10
55.0997
 20
264.64
 30
0.0
 40
0.2
 41
0.2
  0
VERTEX
  8
0
 10
45.1005
 20
264.64
 30
0.0
 40
0.2
 41
0.2
  0
VERTEX
  8
0
 10
45.0825
 20
264.64
 30
0.0
 40
0.2
 41
0.2
  0
VERTEX
  8
0
 10
45.0289
 20
264.611
 30
0.0
 40
0.2
 41
0.2
  0
VERTEX
  8
0
 10
45
 20
264.557
 30
0.0
 40
0.2
 41
0.2
  0
VERTEX
  8
0
 10
45
 20
264.539
 30
0.0
 40
0.2
 41
0.2
  0
VERTEX
  8
0
 10
45
 20
259.64
 30
0.0
 40
0.2
 41
0.2
  0
VERTEX
  8
0
 10
45
 20
259.631
 30
0.0
 40
0.2
 41
0.2
  0
VERTEX
  8
0
 10
45.0137
 20
259.599
 30
0.0
 40
0.2
 41
0.2
  0
VERTEX
  8
0
 10
45.037
 20
259.603
 30
0.0
 40
0.2
 41
0.2
  0
VERTEX
  8
0
 10
45.0413
 20
259.626
 30
0.0
 40
0.2
 41
0.2
  0
VERTEX
  8
0
 10
45.0095
 20
259.64
 30
0.0
 40
0.2
 41
0.2
  0
VERTEX
  8
0
 10
45
 20
259.64
 30
0.0
 40
0.2
 41
0.2
  0
VERTEX
  8
0
 10
35.2006
 20
259.64
 30
0.0
 40
0.2
 41
0.2
  0
VERTEX
  8
0
 10
35.1896
 20
259.64
 30
0.0
 40
0.2
 41
0.2
  0
VERTEX
  8
0
 10
35.1579
 20
259.626
 30
0.0
 40
0.2
 41
0.2
  0
VERTEX
  8
0
 10
35.162
 20
259.603
 30
0.0
 40
0.2
 41
0.2
  0
VERTEX
  8
0
 10
35.1855
 20
259.599
 30
0.0
 40
0.2
 41
0.2
  0
VERTEX
  8
0
 10
35.2006
 20
259.631
 30
0.0
 40
0.2
 41
0.2
  0
VERTEX
  8
0
 10
35.2006
 20
259.64
 30
0.0
 40
0.2
 41
0.2
  0
VERTEX
  8
0
 10
35.2006
 20
264.539
 30
0.0
 40
0.2
 41
0.2
  0
VERTEX
  8
0
 10
35.2006
 20
264.557
 30
0.0
 40
0.2
 41
0.2
  0
VERTEX
  8
0
 10
35.1703
 20
264.611
 30
0.0
 40
0.2
 41
0.2
  0
VERTEX
  8
0
 10
35.1166
 20
264.64
 30
0.0
 40
0.2
 41
0.2
  0
VERTEX
  8
0
 10
35.1
 20
264.64
 30
0.0
 40
0.2
 41
0.2
  0
VERTEX
  8
0
 10
25.0996
 20
264.64
 30
0.0
 40
0.2
 41
0.2
  0
VERTEX
  8
0
 10
25.0817
 20
264.64
 30
0.0
 40
0.2
 41
0.2
  0
VERTEX
  8
0
 10
25.0293
 20
264.611
 30
0.0
 40
0.2
 41
0.2
  0
VERTEX
  8
0
 10
25.0004
 20
264.557
 30
0.0
 40
0.2
 41
0.2
  0
VERTEX
  8
0
 10
25.0004
 20
264.539
 30
0.0
 40
0.2
 41
0.2
  0
VERTEX
  8
0
 10
25.0004
 20
259.64
 30
0.0
 40
0.2
 41
0.2
  0
VERTEX
  8
0
 10
25.0004
 20
259.631
 30
0.0
 40
0.2
 41
0.2
  0
VERTEX
  8
0
 10
25.0142
 20
259.599
 30
0.0
 40
0.2
 41
0.2
  0
VERTEX
  8
0
 10
25.0376
 20
259.603
 30
0.0
 40
0.2
 41
0.2
  0
VERTEX
  8
0
 10
25.0417
 20
259.626
 30
0.0
 40
0.2
 41
0.2
  0
VERTEX
  8
0
 10
25.01
 20
259.64
 30
0.0
 40
0.2
 41
0.2
  0
VERTEX
  8
0
 10
25.0004
 20
259.64
 30
0.0
 40
0.2
 41
0.2
  0
VERTEX
  8
0
 10
22.5998
 20
259.64
 30
0.0
 40
0.2
 41
0.2
  0
SEQEND
 8
0
  0
POLYLINE
  8
0
 62
     0
 66
     1
 10
0
 20
0
 30
0.0
 40
0.566929
 41
0.566929
  0
VERTEX
  8
0
 10
17.6003
 20
259.64
 30
0.0
 40
0.2
 41
0.2
  0
VERTEX
  8
0
 10
15.1005
 20
259.64
 30
0.0
 40
0.2
 41
0.2
  0
VERTEX
  8
0
 10
15.0826
 20
259.64
 30
0.0
 40
0.2
 41
0.2
  0
VERTEX
  8
0
 10
15.0289
 20
259.611
 30
0.0
 40
0.2
 41
0.2
  0
VERTEX
  8
0
 10
14.9999
 20
259.558
 30
0.0
 40
0.2
 41
0.2
  0
VERTEX
  8
0
 10
14.9999
 20
259.54
 30
0.0
 40
0.2
 41
0.2
  0
VERTEX
  8
0
 10
14.9999
 20
253.29
 30
0.0
 40
0.2
 41
0.2
  0
SEQEND
 8
0
  0
POLYLINE
  8
0
 62
     0
 66
     1
 10
0
 20
0
 30
0.0
 40
0.566929
 41
0.566929
  0
VERTEX
  8
0
 10
14.9999
 20
248.29
 30
0.0
 40
0.2
 41
0.2
  0
VERTEX
  8
0
 10
14.9999
 20
242.139
 30
0.0
 40
0.2
 41
0.2
  0
VERTEX
  8
0
 10
14.9999
 20
242.13
 30
0.0
 40
0.2
 41
0.2
  0
VERTEX
  8
0
 10
15.0137
 20
242.098
 30
0.0
 40
0.2
 41
0.2
  0
VERTEX
  8
0
 10
15.0372
 20
242.102
 30
0.0
 40
0.2
 41
0.2
  0
VERTEX
  8
0
 10
15.0413
 20
242.126
 30
0.0
 40
0.2
 41
0.2
  0
VERTEX
  8
0
 10
15.0096
 20
242.139
 30
0.0
 40
0.2
 41
0.2
  0
VERTEX
  8
0
 10
14.9999
 20
242.139
 30
0.0
 40
0.2
 41
0.2
  0
VERTEX
  8
0
 10
10.0996
 20
242.139
 30
0.0
 40
0.2
 41
0.2
  0
VERTEX
  8
0
 10
10.0817
 20
242.139
 30
0.0
 40
0.2
 41
0.2
  0
VERTEX
  8
0
 10
10.0294
 20
242.11
 30
0.0
 40
0.2
 41
0.2
  0
VERTEX
  8
0
 10
10.0004
 20
242.058
 30
0.0
 40
0.2
 41
0.2
  0
VERTEX
  8
0
 10
10.0004
 20
242.04
 30
0.0
 40
0.2
 41
0.2
  0
VERTEX
  8
0
 10
10.0004
 20
232.04
 30
0.0
 40
0.2
 41
0.2
  0
VERTEX
  8
0
 10
10.0004
 20
232.023
 30
0.0
 40
0.2
 41
0.2
  0
VERTEX
  8
0
 10
10.0294
 20
231.969
 30
0.0
 40
0.2
 41
0.2
  0
VERTEX
  8
0
 10
10.0817
 20
231.94
 30
0.0
 40
0.2
 41
0.2
  0
VERTEX
  8
0
 10
10.0996
 20
231.94
 30
0.0
 40
0.2
 41
0.2
  0
VERTEX
  8
0
 10
14.9999
 20
231.94
 30
0.0
 40
0.2
 41
0.2
  0
VERTEX
  8
0
 10
15.0096
 20
231.94
 30
0.0
 40
0.2
 41
0.2
  0
VERTEX
  8
0
 10
15.0413
 20
231.956
 30
0.0
 40
0.2
 41
0.2
  0
VERTEX
  8
0
 10
15.0372
 20
231.977
 30
0.0
 40
0.2
 41
0.2
  0
VERTEX
  8
0
 10
15.0137
 20
231.983
 30
0.0
 40
0.2
 41
0.2
  0
VERTEX
  8
0
 10
14.9999
 20
231.951
 30
0.0
 40
0.2
 41
0.2
  0
VERTEX
  8
0
 10
14.9999
 20
231.94
 30
0.0
 40
0.2
 41
0.2
  0
VERTEX
  8
0
 10
14.9999
 20
222.14
 30
0.0
 40
0.2
 41
0.2
  0
VERTEX
  8
0
 10
14.9999
 20
222.13
 30
0.0
 40
0.2
 41
0.2
  0
VERTEX
  8
0
 10
15.0137
 20
222.098
 30
0.0
 40
0.2
 41
0.2
  0
VERTEX
  8
0
 10
15.0372
 20
222.103
 30
0.0
 40
0.2
 41
0.2
  0
VERTEX
  8
0
 10
15.0413
 20
222.126
 30
0.0
 40
0.2
 41
0.2
  0
VERTEX
  8
0
 10
15.0096
 20
222.14
 30
0.0
 40
0.2
 41
0.2
  0
VERTEX
  8
0
 10
14.9999
 20
222.14
 30
0.0
 40
0.2
 41
0.2
  0
VERTEX
  8
0
 10
10.0996
 20
222.14
 30
0.0
 40
0.2
 41
0.2
  0
VERTEX
  8
0
 10
10.0817
 20
222.14
 30
0.0
 40
0.2
 41
0.2
  0
VERTEX
  8
0
 10
10.0294
 20
222.111
 30
0.0
 40
0.2
 41
0.2
  0
VERTEX
  8
0
 10
10.0004
 20
222.057
 30
0.0
 40
0.2
 41
0.2
  0
VERTEX
  8
0
 10
10.0004
 20
222.039
 30
0.0
 40
0.2
 41
0.2
  0
VERTEX
  8
0
 10
10.0004
 20
212.04
 30
0.0
 40
0.2
 41
0.2
  0
VERTEX
  8
0
 10
10.0004
 20
212.024
 30
0.0
 40
0.2
 41
0.2
  0
VERTEX
  8
0
 10
10.0294
 20
211.97
 30
0.0
 40
0.2
 41
0.2
  0
VERTEX
  8
0
 10
10.0817
 20
211.939
 30
0.0
 40
0.2
 41
0.2
  0
VERTEX
  8
0
 10
10.0996
 20
211.939
 30
0.0
 40
0.2
 41
0.2
  0
VERTEX
  8
0
 10
14.9999
 20
211.939
 30
0.0
 40
0.2
 41
0.2
  0
VERTEX
  8
0
 10
15.0096
 20
211.939
 30
0.0
 40
0.2
 41
0.2
  0
VERTEX
  8
0
 10
15.0413
 20
211.955
 30
0.0
 40
0.2
 41
0.2
  0
VERTEX
  8
0
 10
15.0372
 20
211.978
 30
0.0
 40
0.2
 41
0.2
  0
VERTEX
  8
0
 10
15.0137
 20
211.982
 30
0.0
 40
0.2
 41
0.2
  0
VERTEX
  8
0
 10
14.9999
 20
211.951
 30
0.0
 40
0.2
 41
0.2
  0
VERTEX
  8
0
 10
14.9999
 20
211.939
 30
0.0
 40
0.2
 41
0.2
  0
VERTEX
  8
0
 10
14.9999
 20
205.789
 30
0.0
 40
0.2
 41
0.2
  0
SEQEND
 8
0
  0
POLYLINE
  8
0
 62
     0
 66
     1
 10
0
 20
0
 30
0.0
 40
0.566929
 41
0.566929
  0
VERTEX
  8
0
 10
14.9999
 20
200.79
 30
0.0
 40
0.2
 41
0.2
  0
VERTEX
  8
0
 10
14.9999
 20
194.539
 30
0.0
 40
0.2
 41
0.2
  0
VERTEX
  8
0
 10
14.9999
 20
194.522
 30
0.0
 40
0.2
 41
0.2
  0
VERTEX
  8
0
 10
15.0289
 20
194.47
 30
0.0
 40
0.2
 41
0.2
  0
VERTEX
  8
0
 10
15.0826
 20
194.44
 30
0.0
 40
0.2
 41
0.2
  0
VERTEX
  8
0
 10
15.1005
 20
194.44
 30
0.0
 40
0.2
 41
0.2
  0
SEQEND
 8
0
  0
TEXT
  8
0
 62
     1
 10
62.2642
 20
306.336
 30
0.0
 40
4.0005
  1
lid top
 50
0
  0
POLYLINE
  8
0
 62
     0
 66
     1
 10
0
 20
0
 30
0.0
 40
0.566929
 41
0.566929
  0
VERTEX
  8
0
 10
15.1005
 20
272.141
 30
0.0
 40
0.2
 41
0.2
  0
VERTEX
  8
0
 10
35.7258
 20
272.141
 30
0.0
 40
0.2
 41
0.2
  0
SEQEND
 8
0
  0
POLYLINE
  8
0
 62
     0
 66
     1
 10
0
 20
0
 30
0.0
 40
0.566929
 41
0.566929
  0
VERTEX
  8
0
 10
40.725
 20
272.141
 30
0.0
 40
0.2
 41
0.2
  0
VERTEX
  8
0
 10
81.9753
 20
272.141
 30
0.0
 40
0.2
 41
0.2
  0
SEQEND
 8
0
  0
POLYLINE
  8
0
 62
     0
 66
     1
 10
0
 20
0
 30
0.0
 40
0.566929
 41
0.566929
  0
VERTEX
  8
0
 10
86.9749
 20
272.141
 30
0.0
 40
0.2
 41
0.2
  0
VERTEX
  8
0
 10
107.6
 20
272.141
 30
0.0
 40
0.2
 41
0.2
  0
VERTEX
  8
0
 10
107.617
 20
272.141
 30
0.0
 40
0.2
 41
0.2
  0
VERTEX
  8
0
 10
107.67
 20
272.169
 30
0.0
 40
0.2
 41
0.2
  0
VERTEX
  8
0
 10
107.699
 20
272.223
 30
0.0
 40
0.2
 41
0.2
  0
VERTEX
  8
0
 10
107.699
 20
272.24
 30
0.0
 40
0.2
 41
0.2
  0
VERTEX
  8
0
 10
107.699
 20
277.14
 30
0.0
 40
0.2
 41
0.2
  0
VERTEX
  8
0
 10
107.699
 20
277.151
 30
0.0
 40
0.2
 41
0.2
  0
VERTEX
  8
0
 10
107.684
 20
277.183
 30
0.0
 40
0.2
 41
0.2
  0
VERTEX
  8
0
 10
107.662
 20
277.177
 30
0.0
 40
0.2
 41
0.2
  0
VERTEX
  8
0
 10
107.656
 20
277.155
 30
0.0
 40
0.2
 41
0.2
  0
VERTEX
  8
0
 10
107.688
 20
277.14
 30
0.0
 40
0.2
 41
0.2
  0
VERTEX
  8
0
 10
107.699
 20
277.14
 30
0.0
 40
0.2
 41
0.2
  0
VERTEX
  8
0
 10
115.101
 20
277.14
 30
0.0
 40
0.2
 41
0.2
  0
VERTEX
  8
0
 10
117.835
 20
277.14
 30
0.0
 40
0.2
 41
0.2
  0
VERTEX
  8
0
 10
117.844
 20
277.14
 30
0.0
 40
0.2
 41
0.2
  0
VERTEX
  8
0
 10
117.876
 20
277.155
 30
0.0
 40
0.2
 41
0.2
  0
VERTEX
  8
0
 10
117.872
 20
277.177
 30
0.0
 40
0.2
 41
0.2
  0
VERTEX
  8
0
 10
117.849
 20
277.183
 30
0.0
 40
0.2
 41
0.2
  0
VERTEX
  8
0
 10
117.835
 20
277.151
 30
0.0
 40
0.2
 41
0.2
  0
VERTEX
  8
0
 10
117.835
 20
277.14
 30
0.0
 40
0.2
 41
0.2
  0
VERTEX
  8
0
 10
117.835
 20
272.24
 30
0.0
 40
0.2
 41
0.2
  0
VERTEX
  8
0
 10
117.835
 20
272.223
 30
0.0
 40
0.2
 41
0.2
  0
VERTEX
  8
0
 10
117.864
 20
272.169
 30
0.0
 40
0.2
 41
0.2
  0
VERTEX
  8
0
 10
117.917
 20
272.141
 30
0.0
 40
0.2
 41
0.2
  0
VERTEX
  8
0
 10
117.935
 20
272.141
 30
0.0
 40
0.2
 41
0.2
  0
VERTEX
  8
0
 10
122.265
 20
272.141
 30
0.0
 40
0.2
 41
0.2
  0
VERTEX
  8
0
 10
122.282
 20
272.141
 30
0.0
 40
0.2
 41
0.2
  0
VERTEX
  8
0
 10
122.335
 20
272.169
 30
0.0
 40
0.2
 41
0.2
  0
VERTEX
  8
0
 10
122.366
 20
272.223
 30
0.0
 40
0.2
 41
0.2
  0
VERTEX
  8
0
 10
122.366
 20
272.24
 30
0.0
 40
0.2
 41
0.2
  0
VERTEX
  8
0
 10
122.366
 20
277.14
 30
0.0
 40
0.2
 41
0.2
  0
VERTEX
  8
0
 10
122.366
 20
277.151
 30
0.0
 40
0.2
 41
0.2
  0
VERTEX
  8
0
 10
122.35
 20
277.183
 30
0.0
 40
0.2
 41
0.2
  0
VERTEX
  8
0
 10
122.327
 20
277.177
 30
0.0
 40
0.2
 41
0.2
  0
VERTEX
  8
0
 10
122.323
 20
277.155
 30
0.0
 40
0.2
 41
0.2
  0
VERTEX
  8
0
 10
122.355
 20
277.14
 30
0.0
 40
0.2
 41
0.2
  0
VERTEX
  8
0
 10
122.366
 20
277.14
 30
0.0
 40
0.2
 41
0.2
  0
VERTEX
  8
0
 10
125.1
 20
277.14
 30
0.0
 40
0.2
 41
0.2
  0
VERTEX
  8
0
 10
125.116
 20
277.14
 30
0.0
 40
0.2
 41
0.2
  0
VERTEX
  8
0
 10
125.17
 20
277.169
 30
0.0
 40
0.2
 41
0.2
  0
VERTEX
  8
0
 10
125.2
 20
277.223
 30
0.0
 40
0.2
 41
0.2
  0
VERTEX
  8
0
 10
125.2
 20
277.239
 30
0.0
 40
0.2
 41
0.2
  0
VERTEX
  8
0
 10
125.2
 20
290.989
 30
0.0
 40
0.2
 41
0.2
  0
SEQEND
 8
0
  0
POLYLINE
  8
0
 62
     0
 66
     1
 10
0
 20
0
 30
0.0
 40
0.566929
 41
0.566929
  0
VERTEX
  8
0
 10
125.2
 20
295.99
 30
0.0
 40
0.2
 41
0.2
  0
VERTEX
  8
0
 10
125.2
 20
323.49
 30
0.0
 40
0.2
 41
0.2
  0
SEQEND
 8
0
  0
POLYLINE
  8
0
 62
     0
 66
     1
 10
0
 20
0
 30
0.0
 40
0.566929
 41
0.566929
  0
VERTEX
  8
0
 10
125.2
 20
328.49
 30
0.0
 40
0.2
 41
0.2
  0
VERTEX
  8
0
 10
125.2
 20
342.24
 30
0.0
 40
0.2
 41
0.2
  0
VERTEX
  8
0
 10
125.2
 20
342.258
 30
0.0
 40
0.2
 41
0.2
  0
VERTEX
  8
0
 10
125.17
 20
342.31
 30
0.0
 40
0.2
 41
0.2
  0
VERTEX
  8
0
 10
125.116
 20
342.339
 30
0.0
 40
0.2
 41
0.2
  0
VERTEX
  8
0
 10
125.1
 20
342.339
 30
0.0
 40
0.2
 41
0.2
  0
VERTEX
  8
0
 10
122.366
 20
342.339
 30
0.0
 40
0.2
 41
0.2
  0
VERTEX
  8
0
 10
122.355
 20
342.339
 30
0.0
 40
0.2
 41
0.2
  0
VERTEX
  8
0
 10
122.323
 20
342.325
 30
0.0
 40
0.2
 41
0.2
  0
VERTEX
  8
0
 10
122.327
 20
342.302
 30
0.0
 40
0.2
 41
0.2
  0
VERTEX
  8
0
 10
122.35
 20
342.298
 30
0.0
 40
0.2
 41
0.2
  0
VERTEX
  8
0
 10
122.366
 20
342.33
 30
0.0
 40
0.2
 41
0.2
  0
VERTEX
  8
0
 10
122.366
 20
342.339
 30
0.0
 40
0.2
 41
0.2
  0
VERTEX
  8
0
 10
122.366
 20
347.24
 30
0.0
 40
0.2
 41
0.2
  0
VERTEX
  8
0
 10
122.366
 20
347.258
 30
0.0
 40
0.2
 41
0.2
  0
VERTEX
  8
0
 10
122.335
 20
347.311
 30
0.0
 40
0.2
 41
0.2
  0
VERTEX
  8
0
 10
122.282
 20
347.34
 30
0.0
 40
0.2
 41
0.2
  0
VERTEX
  8
0
 10
122.265
 20
347.34
 30
0.0
 40
0.2
 41
0.2
  0
VERTEX
  8
0
 10
117.935
 20
347.34
 30
0.0
 40
0.2
 41
0.2
  0
VERTEX
  8
0
 10
117.917
 20
347.34
 30
0.0
 40
0.2
 41
0.2
  0
VERTEX
  8
0
 10
117.864
 20
347.311
 30
0.0
 40
0.2
 41
0.2
  0
VERTEX
  8
0
 10
117.835
 20
347.258
 30
0.0
 40
0.2
 41
0.2
  0
VERTEX
  8
0
 10
117.835
 20
347.24
 30
0.0
 40
0.2
 41
0.2
  0
VERTEX
  8
0
 10
117.835
 20
342.339
 30
0.0
 40
0.2
 41
0.2
  0
VERTEX
  8
0
 10
117.835
 20
342.33
 30
0.0
 40
0.2
 41
0.2
  0
VERTEX
  8
0
 10
117.849
 20
342.298
 30
0.0
 40
0.2
 41
0.2
  0
VERTEX
  8
0
 10
117.872
 20
342.302
 30
0.0
 40
0.2
 41
0.2
  0
VERTEX
  8
0
 10
117.876
 20
342.325
 30
0.0
 40
0.2
 41
0.2
  0
VERTEX
  8
0
 10
117.844
 20
342.339
 30
0.0
 40
0.2
 41
0.2
  0
VERTEX
  8
0
 10
117.835
 20
342.339
 30
0.0
 40
0.2
 41
0.2
  0
VERTEX
  8
0
 10
115.101
 20
342.339
 30
0.0
 40
0.2
 41
0.2
  0
VERTEX
  8
0
 10
107.699
 20
342.339
 30
0.0
 40
0.2
 41
0.2
  0
VERTEX
  8
0
 10
107.688
 20
342.339
 30
0.0
 40
0.2
 41
0.2
  0
VERTEX
  8
0
 10
107.656
 20
342.325
 30
0.0
 40
0.2
 41
0.2
  0
VERTEX
  8
0
 10
107.662
 20
342.302
 30
0.0
 40
0.2
 41
0.2
  0
VERTEX
  8
0
 10
107.684
 20
342.298
 30
0.0
 40
0.2
 41
0.2
  0
VERTEX
  8
0
 10
107.699
 20
342.33
 30
0.0
 40
0.2
 41
0.2
  0
VERTEX
  8
0
 10
107.699
 20
342.339
 30
0.0
 40
0.2
 41
0.2
  0
VERTEX
  8
0
 10
107.699
 20
347.24
 30
0.0
 40
0.2
 41
0.2
  0
VERTEX
  8
0
 10
107.699
 20
347.258
 30
0.0
 40
0.2
 41
0.2
  0
VERTEX
  8
0
 10
107.67
 20
347.311
 30
0.0
 40
0.2
 41
0.2
  0
VERTEX
  8
0
 10
107.617
 20
347.34
 30
0.0
 40
0.2
 41
0.2
  0
VERTEX
  8
0
 10
107.6
 20
347.34
 30
0.0
 40
0.2
 41
0.2
  0
VERTEX
  8
0
 10
86.9749
 20
347.34
 30
0.0
 40
0.2
 41
0.2
  0
SEQEND
 8
0
  0
POLYLINE
  8
0
 62
     0
 66
     1
 10
0
 20
0
 30
0.0
 40
0.566929
 41
0.566929
  0
VERTEX
  8
0
 10
81.9753
 20
347.34
 30
0.0
 40
0.2
 41
0.2
  0
VERTEX
  8
0
 10
40.725
 20
347.34
 30
0.0
 40
0.2
 41
0.2
  0
SEQEND
 8
0
  0
POLYLINE
  8
0
 62
     0
 66
     1
 10
0
 20
0
 30
0.0
 40
0.566929
 41
0.566929
  0
VERTEX
  8
0
 10
35.7258
 20
347.34
 30
0.0
 40
0.2
 41
0.2
  0
VERTEX
  8
0
 10
15.1005
 20
347.34
 30
0.0
 40
0.2
 41
0.2
  0
VERTEX
  8
0
 10
10.0996
 20
347.34
 30
0.0
 40
0.2
 41
0.2
  0
VERTEX
  8
0
 10
10.0817
 20
347.34
 30
0.0
 40
0.2
 41
0.2
  0
VERTEX
  8
0
 10
10.0294
 20
347.311
 30
0.0
 40
0.2
 41
0.2
  0
VERTEX
  8
0
 10
10.0004
 20
347.258
 30
0.0
 40
0.2
 41
0.2
  0
VERTEX
  8
0
 10
10.0004
 20
347.24
 30
0.0
 40
0.2
 41
0.2
  0
VERTEX
  8
0
 10
10.0004
 20
342.24
 30
0.0
 40
0.2
 41
0.2
  0
VERTEX
  8
0
 10
10.0004
 20
328.49
 30
0.0
 40
0.2
 41
0.2
  0
SEQEND
 8
0
  0
POLYLINE
  8
0
 62
     0
 66
     1
 10
0
 20
0
 30
0.0
 40
0.566929
 41
0.566929
  0
VERTEX
  8
0
 10
10.0004
 20
323.49
 30
0.0
 40
0.2
 41
0.2
  0
VERTEX
  8
0
 10
10.0004
 20
295.99
 30
0.0
 40
0.2
 41
0.2
  0
SEQEND
 8
0
  0
POLYLINE
  8
0
 62
     0
 66
     1
 10
0
 20
0
 30
0.0
 40
0.566929
 41
0.566929
  0
VERTEX
  8
0
 10
10.0004
 20
290.989
 30
0.0
 40
0.2
 41
0.2
  0
VERTEX
  8
0
 10
10.0004
 20
277.239
 30
0.0
 40
0.2
 41
0.2
  0
VERTEX
  8
0
 10
10.0004
 20
272.24
 30
0.0
 40
0.2
 41
0.2
  0
VERTEX
  8
0
 10
10.0004
 20
272.223
 30
0.0
 40
0.2
 41
0.2
  0
VERTEX
  8
0
 10
10.0294
 20
272.169
 30
0.0
 40
0.2
 41
0.2
  0
VERTEX
  8
0
 10
10.0817
 20
272.141
 30
0.0
 40
0.2
 41
0.2
  0
VERTEX
  8
0
 10
10.0996
 20
272.141
 30
0.0
 40
0.2
 41
0.2
  0
VERTEX
  8
0
 10
15.1005
 20
272.141
 30
0.0
 40
0.2
 41
0.2
  0
SEQEND
 8
0
  0
TEXT
  8
0
 62
     1
 10
56.43
 20
381.536
 30
0.0
 40
4.0005
  1
lid bottom
 50
0
  0
POLYLINE
  8
0
 62
     0
 66
     1
 10
0
 20
0
 30
0.0
 40
0.566929
 41
0.566929
  0
VERTEX
  8
0
 10
10.0996
 20
349.84
 30
0.0
 40
0.2
 41
0.2
  0
VERTEX
  8
0
 10
35.1
 20
349.84
 30
0.0
 40
0.2
 41
0.2
  0
SEQEND
 8
0
  0
POLYLINE
  8
0
 62
     0
 66
     1
 10
0
 20
0
 30
0.0
 40
0.566929
 41
0.566929
  0
VERTEX
  8
0
 10
40.0995
 20
349.84
 30
0.0
 40
0.2
 41
0.2
  0
VERTEX
  8
0
 10
90.1001
 20
349.84
 30
0.0
 40
0.2
 41
0.2
  0
SEQEND
 8
0
  0
POLYLINE
  8
0
 62
     0
 66
     1
 10
0
 20
0
 30
0.0
 40
0.566929
 41
0.566929
  0
VERTEX
  8
0
 10
95.0997
 20
349.84
 30
0.0
 40
0.2
 41
0.2
  0
VERTEX
  8
0
 10
120.1
 20
349.84
 30
0.0
 40
0.2
 41
0.2
  0
VERTEX
  8
0
 10
120.117
 20
349.84
 30
0.0
 40
0.2
 41
0.2
  0
VERTEX
  8
0
 10
120.171
 20
349.87
 30
0.0
 40
0.2
 41
0.2
  0
VERTEX
  8
0
 10
120.2
 20
349.922
 30
0.0
 40
0.2
 41
0.2
  0
VERTEX
  8
0
 10
120.2
 20
349.939
 30
0.0
 40
0.2
 41
0.2
  0
VERTEX
  8
0
 10
120.2
 20
363.689
 30
0.0
 40
0.2
 41
0.2
  0
SEQEND
 8
0
  0
POLYLINE
  8
0
 62
     0
 66
     1
 10
0
 20
0
 30
0.0
 40
0.566929
 41
0.566929
  0
VERTEX
  8
0
 10
120.2
 20
368.692
 30
0.0
 40
0.2
 41
0.2
  0
VERTEX
  8
0
 10
120.2
 20
396.191
 30
0.0
 40
0.2
 41
0.2
  0
SEQEND
 8
0
  0
POLYLINE
  8
0
 62
     0
 66
     1
 10
0
 20
0
 30
0.0
 40
0.566929
 41
0.566929
  0
VERTEX
  8
0
 10
120.2
 20
401.189
 30
0.0
 40
0.2
 41
0.2
  0
VERTEX
  8
0
 10
120.2
 20
414.941
 30
0.0
 40
0.2
 41
0.2
  0
VERTEX
  8
0
 10
120.2
 20
414.958
 30
0.0
 40
0.2
 41
0.2
  0
VERTEX
  8
0
 10
120.171
 20
415.011
 30
0.0
 40
0.2
 41
0.2
  0
VERTEX
  8
0
 10
120.117
 20
415.04
 30
0.0
 40
0.2
 41
0.2
  0
VERTEX
  8
0
 10
120.1
 20
415.04
 30
0.0
 40
0.2
 41
0.2
  0
VERTEX
  8
0
 10
95.0997
 20
415.04
 30
0.0
 40
0.2
 41
0.2
  0
SEQEND
 8
0
  0
POLYLINE
  8
0
 62
     0
 66
     1
 10
0
 20
0
 30
0.0
 40
0.566929
 41
0.566929
  0
VERTEX
  8
0
 10
90.1001
 20
415.04
 30
0.0
 40
0.2
 41
0.2
  0
VERTEX
  8
0
 10
40.0995
 20
415.04
 30
0.0
 40
0.2
 41
0.2
  0
SEQEND
 8
0
  0
POLYLINE
  8
0
 62
     0
 66
     1
 10
0
 20
0
 30
0.0
 40
0.566929
 41
0.566929
  0
VERTEX
  8
0
 10
35.1
 20
415.04
 30
0.0
 40
0.2
 41
0.2
  0
VERTEX
  8
0
 10
10.0996
 20
415.04
 30
0.0
 40
0.2
 41
0.2
  0
VERTEX
  8
0
 10
10.0817
 20
415.04
 30
0.0
 40
0.2
 41
0.2
  0
VERTEX
  8
0
 10
10.0294
 20
415.011
 30
0.0
 40
0.2
 41
0.2
  0
VERTEX
  8
0
 10
10.0004
 20
414.958
 30
0.0
 40
0.2
 41
0.2
  0
VERTEX
  8
0
 10
10.0004
 20
414.941
 30
0.0
 40
0.2
 41
0.2
  0
VERTEX
  8
0
 10
10.0004
 20
401.189
 30
0.0
 40
0.2
 41
0.2
  0
SEQEND
 8
0
  0
POLYLINE
  8
0
 62
     0
 66
     1
 10
0
 20
0
 30
0.0
 40
0.566929
 41
0.566929
  0
VERTEX
  8
0
 10
10.0004
 20
396.191
 30
0.0
 40
0.2
 41
0.2
  0
VERTEX
  8
0
 10
10.0004
 20
368.692
 30
0.0
 40
0.2
 41
0.2
  0
SEQEND
 8
0
  0
POLYLINE
  8
0
 62
     0
 66
     1
 10
0
 20
0
 30
0.0
 40
0.566929
 41
0.566929
  0
VERTEX
  8
0
 10
10.0004
 20
363.689
 30
0.0
 40
0.2
 41
0.2
  0
VERTEX
  8
0
 10
10.0004
 20
349.939
 30
0.0
 40
0.2
 41
0.2
  0
VERTEX
  8
0
 10
10.0004
 20
349.922
 30
0.0
 40
0.2
 41
0.2
  0
VERTEX
  8
0
 10
10.0294
 20
349.87
 30
0.0
 40
0.2
 41
0.2
  0
VERTEX
  8
0
 10
10.0817
 20
349.84
 30
0.0
 40
0.2
 41
0.2
  0
VERTEX
  8
0
 10
10.0996
 20
349.84
 30
0.0
 40
0.2
 41
0.2
  0
SEQEND
 8
0
  0
TEXT
  8
0
 62
     1
 10
64.7644
 20
454.237
 30
0.0
 40
4.0005
  1
lid top
 50
0
  0
POLYLINE
  8
0
 62
     0
 66
     1
 10
0
 20
0
 30
0.0
 40
0.566929
 41
0.566929
  0
VERTEX
  8
0
 10
15.1005
 20
417.541
 30
0.0
 40
0.2
 41
0.2
  0
VERTEX
  8
0
 10
40.0995
 20
417.541
 30
0.0
 40
0.2
 41
0.2
  0
SEQEND
 8
0
  0
POLYLINE
  8
0
 62
     0
 66
     1
 10
0
 20
0
 30
0.0
 40
0.566929
 41
0.566929
  0
VERTEX
  8
0
 10
45.1005
 20
417.541
 30
0.0
 40
0.2
 41
0.2
  0
VERTEX
  8
0
 10
95.0997
 20
417.541
 30
0.0
 40
0.2
 41
0.2
  0
SEQEND
 8
0
  0
POLYLINE
  8
0
 62
     0
 66
     1
 10
0
 20
0
 30
0.0
 40
0.566929
 41
0.566929
  0
VERTEX
  8
0
 10
100.099
 20
417.541
 30
0.0
 40
0.2
 41
0.2
  0
VERTEX
  8
0
 10
125.1
 20
417.541
 30
0.0
 40
0.2
 41
0.2
  0
VERTEX
  8
0
 10
130.099
 20
417.541
 30
0.0
 40
0.2
 41
0.2
  0
VERTEX
  8
0
 10
130.116
 20
417.541
 30
0.0
 40
0.2
 41
0.2
  0
VERTEX
  8
0
 10
130.169
 20
417.569
 30
0.0
 40
0.2
 41
0.2
  0
VERTEX
  8
0
 10
130.2
 20
417.622
 30
0.0
 40
0.2
 41
0.2
  0
VERTEX
  8
0
 10
130.2
 20
417.639
 30
0.0
 40
0.2
 41
0.2
  0
VERTEX
  8
0
 10
130.2
 20
422.642
 30
0.0
 40
0.2
 41
0.2
  0
VERTEX
  8
0
 10
130.2
 20
436.39
 30
0.0
 40
0.2
 41
0.2
  0
SEQEND
 8
0
  0
POLYLINE
  8
0
 62
     0
 66
     1
 10
0
 20
0
 30
0.0
 40
0.566929
 41
0.566929
  0
VERTEX
  8
0
 10
130.2
 20
441.389
 30
0.0
 40
0.2
 41
0.2
  0
VERTEX
  8
0
 10
130.2
 20
468.891
 30
0.0
 40
0.2
 41
0.2
  0
SEQEND
 8
0
  0
POLYLINE
  8
0
 62
     0
 66
     1
 10
0
 20
0
 30
0.0
 40
0.566929
 41
0.566929
  0
VERTEX
  8
0
 10
130.2
 20
473.89
 30
0.0
 40
0.2
 41
0.2
  0
VERTEX
  8
0
 10
130.2
 20
487.641
 30
0.0
 40
0.2
 41
0.2
  0
VERTEX
  8
0
 10
130.2
 20
492.64
 30
0.0
 40
0.2
 41
0.2
  0
VERTEX
  8
0
 10
130.2
 20
492.658
 30
0.0
 40
0.2
 41
0.2
  0
VERTEX
  8
0
 10
130.169
 20
492.711
 30
0.0
 40
0.2
 41
0.2
  0
VERTEX
  8
0
 10
130.116
 20
492.739
 30
0.0
 40
0.2
 41
0.2
  0
VERTEX
  8
0
 10
130.099
 20
492.739
 30
0.0
 40
0.2
 41
0.2
  0
VERTEX
  8
0
 10
125.1
 20
492.739
 30
0.0
 40
0.2
 41
0.2
  0
VERTEX
  8
0
 10
100.099
 20
492.739
 30
0.0
 40
0.2
 41
0.2
  0
SEQEND
 8
0
  0
POLYLINE
  8
0
 62
     0
 66
     1
 10
0
 20
0
 30
0.0
 40
0.566929
 41
0.566929
  0
VERTEX
  8
0
 10
95.0997
 20
492.739
 30
0.0
 40
0.2
 41
0.2
  0
VERTEX
  8
0
 10
45.1005
 20
492.739
 30
0.0
 40
0.2
 41
0.2
  0
SEQEND
 8
0
  0
POLYLINE
  8
0
 62
     0
 66
     1
 10
0
 20
0
 30
0.0
 40
0.566929
 41
0.566929
  0
VERTEX
  8
0
 10
40.0995
 20
492.739
 30
0.0
 40
0.2
 41
0.2
  0
VERTEX
  8
0
 10
15.1005
 20
492.739
 30
0.0
 40
0.2
 41
0.2
  0
VERTEX
  8
0
 10
10.0996
 20
492.739
 30
0.0
 40
0.2
 41
0.2
  0
VERTEX
  8
0
 10
10.0817
 20
492.739
 30
0.0
 40
0.2
 41
0.2
  0
VERTEX
  8
0
 10
10.0294
 20
492.711
 30
0.0
 40
0.2
 41
0.2
  0
VERTEX
  8
0
 10
10.0004
 20
492.658
 30
0.0
 40
0.2
 41
0.2
  0
VERTEX
  8
0
 10
10.0004
 20
492.64
 30
0.0
 40
0.2
 41
0.2
  0
VERTEX
  8
0
 10
10.0004
 20
487.641
 30
0.0
 40
0.2
 41
0.2
  0
VERTEX
  8
0
 10
10.0004
 20
473.89
 30
0.0
 40
0.2
 41
0.2
  0
SEQEND
 8
0
  0
POLYLINE
  8
0
 62
     0
 66
     1
 10
0
 20
0
 30
0.0
 40
0.566929
 41
0.566929
  0
VERTEX
  8
0
 10
10.0004
 20
468.891
 30
0.0
 40
0.2
 41
0.2
  0
VERTEX
  8
0
 10
10.0004
 20
441.389
 30
0.0
 40
0.2
 41
0.2
  0
SEQEND
 8
0
  0
POLYLINE
  8
0
 62
     0
 66
     1
 10
0
 20
0
 30
0.0
 40
0.566929
 41
0.566929
  0
VERTEX
  8
0
 10
10.0004
 20
436.39
 30
0.0
 40
0.2
 41
0.2
  0
VERTEX
  8
0
 10
10.0004
 20
422.642
 30
0.0
 40
0.2
 41
0.2
  0
VERTEX
  8
0
 10
10.0004
 20
417.639
 30
0.0
 40
0.2
 41
0.2
  0
VERTEX
  8
0
 10
10.0004
 20
417.622
 30
0.0
 40
0.2
 41
0.2
  0
VERTEX
  8
0
 10
10.0294
 20
417.569
 30
0.0
 40
0.2
 41
0.2
  0
VERTEX
  8
0
 10
10.0817
 20
417.541
 30
0.0
 40
0.2
 41
0.2
  0
VERTEX
  8
0
 10
10.0996
 20
417.541
 30
0.0
 40
0.2
 41
0.2
  0
VERTEX
  8
0
 10
15.1005
 20
417.541
 30
0.0
 40
0.2
 41
0.2
  0
SEQEND
 8
0
  0
POLYLINE
  8
0
 62
     5
 66
     1
 10
0
 20
0
 30
0.0
 70
     1
 40
0.566929
 41
0.566929
  0
VERTEX
  8
0
 10
160.3
 20
27.8997
 30
0.0
 40
0.2
 41
0.2
  0
VERTEX
  8
0
 10
155.4
 20
27.8997
 30
0.0
 40
0.2
 41
0.2
  0
VERTEX
  8
0
 10
155.389
 20
27.8997
 30
0.0
 40
0.2
 41
0.2
  0
VERTEX
  8
0
 10
155.357
 20
27.886
 30
0.0
 40
0.2
 41
0.2
  0
VERTEX
  8
0
 10
155.362
 20
27.8626
 30
0.0
 40
0.2
 41
0.2
  0
VERTEX
  8
0
 10
155.385
 20
27.8584
 30
0.0
 40
0.2
 41
0.2
  0
VERTEX
  8
0
 10
155.4
 20
27.8901
 30
0.0
 40
0.2
 41
0.2
  0
VERTEX
  8
0
 10
155.4
 20
27.8997
 30
0.0
 40
0.2
 41
0.2
  0
VERTEX
  8
0
 10
155.4
 20
32.6995
 30
0.0
 40
0.2
 41
0.2
  0
VERTEX
  8
0
 10
155.4
 20
32.7105
 30
0.0
 40
0.2
 41
0.2
  0
VERTEX
  8
0
 10
155.385
 20
32.7422
 30
0.0
 40
0.2
 41
0.2
  0
VERTEX
  8
0
 10
155.362
 20
32.7381
 30
0.0
 40
0.2
 41
0.2
  0
VERTEX
  8
0
 10
155.357
 20
32.7146
 30
0.0
 40
0.2
 41
0.2
  0
VERTEX
  8
0
 10
155.389
 20
32.6995
 30
0.0
 40
0.2
 41
0.2
  0
VERTEX
  8
0
 10
155.4
 20
32.6995
 30
0.0
 40
0.2
 41
0.2
  0
VERTEX
  8
0
 10
165.199
 20
32.6995
 30
0.0
 40
0.2
 41
0.2
  0
VERTEX
  8
0
 10
165.209
 20
32.6995
 30
0.0
 40
0.2
 41
0.2
  0
VERTEX
  8
0
 10
165.24
 20
32.7146
 30
0.0
 40
0.2
 41
0.2
  0
VERTEX
  8
0
 10
165.237
 20
32.7381
 30
0.0
 40
0.2
 41
0.2
  0
VERTEX
  8
0
 10
165.213
 20
32.7422
 30
0.0
 40
0.2
 41
0.2
  0
VERTEX
  8
0
 10
165.199
 20
32.7105
 30
0.0
 40
0.2
 41
0.2
  0
VERTEX
  8
0
 10
165.199
 20
32.6995
 30
0.0
 40
0.2
 41
0.2
  0
VERTEX
  8
0
 10
165.199
 20
27.8997
 30
0.0
 40
0.2
 41
0.2
  0
VERTEX
  8
0
 10
165.199
 20
27.8901
 30
0.0
 40
0.2
 41
0.2
  0
VERTEX
  8
0
 10
165.213
 20
27.8584
 30
0.0
 40
0.2
 41
0.2
  0
VERTEX
  8
0
 10
165.237
 20
27.8626
 30
0.0
 40
0.2
 41
0.2
  0
VERTEX
  8
0
 10
165.24
 20
27.886
 30
0.0
 40
0.2
 41
0.2
  0
VERTEX
  8
0
 10
165.209
 20
27.8997
 30
0.0
 40
0.2
 41
0.2
  0
VERTEX
  8
0
 10
165.199
 20
27.8997
 30
0.0
 40
0.2
 41
0.2
  0
VERTEX
  8
0
 10
160.3
 20
27.8997
 30
0.0
 40
0.2
 41
0.2
  0
SEQEND
 8
0
  0
POLYLINE
  8
0
 62
     5
 66
     1
 10
0
 20
0
 30
0.0
 70
     1
 40
0.566929
 41
0.566929
  0
VERTEX
  8
0
 10
180.3
 20
27.8997
 30
0.0
 40
0.2
 41
0.2
  0
VERTEX
  8
0
 10
175.399
 20
27.8997
 30
0.0
 40
0.2
 41
0.2
  0
VERTEX
  8
0
 10
175.388
 20
27.8997
 30
0.0
 40
0.2
 41
0.2
  0
VERTEX
  8
0
 10
175.357
 20
27.886
 30
0.0
 40
0.2
 41
0.2
  0
VERTEX
  8
0
 10
175.362
 20
27.8626
 30
0.0
 40
0.2
 41
0.2
  0
VERTEX
  8
0
 10
175.384
 20
27.8584
 30
0.0
 40
0.2
 41
0.2
  0
VERTEX
  8
0
 10
175.399
 20
27.8901
 30
0.0
 40
0.2
 41
0.2
  0
VERTEX
  8
0
 10
175.399
 20
27.8997
 30
0.0
 40
0.2
 41
0.2
  0
VERTEX
  8
0
 10
175.399
 20
32.6995
 30
0.0
 40
0.2
 41
0.2
  0
VERTEX
  8
0
 10
175.399
 20
32.7105
 30
0.0
 40
0.2
 41
0.2
  0
VERTEX
  8
0
 10
175.384
 20
32.7422
 30
0.0
 40
0.2
 41
0.2
  0
VERTEX
  8
0
 10
175.362
 20
32.7381
 30
0.0
 40
0.2
 41
0.2
  0
VERTEX
  8
0
 10
175.357
 20
32.7146
 30
0.0
 40
0.2
 41
0.2
  0
VERTEX
  8
0
 10
175.388
 20
32.6995
 30
0.0
 40
0.2
 41
0.2
  0
VERTEX
  8
0
 10
175.399
 20
32.6995
 30
0.0
 40
0.2
 41
0.2
  0
VERTEX
  8
0
 10
185.2
 20
32.6995
 30
0.0
 40
0.2
 41
0.2
  0
VERTEX
  8
0
 10
185.21
 20
32.6995
 30
0.0
 40
0.2
 41
0.2
  0
VERTEX
  8
0
 10
185.241
 20
32.7146
 30
0.0
 40
0.2
 41
0.2
  0
VERTEX
  8
0
 10
185.237
 20
32.7381
 30
0.0
 40
0.2
 41
0.2
  0
VERTEX
  8
0
 10
185.214
 20
32.7422
 30
0.0
 40
0.2
 41
0.2
  0
VERTEX
  8
0
 10
185.2
 20
32.7105
 30
0.0
 40
0.2
 41
0.2
  0
VERTEX
  8
0
 10
185.2
 20
32.6995
 30
0.0
 40
0.2
 41
0.2
  0
VERTEX
  8
0
 10
185.2
 20
27.8997
 30
0.0
 40
0.2
 41
0.2
  0
VERTEX
  8
0
 10
185.2
 20
27.8901
 30
0.0
 40
0.2
 41
0.2
  0
VERTEX
  8
0
 10
185.214
 20
27.8584
 30
0.0
 40
0.2
 41
0.2
  0
VERTEX
  8
0
 10
185.237
 20
27.8626
 30
0.0
 40
0.2
 41
0.2
  0
VERTEX
  8
0
 10
185.241
 20
27.886
 30
0.0
 40
0.2
 41
0.2
  0
VERTEX
  8
0
 10
185.21
 20
27.8997
 30
0.0
 40
0.2
 41
0.2
  0
VERTEX
  8
0
 10
185.2
 20
27.8997
 30
0.0
 40
0.2
 41
0.2
  0
VERTEX
  8
0
 10
180.3
 20
27.8997
 30
0.0
 40
0.2
 41
0.2
  0
SEQEND
 8
0
  0
TEXT
  8
0
 62
     1
 10
167.632
 20
55.9812
 30
0.0
 40
4.0005
  1
left
 50
0
  0
POLYLINE
  8
0
 62
     0
 66
     1
 10
0
 20
0
 30
0.0
 40
0.566929
 41
0.566929
  0
VERTEX
  8
0
 10
137.8
 20
22.7004
 30
0.0
 40
0.2
 41
0.2
  0
VERTEX
  8
0
 10
151.55
 20
22.7004
 30
0.0
 40
0.2
 41
0.2
  0
SEQEND
 8
0
  0
POLYLINE
  8
0
 62
     0
 66
     1
 10
0
 20
0
 30
0.0
 40
0.566929
 41
0.566929
  0
VERTEX
  8
0
 10
156.551
 20
22.7004
 30
0.0
 40
0.2
 41
0.2
  0
VERTEX
  8
0
 10
184.051
 20
22.7004
 30
0.0
 40
0.2
 41
0.2
  0
SEQEND
 8
0
  0
POLYLINE
  8
0
 62
     0
 66
     1
 10
0
 20
0
 30
0.0
 40
0.566929
 41
0.566929
  0
VERTEX
  8
0
 10
189.05
 20
22.7004
 30
0.0
 40
0.2
 41
0.2
  0
VERTEX
  8
0
 10
202.8
 20
22.7004
 30
0.0
 40
0.2
 41
0.2
  0
VERTEX
  8
0
 10
202.817
 20
22.7004
 30
0.0
 40
0.2
 41
0.2
  0
VERTEX
  8
0
 10
202.87
 20
22.7294
 30
0.0
 40
0.2
 41
0.2
  0
VERTEX
  8
0
 10
202.899
 20
22.7831
 30
0.0
 40
0.2
 41
0.2
  0
VERTEX
  8
0
 10
202.899
 20
22.7996
 30
0.0
 40
0.2
 41
0.2
  0
VERTEX
  8
0
 10
202.899
 20
29.8428
 30
0.0
 40
0.2
 41
0.2
  0
SEQEND
 8
0
  0
POLYLINE
  8
0
 62
     0
 66
     1
 10
0
 20
0
 30
0.0
 40
0.566929
 41
0.566929
  0
VERTEX
  8
0
 10
202.899
 20
34.8423
 30
0.0
 40
0.2
 41
0.2
  0
VERTEX
  8
0
 10
202.899
 20
41.7848
 30
0.0
 40
0.2
 41
0.2
  0
VERTEX
  8
0
 10
202.899
 20
41.7961
 30
0.0
 40
0.2
 41
0.2
  0
VERTEX
  8
0
 10
202.884
 20
41.8275
 30
0.0
 40
0.2
 41
0.2
  0
VERTEX
  8
0
 10
202.862
 20
41.8236
 30
0.0
 40
0.2
 41
0.2
  0
VERTEX
  8
0
 10
202.857
 20
41.7999
 30
0.0
 40
0.2
 41
0.2
  0
VERTEX
  8
0
 10
202.888
 20
41.7848
 30
0.0
 40
0.2
 41
0.2
  0
VERTEX
  8
0
 10
202.899
 20
41.7848
 30
0.0
 40
0.2
 41
0.2
  0
VERTEX
  8
0
 10
207.8
 20
41.7848
 30
0.0
 40
0.2
 41
0.2
  0
VERTEX
  8
0
 10
207.816
 20
41.7848
 30
0.0
 40
0.2
 41
0.2
  0
VERTEX
  8
0
 10
207.87
 20
41.8151
 30
0.0
 40
0.2
 41
0.2
  0
VERTEX
  8
0
 10
207.9
 20
41.8691
 30
0.0
 40
0.2
 41
0.2
  0
VERTEX
  8
0
 10
207.9
 20
41.8853
 30
0.0
 40
0.2
 41
0.2
  0
VERTEX
  8
0
 10
207.9
 20
51.8844
 30
0.0
 40
0.2
 41
0.2
  0
VERTEX
  8
0
 10
207.9
 20
51.9024
 30
0.0
 40
0.2
 41
0.2
  0
VERTEX
  8
0
 10
207.87
 20
51.9561
 30
0.0
 40
0.2
 41
0.2
  0
VERTEX
  8
0
 10
207.816
 20
51.985
 30
0.0
 40
0.2
 41
0.2
  0
VERTEX
  8
0
 10
207.8
 20
51.985
 30
0.0
 40
0.2
 41
0.2
  0
VERTEX
  8
0
 10
202.899
 20
51.985
 30
0.0
 40
0.2
 41
0.2
  0
VERTEX
  8
0
 10
202.888
 20
51.985
 30
0.0
 40
0.2
 41
0.2
  0
VERTEX
  8
0
 10
202.857
 20
51.9712
 30
0.0
 40
0.2
 41
0.2
  0
VERTEX
  8
0
 10
202.862
 20
51.9479
 30
0.0
 40
0.2
 41
0.2
  0
VERTEX
  8
0
 10
202.884
 20
51.9437
 30
0.0
 40
0.2
 41
0.2
  0
VERTEX
  8
0
 10
202.899
 20
51.9755
 30
0.0
 40
0.2
 41
0.2
  0
VERTEX
  8
0
 10
202.899
 20
51.985
 30
0.0
 40
0.2
 41
0.2
  0
VERTEX
  8
0
 10
202.899
 20
61.7844
 30
0.0
 40
0.2
 41
0.2
  0
VERTEX
  8
0
 10
202.899
 20
61.7954
 30
0.0
 40
0.2
 41
0.2
  0
VERTEX
  8
0
 10
202.884
 20
61.8271
 30
0.0
 40
0.2
 41
0.2
  0
VERTEX
  8
0
 10
202.862
 20
61.8229
 30
0.0
 40
0.2
 41
0.2
  0
VERTEX
  8
0
 10
202.857
 20
61.7996
 30
0.0
 40
0.2
 41
0.2
  0
VERTEX
  8
0
 10
202.888
 20
61.7844
 30
0.0
 40
0.2
 41
0.2
  0
VERTEX
  8
0
 10
202.899
 20
61.7844
 30
0.0
 40
0.2
 41
0.2
  0
VERTEX
  8
0
 10
207.8
 20
61.7844
 30
0.0
 40
0.2
 41
0.2
  0
VERTEX
  8
0
 10
207.816
 20
61.7844
 30
0.0
 40
0.2
 41
0.2
  0
VERTEX
  8
0
 10
207.87
 20
61.8148
 30
0.0
 40
0.2
 41
0.2
  0
VERTEX
  8
0
 10
207.9
 20
61.8684
 30
0.0
 40
0.2
 41
0.2
  0
VERTEX
  8
0
 10
207.9
 20
61.885
 30
0.0
 40
0.2
 41
0.2
  0
VERTEX
  8
0
 10
207.9
 20
71.8855
 30
0.0
 40
0.2
 41
0.2
  0
VERTEX
  8
0
 10
207.9
 20
71.9032
 30
0.0
 40
0.2
 41
0.2
  0
VERTEX
  8
0
 10
207.87
 20
71.9557
 30
0.0
 40
0.2
 41
0.2
  0
VERTEX
  8
0
 10
207.816
 20
71.9847
 30
0.0
 40
0.2
 41
0.2
  0
VERTEX
  8
0
 10
207.8
 20
71.9847
 30
0.0
 40
0.2
 41
0.2
  0
VERTEX
  8
0
 10
202.899
 20
71.9847
 30
0.0
 40
0.2
 41
0.2
  0
VERTEX
  8
0
 10
202.888
 20
71.9847
 30
0.0
 40
0.2
 41
0.2
  0
VERTEX
  8
0
 10
202.857
 20
71.9709
 30
0.0
 40
0.2
 41
0.2
  0
VERTEX
  8
0
 10
202.862
 20
71.9473
 30
0.0
 40
0.2
 41
0.2
  0
VERTEX
  8
0
 10
202.884
 20
71.9434
 30
0.0
 40
0.2
 41
0.2
  0
VERTEX
  8
0
 10
202.899
 20
71.9748
 30
0.0
 40
0.2
 41
0.2
  0
VERTEX
  8
0
 10
202.899
 20
71.9847
 30
0.0
 40
0.2
 41
0.2
  0
VERTEX
  8
0
 10
202.899
 20
78.927
 30
0.0
 40
0.2
 41
0.2
  0
SEQEND
 8
0
  0
POLYLINE
  8
0
 62
     0
 66
     1
 10
0
 20
0
 30
0.0
 40
0.566929
 41
0.566929
  0
VERTEX
  8
0
 10
202.899
 20
83.9265
 30
0.0
 40
0.2
 41
0.2
  0
VERTEX
  8
0
 10
202.899
 20
90.9697
 30
0.0
 40
0.2
 41
0.2
  0
VERTEX
  8
0
 10
202.899
 20
90.9877
 30
0.0
 40
0.2
 41
0.2
  0
VERTEX
  8
0
 10
202.87
 20
91.0414
 30
0.0
 40
0.2
 41
0.2
  0
VERTEX
  8
0
 10
202.817
 20
91.0703
 30
0.0
 40
0.2
 41
0.2
  0
VERTEX
  8
0
 10
202.8
 20
91.0703
 30
0.0
 40
0.2
 41
0.2
  0
VERTEX
  8
0
 10
189.05
 20
91.0703
 30
0.0
 40
0.2
 41
0.2
  0
SEQEND
 8
0
  0
POLYLINE
  8
0
 62
     0
 66
     1
 10
0
 20
0
 30
0.0
 40
0.566929
 41
0.566929
  0
VERTEX
  8
0
 10
184.051
 20
91.0703
 30
0.0
 40
0.2
 41
0.2
  0
VERTEX
  8
0
 10
156.551
 20
91.0703
 30
0.0
 40
0.2
 41
0.2
  0
SEQEND
 8
0
  0
POLYLINE
  8
0
 62
     0
 66
     1
 10
0
 20
0
 30
0.0
 40
0.566929
 41
0.566929
  0
VERTEX
  8
0
 10
151.55
 20
91.0703
 30
0.0
 40
0.2
 41
0.2
  0
VERTEX
  8
0
 10
137.8
 20
91.0703
 30
0.0
 40
0.2
 41
0.2
  0
VERTEX
  8
0
 10
137.782
 20
91.0703
 30
0.0
 40
0.2
 41
0.2
  0
VERTEX
  8
0
 10
137.729
 20
91.0414
 30
0.0
 40
0.2
 41
0.2
  0
VERTEX
  8
0
 10
137.7
 20
90.9877
 30
0.0
 40
0.2
 41
0.2
  0
VERTEX
  8
0
 10
137.7
 20
90.9697
 30
0.0
 40
0.2
 41
0.2
  0
VERTEX
  8
0
 10
137.7
 20
83.9265
 30
0.0
 40
0.2
 41
0.2
  0
SEQEND
 8
0
  0
POLYLINE
  8
0
 62
     0
 66
     1
 10
0
 20
0
 30
0.0
 40
0.566929
 41
0.566929
  0
VERTEX
  8
0
 10
137.7
 20
78.927
 30
0.0
 40
0.2
 41
0.2
  0
VERTEX
  8
0
 10
137.7
 20
71.9847
 30
0.0
 40
0.2
 41
0.2
  0
VERTEX
  8
0
 10
137.7
 20
71.9748
 30
0.0
 40
0.2
 41
0.2
  0
VERTEX
  8
0
 10
137.714
 20
71.9434
 30
0.0
 40
0.2
 41
0.2
  0
VERTEX
  8
0
 10
137.738
 20
71.9473
 30
0.0
 40
0.2
 41
0.2
  0
VERTEX
  8
0
 10
137.742
 20
71.9709
 30
0.0
 40
0.2
 41
0.2
  0
VERTEX
  8
0
 10
137.71
 20
71.9847
 30
0.0
 40
0.2
 41
0.2
  0
VERTEX
  8
0
 10
137.7
 20
71.9847
 30
0.0
 40
0.2
 41
0.2
  0
VERTEX
  8
0
 10
132.8
 20
71.9847
 30
0.0
 40
0.2
 41
0.2
  0
VERTEX
  8
0
 10
132.782
 20
71.9847
 30
0.0
 40
0.2
 41
0.2
  0
VERTEX
  8
0
 10
132.728
 20
71.9557
 30
0.0
 40
0.2
 41
0.2
  0
VERTEX
  8
0
 10
132.699
 20
71.9032
 30
0.0
 40
0.2
 41
0.2
  0
VERTEX
  8
0
 10
132.699
 20
71.8855
 30
0.0
 40
0.2
 41
0.2
  0
VERTEX
  8
0
 10
132.699
 20
61.885
 30
0.0
 40
0.2
 41
0.2
  0
VERTEX
  8
0
 10
132.699
 20
61.8684
 30
0.0
 40
0.2
 41
0.2
  0
VERTEX
  8
0
 10
132.728
 20
61.8148
 30
0.0
 40
0.2
 41
0.2
  0
VERTEX
  8
0
 10
132.782
 20
61.7844
 30
0.0
 40
0.2
 41
0.2
  0
VERTEX
  8
0
 10
132.8
 20
61.7844
 30
0.0
 40
0.2
 41
0.2
  0
VERTEX
  8
0
 10
137.7
 20
61.7844
 30
0.0
 40
0.2
 41
0.2
  0
VERTEX
  8
0
 10
137.71
 20
61.7844
 30
0.0
 40
0.2
 41
0.2
  0
VERTEX
  8
0
 10
137.742
 20
61.7996
 30
0.0
 40
0.2
 41
0.2
  0
VERTEX
  8
0
 10
137.738
 20
61.8229
 30
0.0
 40
0.2
 41
0.2
  0
VERTEX
  8
0
 10
137.714
 20
61.8271
 30
0.0
 40
0.2
 41
0.2
  0
VERTEX
  8
0
 10
137.7
 20
61.7954
 30
0.0
 40
0.2
 41
0.2
  0
VERTEX
  8
0
 10
137.7
 20
61.7844
 30
0.0
 40
0.2
 41
0.2
  0
VERTEX
  8
0
 10
137.7
 20
51.985
 30
0.0
 40
0.2
 41
0.2
  0
VERTEX
  8
0
 10
137.7
 20
51.9755
 30
0.0
 40
0.2
 41
0.2
  0
VERTEX
  8
0
 10
137.714
 20
51.9437
 30
0.0
 40
0.2
 41
0.2
  0
VERTEX
  8
0
 10
137.738
 20
51.9479
 30
0.0
 40
0.2
 41
0.2
  0
VERTEX
  8
0
 10
137.742
 20
51.9712
 30
0.0
 40
0.2
 41
0.2
  0
VERTEX
  8
0
 10
137.71
 20
51.985
 30
0.0
 40
0.2
 41
0.2
  0
VERTEX
  8
0
 10
137.7
 20
51.985
 30
0.0
 40
0.2
 41
0.2
  0
VERTEX
  8
0
 10
132.8
 20
51.985
 30
0.0
 40
0.2
 41
0.2
  0
VERTEX
  8
0
 10
132.782
 20
51.985
 30
0.0
 40
0.2
 41
0.2
  0
VERTEX
  8
0
 10
132.728
 20
51.9561
 30
0.0
 40
0.2
 41
0.2
  0
VERTEX
  8
0
 10
132.699
 20
51.9024
 30
0.0
 40
0.2
 41
0.2
  0
VERTEX
  8
0
 10
132.699
 20
51.8844
 30
0.0
 40
0.2
 41
0.2
  0
VERTEX
  8
0
 10
132.699
 20
41.8853
 30
0.0
 40
0.2
 41
0.2
  0
VERTEX
  8
0
 10
132.699
 20
41.8691
 30
0.0
 40
0.2
 41
0.2
  0
VERTEX
  8
0
 10
132.728
 20
41.8151
 30
0.0
 40
0.2
 41
0.2
  0
VERTEX
  8
0
 10
132.782
 20
41.7848
 30
0.0
 40
0.2
 41
0.2
  0
VERTEX
  8
0
 10
132.8
 20
41.7848
 30
0.0
 40
0.2
 41
0.2
  0
VERTEX
  8
0
 10
137.7
 20
41.7848
 30
0.0
 40
0.2
 41
0.2
  0
VERTEX
  8
0
 10
137.71
 20
41.7848
 30
0.0
 40
0.2
 41
0.2
  0
VERTEX
  8
0
 10
137.742
 20
41.7999
 30
0.0
 40
0.2
 41
0.2
  0
VERTEX
  8
0
 10
137.738
 20
41.8236
 30
0.0
 40
0.2
 41
0.2
  0
VERTEX
  8
0
 10
137.714
 20
41.8275
 30
0.0
 40
0.2
 41
0.2
  0
VERTEX
  8
0
 10
137.7
 20
41.7961
 30
0.0
 40
0.2
 41
0.2
  0
VERTEX
  8
0
 10
137.7
 20
41.7848
 30
0.0
 40
0.2
 41
0.2
  0
VERTEX
  8
0
 10
137.7
 20
34.8423
 30
0.0
 40
0.2
 41
0.2
  0
SEQEND
 8
0
  0
POLYLINE
  8
0
 62
     0
 66
     1
 10
0
 20
0
 30
0.0
 40
0.566929
 41
0.566929
  0
VERTEX
  8
0
 10
137.7
 20
29.8428
 30
0.0
 40
0.2
 41
0.2
  0
VERTEX
  8
0
 10
137.7
 20
22.7996
 30
0.0
 40
0.2
 41
0.2
  0
VERTEX
  8
0
 10
137.7
 20
22.7831
 30
0.0
 40
0.2
 41
0.2
  0
VERTEX
  8
0
 10
137.729
 20
22.7294
 30
0.0
 40
0.2
 41
0.2
  0
VERTEX
  8
0
 10
137.782
 20
22.7004
 30
0.0
 40
0.2
 41
0.2
  0
VERTEX
  8
0
 10
137.8
 20
22.7004
 30
0.0
 40
0.2
 41
0.2
  0
SEQEND
 8
0
  0
POLYLINE
  8
0
 62
     5
 66
     1
 10
0
 20
0
 30
0.0
 70
     1
 40
0.566929
 41
0.566929
  0
VERTEX
  8
0
 10
160.3
 20
98.7697
 30
0.0
 40
0.2
 41
0.2
  0
VERTEX
  8
0
 10
155.4
 20
98.7697
 30
0.0
 40
0.2
 41
0.2
  0
VERTEX
  8
0
 10
155.389
 20
98.7697
 30
0.0
 40
0.2
 41
0.2
  0
VERTEX
  8
0
 10
155.357
 20
98.7559
 30
0.0
 40
0.2
 41
0.2
  0
VERTEX
  8
0
 10
155.362
 20
98.7323
 30
0.0
 40
0.2
 41
0.2
  0
VERTEX
  8
0
 10
155.385
 20
98.728
 30
0.0
 40
0.2
 41
0.2
  0
VERTEX
  8
0
 10
155.4
 20
98.7598
 30
0.0
 40
0.2
 41
0.2
  0
VERTEX
  8
0
 10
155.4
 20
98.7697
 30
0.0
 40
0.2
 41
0.2
  0
VERTEX
  8
0
 10
155.4
 20
103.571
 30
0.0
 40
0.2
 41
0.2
  0
VERTEX
  8
0
 10
155.4
 20
103.582
 30
0.0
 40
0.2
 41
0.2
  0
VERTEX
  8
0
 10
155.385
 20
103.613
 30
0.0
 40
0.2
 41
0.2
  0
VERTEX
  8
0
 10
155.362
 20
103.608
 30
0.0
 40
0.2
 41
0.2
  0
VERTEX
  8
0
 10
155.357
 20
103.586
 30
0.0
 40
0.2
 41
0.2
  0
VERTEX
  8
0
 10
155.389
 20
103.571
 30
0.0
 40
0.2
 41
0.2
  0
VERTEX
  8
0
 10
155.4
 20
103.571
 30
0.0
 40
0.2
 41
0.2
  0
VERTEX
  8
0
 10
165.199
 20
103.571
 30
0.0
 40
0.2
 41
0.2
  0
VERTEX
  8
0
 10
165.209
 20
103.571
 30
0.0
 40
0.2
 41
0.2
  0
VERTEX
  8
0
 10
165.24
 20
103.586
 30
0.0
 40
0.2
 41
0.2
  0
VERTEX
  8
0
 10
165.237
 20
103.608
 30
0.0
 40
0.2
 41
0.2
  0
VERTEX
  8
0
 10
165.213
 20
103.613
 30
0.0
 40
0.2
 41
0.2
  0
VERTEX
  8
0
 10
165.199
 20
103.582
 30
0.0
 40
0.2
 41
0.2
  0
VERTEX
  8
0
 10
165.199
 20
103.571
 30
0.0
 40
0.2
 41
0.2
  0
VERTEX
  8
0
 10
165.199
 20
98.7697
 30
0.0
 40
0.2
 41
0.2
  0
VERTEX
  8
0
 10
165.199
 20
98.7598
 30
0.0
 40
0.2
 41
0.2
  0
VERTEX
  8
0
 10
165.213
 20
98.728
 30
0.0
 40
0.2
 41
0.2
  0
VERTEX
  8
0
 10
165.237
 20
98.7323
 30
0.0
 40
0.2
 41
0.2
  0
VERTEX
  8
0
 10
165.24
 20
98.7559
 30
0.0
 40
0.2
 41
0.2
  0
VERTEX
  8
0
 10
165.209
 20
98.7697
 30
0.0
 40
0.2
 41
0.2
  0
VERTEX
  8
0
 10
165.199
 20
98.7697
 30
0.0
 40
0.2
 41
0.2
  0
VERTEX
  8
0
 10
160.3
 20
98.7697
 30
0.0
 40
0.2
 41
0.2
  0
SEQEND
 8
0
  0
POLYLINE
  8
0
 62
     5
 66
     1
 10
0
 20
0
 30
0.0
 70
     1
 40
0.566929
 41
0.566929
  0
VERTEX
  8
0
 10
180.3
 20
98.7697
 30
0.0
 40
0.2
 41
0.2
  0
VERTEX
  8
0
 10
175.399
 20
98.7697
 30
0.0
 40
0.2
 41
0.2
  0
VERTEX
  8
0
 10
175.388
 20
98.7697
 30
0.0
 40
0.2
 41
0.2
  0
VERTEX
  8
0
 10
175.357
 20
98.7559
 30
0.0
 40
0.2
 41
0.2
  0
VERTEX
  8
0
 10
175.362
 20
98.7323
 30
0.0
 40
0.2
 41
0.2
  0
VERTEX
  8
0
 10
175.384
 20
98.728
 30
0.0
 40
0.2
 41
0.2
  0
VERTEX
  8
0
 10
175.399
 20
98.7598
 30
0.0
 40
0.2
 41
0.2
  0
VERTEX
  8
0
 10
175.399
 20
98.7697
 30
0.0
 40
0.2
 41
0.2
  0
VERTEX
  8
0
 10
175.399
 20
103.571
 30
0.0
 40
0.2
 41
0.2
  0
VERTEX
  8
0
 10
175.399
 20
103.582
 30
0.0
 40
0.2
 41
0.2
  0
VERTEX
  8
0
 10
175.384
 20
103.613
 30
0.0
 40
0.2
 41
0.2
  0
VERTEX
  8
0
 10
175.362
 20
103.608
 30
0.0
 40
0.2
 41
0.2
  0
VERTEX
  8
0
 10
175.357
 20
103.586
 30
0.0
 40
0.2
 41
0.2
  0
VERTEX
  8
0
 10
175.388
 20
103.571
 30
0.0
 40
0.2
 41
0.2
  0
VERTEX
  8
0
 10
175.399
 20
103.571
 30
0.0
 40
0.2
 41
0.2
  0
VERTEX
  8
0
 10
185.2
 20
103.571
 30
0.0
 40
0.2
 41
0.2
  0
VERTEX
  8
0
 10
185.21
 20
103.571
 30
0.0
 40
0.2
 41
0.2
  0
VERTEX
  8
0
 10
185.241
 20
103.586
 30
0.0
 40
0.2
 41
0.2
  0
VERTEX
  8
0
 10
185.237
 20
103.608
 30
0.0
 40
0.2
 41
0.2
  0
VERTEX
  8
0
 10
185.214
 20
103.613
 30
0.0
 40
0.2
 41
0.2
  0
VERTEX
  8
0
 10
185.2
 20
103.582
 30
0.0
 40
0.2
 41
0.2
  0
VERTEX
  8
0
 10
185.2
 20
103.571
 30
0.0
 40
0.2
 41
0.2
  0
VERTEX
  8
0
 10
185.2
 20
98.7697
 30
0.0
 40
0.2
 41
0.2
  0
VERTEX
  8
0
 10
185.2
 20
98.7598
 30
0.0
 40
0.2
 41
0.2
  0
VERTEX
  8
0
 10
185.214
 20
98.728
 30
0.0
 40
0.2
 41
0.2
  0
VERTEX
  8
0
 10
185.237
 20
98.7323
 30
0.0
 40
0.2
 41
0.2
  0
VERTEX
  8
0
 10
185.241
 20
98.7559
 30
0.0
 40
0.2
 41
0.2
  0
VERTEX
  8
0
 10
185.21
 20
98.7697
 30
0.0
 40
0.2
 41
0.2
  0
VERTEX
  8
0
 10
185.2
 20
98.7697
 30
0.0
 40
0.2
 41
0.2
  0
VERTEX
  8
0
 10
180.3
 20
98.7697
 30
0.0
 40
0.2
 41
0.2
  0
SEQEND
 8
0
  0
TEXT
  8
0
 62
     1
 10
166.411
 20
126.851
 30
0.0
 40
4.0005
  1
right
 50
0
  0
POLYLINE
  8
0
 62
     0
 66
     1
 10
0
 20
0
 30
0.0
 40
0.566929
 41
0.566929
  0
VERTEX
  8
0
 10
137.8
 20
93.5701
 30
0.0
 40
0.2
 41
0.2
  0
VERTEX
  8
0
 10
151.55
 20
93.5701
 30
0.0
 40
0.2
 41
0.2
  0
SEQEND
 8
0
  0
POLYLINE
  8
0
 62
     0
 66
     1
 10
0
 20
0
 30
0.0
 40
0.566929
 41
0.566929
  0
VERTEX
  8
0
 10
156.551
 20
93.5701
 30
0.0
 40
0.2
 41
0.2
  0
VERTEX
  8
0
 10
184.051
 20
93.5701
 30
0.0
 40
0.2
 41
0.2
  0
SEQEND
 8
0
  0
POLYLINE
  8
0
 62
     0
 66
     1
 10
0
 20
0
 30
0.0
 40
0.566929
 41
0.566929
  0
VERTEX
  8
0
 10
189.05
 20
93.5701
 30
0.0
 40
0.2
 41
0.2
  0
VERTEX
  8
0
 10
202.8
 20
93.5701
 30
0.0
 40
0.2
 41
0.2
  0
VERTEX
  8
0
 10
202.817
 20
93.5701
 30
0.0
 40
0.2
 41
0.2
  0
VERTEX
  8
0
 10
202.87
 20
93.599
 30
0.0
 40
0.2
 41
0.2
  0
VERTEX
  8
0
 10
202.899
 20
93.653
 30
0.0
 40
0.2
 41
0.2
  0
VERTEX
  8
0
 10
202.899
 20
93.6696
 30
0.0
 40
0.2
 41
0.2
  0
VERTEX
  8
0
 10
202.899
 20
100.712
 30
0.0
 40
0.2
 41
0.2
  0
SEQEND
 8
0
  0
POLYLINE
  8
0
 62
     0
 66
     1
 10
0
 20
0
 30
0.0
 40
0.566929
 41
0.566929
  0
VERTEX
  8
0
 10
202.899
 20
105.712
 30
0.0
 40
0.2
 41
0.2
  0
VERTEX
  8
0
 10
202.899
 20
112.655
 30
0.0
 40
0.2
 41
0.2
  0
VERTEX
  8
0
 10
202.899
 20
112.666
 30
0.0
 40
0.2
 41
0.2
  0
VERTEX
  8
0
 10
202.884
 20
112.697
 30
0.0
 40
0.2
 41
0.2
  0
VERTEX
  8
0
 10
202.862
 20
112.693
 30
0.0
 40
0.2
 41
0.2
  0
VERTEX
  8
0
 10
202.857
 20
112.67
 30
0.0
 40
0.2
 41
0.2
  0
VERTEX
  8
0
 10
202.888
 20
112.655
 30
0.0
 40
0.2
 41
0.2
  0
VERTEX
  8
0
 10
202.899
 20
112.655
 30
0.0
 40
0.2
 41
0.2
  0
VERTEX
  8
0
 10
207.8
 20
112.655
 30
0.0
 40
0.2
 41
0.2
  0
VERTEX
  8
0
 10
207.816
 20
112.655
 30
0.0
 40
0.2
 41
0.2
  0
VERTEX
  8
0
 10
207.87
 20
112.685
 30
0.0
 40
0.2
 41
0.2
  0
VERTEX
  8
0
 10
207.9
 20
112.739
 30
0.0
 40
0.2
 41
0.2
  0
VERTEX
  8
0
 10
207.9
 20
112.755
 30
0.0
 40
0.2
 41
0.2
  0
VERTEX
  8
0
 10
207.9
 20
122.754
 30
0.0
 40
0.2
 41
0.2
  0
VERTEX
  8
0
 10
207.9
 20
122.772
 30
0.0
 40
0.2
 41
0.2
  0
VERTEX
  8
0
 10
207.87
 20
122.826
 30
0.0
 40
0.2
 41
0.2
  0
VERTEX
  8
0
 10
207.816
 20
122.855
 30
0.0
 40
0.2
 41
0.2
  0
VERTEX
  8
0
 10
207.8
 20
122.855
 30
0.0
 40
0.2
 41
0.2
  0
VERTEX
  8
0
 10
202.899
 20
122.855
 30
0.0
 40
0.2
 41
0.2
  0
VERTEX
  8
0
 10
202.888
 20
122.855
 30
0.0
 40
0.2
 41
0.2
  0
VERTEX
  8
0
 10
202.857
 20
122.841
 30
0.0
 40
0.2
 41
0.2
  0
VERTEX
  8
0
 10
202.862
 20
122.818
 30
0.0
 40
0.2
 41
0.2
  0
VERTEX
  8
0
 10
202.884
 20
122.814
 30
0.0
 40
0.2
 41
0.2
  0
VERTEX
  8
0
 10
202.899
 20
122.845
 30
0.0
 40
0.2
 41
0.2
  0
VERTEX
  8
0
 10
202.899
 20
122.855
 30
0.0
 40
0.2
 41
0.2
  0
VERTEX
  8
0
 10
202.899
 20
132.654
 30
0.0
 40
0.2
 41
0.2
  0
VERTEX
  8
0
 10
202.899
 20
132.665
 30
0.0
 40
0.2
 41
0.2
  0
VERTEX
  8
0
 10
202.884
 20
132.697
 30
0.0
 40
0.2
 41
0.2
  0
VERTEX
  8
0
 10
202.862
 20
132.693
 30
0.0
 40
0.2
 41
0.2
  0
VERTEX
  8
0
 10
202.857
 20
132.669
 30
0.0
 40
0.2
 41
0.2
  0
VERTEX
  8
0
 10
202.888
 20
132.654
 30
0.0
 40
0.2
 41
0.2
  0
VERTEX
  8
0
 10
202.899
 20
132.654
 30
0.0
 40
0.2
 41
0.2
  0
VERTEX
  8
0
 10
207.8
 20
132.654
 30
0.0
 40
0.2
 41
0.2
  0
VERTEX
  8
0
 10
207.816
 20
132.654
 30
0.0
 40
0.2
 41
0.2
  0
VERTEX
  8
0
 10
207.87
 20
132.684
 30
0.0
 40
0.2
 41
0.2
  0
VERTEX
  8
0
 10
207.9
 20
132.738
 30
0.0
 40
0.2
 41
0.2
  0
VERTEX
  8
0
 10
207.9
 20
132.755
 30
0.0
 40
0.2
 41
0.2
  0
VERTEX
  8
0
 10
207.9
 20
142.755
 30
0.0
 40
0.2
 41
0.2
  0
VERTEX
  8
0
 10
207.9
 20
142.773
 30
0.0
 40
0.2
 41
0.2
  0
VERTEX
  8
0
 10
207.87
 20
142.825
 30
0.0
 40
0.2
 41
0.2
  0
VERTEX
  8
0
 10
207.816
 20
142.854
 30
0.0
 40
0.2
 41
0.2
  0
VERTEX
  8
0
 10
207.8
 20
142.854
 30
0.0
 40
0.2
 41
0.2
  0
VERTEX
  8
0
 10
202.899
 20
142.854
 30
0.0
 40
0.2
 41
0.2
  0
VERTEX
  8
0
 10
202.888
 20
142.854
 30
0.0
 40
0.2
 41
0.2
  0
VERTEX
  8
0
 10
202.857
 20
142.84
 30
0.0
 40
0.2
 41
0.2
  0
VERTEX
  8
0
 10
202.862
 20
142.817
 30
0.0
 40
0.2
 41
0.2
  0
VERTEX
  8
0
 10
202.884
 20
142.813
 30
0.0
 40
0.2
 41
0.2
  0
VERTEX
  8
0
 10
202.899
 20
142.845
 30
0.0
 40
0.2
 41
0.2
  0
VERTEX
  8
0
 10
202.899
 20
142.854
 30
0.0
 40
0.2
 41
0.2
  0
VERTEX
  8
0
 10
202.899
 20
149.797
 30
0.0
 40
0.2
 41
0.2
  0
SEQEND
 8
0
  0
POLYLINE
  8
0
 62
     0
 66
     1
 10
0
 20
0
 30
0.0
 40
0.566929
 41
0.566929
  0
VERTEX
  8
0
 10
202.899
 20
154.798
 30
0.0
 40
0.2
 41
0.2
  0
VERTEX
  8
0
 10
202.899
 20
161.84
 30
0.0
 40
0.2
 41
0.2
  0
VERTEX
  8
0
 10
202.899
 20
161.858
 30
0.0
 40
0.2
 41
0.2
  0
VERTEX
  8
0
 10
202.87
 20
161.911
 30
0.0
 40
0.2
 41
0.2
  0
VERTEX
  8
0
 10
202.817
 20
161.94
 30
0.0
 40
0.2
 41
0.2
  0
VERTEX
  8
0
 10
202.8
 20
161.94
 30
0.0
 40
0.2
 41
0.2
  0
VERTEX
  8
0
 10
189.05
 20
161.94
 30
0.0
 40
0.2
 41
0.2
  0
SEQEND
 8
0
  0
POLYLINE
  8
0
 62
     0
 66
     1
 10
0
 20
0
 30
0.0
 40
0.566929
 41
0.566929
  0
VERTEX
  8
0
 10
184.051
 20
161.94
 30
0.0
 40
0.2
 41
0.2
  0
VERTEX
  8
0
 10
156.551
 20
161.94
 30
0.0
 40
0.2
 41
0.2
  0
SEQEND
 8
0
  0
POLYLINE
  8
0
 62
     0
 66
     1
 10
0
 20
0
 30
0.0
 40
0.566929
 41
0.566929
  0
VERTEX
  8
0
 10
151.55
 20
161.94
 30
0.0
 40
0.2
 41
0.2
  0
VERTEX
  8
0
 10
137.8
 20
161.94
 30
0.0
 40
0.2
 41
0.2
  0
VERTEX
  8
0
 10
137.782
 20
161.94
 30
0.0
 40
0.2
 41
0.2
  0
VERTEX
  8
0
 10
137.729
 20
161.911
 30
0.0
 40
0.2
 41
0.2
  0
VERTEX
  8
0
 10
137.7
 20
161.858
 30
0.0
 40
0.2
 41
0.2
  0
VERTEX
  8
0
 10
137.7
 20
161.84
 30
0.0
 40
0.2
 41
0.2
  0
VERTEX
  8
0
 10
137.7
 20
154.798
 30
0.0
 40
0.2
 41
0.2
  0
SEQEND
 8
0
  0
POLYLINE
  8
0
 62
     0
 66
     1
 10
0
 20
0
 30
0.0
 40
0.566929
 41
0.566929
  0
VERTEX
  8
0
 10
137.7
 20
149.797
 30
0.0
 40
0.2
 41
0.2
  0
VERTEX
  8
0
 10
137.7
 20
142.854
 30
0.0
 40
0.2
 41
0.2
  0
VERTEX
  8
0
 10
137.7
 20
142.845
 30
0.0
 40
0.2
 41
0.2
  0
VERTEX
  8
0
 10
137.714
 20
142.813
 30
0.0
 40
0.2
 41
0.2
  0
VERTEX
  8
0
 10
137.738
 20
142.817
 30
0.0
 40
0.2
 41
0.2
  0
VERTEX
  8
0
 10
137.742
 20
142.84
 30
0.0
 40
0.2
 41
0.2
  0
VERTEX
  8
0
 10
137.71
 20
142.854
 30
0.0
 40
0.2
 41
0.2
  0
VERTEX
  8
0
 10
137.7
 20
142.854
 30
0.0
 40
0.2
 41
0.2
  0
VERTEX
  8
0
 10
132.8
 20
142.854
 30
0.0
 40
0.2
 41
0.2
  0
VERTEX
  8
0
 10
132.782
 20
142.854
 30
0.0
 40
0.2
 41
0.2
  0
VERTEX
  8
0
 10
132.728
 20
142.825
 30
0.0
 40
0.2
 41
0.2
  0
VERTEX
  8
0
 10
132.699
 20
142.773
 30
0.0
 40
0.2
 41
0.2
  0
VERTEX
  8
0
 10
132.699
 20
142.755
 30
0.0
 40
0.2
 41
0.2
  0
VERTEX
  8
0
 10
132.699
 20
132.755
 30
0.0
 40
0.2
 41
0.2
  0
VERTEX
  8
0
 10
132.699
 20
132.738
 30
0.0
 40
0.2
 41
0.2
  0
VERTEX
  8
0
 10
132.728
 20
132.684
 30
0.0
 40
0.2
 41
0.2
  0
VERTEX
  8
0
 10
132.782
 20
132.654
 30
0.0
 40
0.2
 41
0.2
  0
VERTEX
  8
0
 10
132.8
 20
132.654
 30
0.0
 40
0.2
 41
0.2
  0
VERTEX
  8
0
 10
137.7
 20
132.654
 30
0.0
 40
0.2
 41
0.2
  0
VERTEX
  8
0
 10
137.71
 20
132.654
 30
0.0
 40
0.2
 41
0.2
  0
VERTEX
  8
0
 10
137.742
 20
132.669
 30
0.0
 40
0.2
 41
0.2
  0
VERTEX
  8
0
 10
137.738
 20
132.693
 30
0.0
 40
0.2
 41
0.2
  0
VERTEX
  8
0
 10
137.714
 20
132.697
 30
0.0
 40
0.2
 41
0.2
  0
VERTEX
  8
0
 10
137.7
 20
132.665
 30
0.0
 40
0.2
 41
0.2
  0
VERTEX
  8
0
 10
137.7
 20
132.654
 30
0.0
 40
0.2
 41
0.2
  0
VERTEX
  8
0
 10
137.7
 20
122.855
 30
0.0
 40
0.2
 41
0.2
  0
VERTEX
  8
0
 10
137.7
 20
122.845
 30
0.0
 40
0.2
 41
0.2
  0
VERTEX
  8
0
 10
137.714
 20
122.814
 30
0.0
 40
0.2
 41
0.2
  0
VERTEX
  8
0
 10
137.738
 20
122.818
 30
0.0
 40
0.2
 41
0.2
  0
VERTEX
  8
0
 10
137.742
 20
122.841
 30
0.0
 40
0.2
 41
0.2
  0
VERTEX
  8
0
 10
137.71
 20
122.855
 30
0.0
 40
0.2
 41
0.2
  0
VERTEX
  8
0
 10
137.7
 20
122.855
 30
0.0
 40
0.2
 41
0.2
  0
VERTEX
  8
0
 10
132.8
 20
122.855
 30
0.0
 40
0.2
 41
0.2
  0
VERTEX
  8
0
 10
132.782
 20
122.855
 30
0.0
 40
0.2
 41
0.2
  0
VERTEX
  8
0
 10
132.728
 20
122.826
 30
0.0
 40
0.2
 41
0.2
  0
VERTEX
  8
0
 10
132.699
 20
122.772
 30
0.0
 40
0.2
 41
0.2
  0
VERTEX
  8
0
 10
132.699
 20
122.754
 30
0.0
 40
0.2
 41
0.2
  0
VERTEX
  8
0
 10
132.699
 20
112.755
 30
0.0
 40
0.2
 41
0.2
  0
VERTEX
  8
0
 10
132.699
 20
112.739
 30
0.0
 40
0.2
 41
0.2
  0
VERTEX
  8
0
 10
132.728
 20
112.685
 30
0.0
 40
0.2
 41
0.2
  0
VERTEX
  8
0
 10
132.782
 20
112.655
 30
0.0
 40
0.2
 41
0.2
  0
VERTEX
  8
0
 10
132.8
 20
112.655
 30
0.0
 40
0.2
 41
0.2
  0
VERTEX
  8
0
 10
137.7
 20
112.655
 30
0.0
 40
0.2
 41
0.2
  0
VERTEX
  8
0
 10
137.71
 20
112.655
 30
0.0
 40
0.2
 41
0.2
  0
VERTEX
  8
0
 10
137.742
 20
112.67
 30
0.0
 40
0.2
 41
0.2
  0
VERTEX
  8
0
 10
137.738
 20
112.693
 30
0.0
 40
0.2
 41
0.2
  0
VERTEX
  8
0
 10
137.714
 20
112.697
 30
0.0
 40
0.2
 41
0.2
  0
VERTEX
  8
0
 10
137.7
 20
112.666
 30
0.0
 40
0.2
 41
0.2
  0
VERTEX
  8
0
 10
137.7
 20
112.655
 30
0.0
 40
0.2
 41
0.2
  0
VERTEX
  8
0
 10
137.7
 20
105.712
 30
0.0
 40
0.2
 41
0.2
  0
SEQEND
 8
0
  0
POLYLINE
  8
0
 62
     0
 66
     1
 10
0
 20
0
 30
0.0
 40
0.566929
 41
0.566929
  0
VERTEX
  8
0
 10
137.7
 20
100.712
 30
0.0
 40
0.2
 41
0.2
  0
VERTEX
  8
0
 10
137.7
 20
93.6696
 30
0.0
 40
0.2
 41
0.2
  0
VERTEX
  8
0
 10
137.7
 20
93.653
 30
0.0
 40
0.2
 41
0.2
  0
VERTEX
  8
0
 10
137.729
 20
93.599
 30
0.0
 40
0.2
 41
0.2
  0
VERTEX
  8
0
 10
137.782
 20
93.5701
 30
0.0
 40
0.2
 41
0.2
  0
VERTEX
  8
0
 10
137.8
 20
93.5701
 30
0.0
 40
0.2
 41
0.2
  0
SEQEND
 8
0
  0
ENDSEC
  0
EOF
