<?xml version='1.0' encoding='utf-8'?>
<svg height="418.20mm" viewBox="0.0 0.0 216.90 418.20" width="216.90mm" xmlns="http://www.w3.org/2000/svg" xmlns:cc="http://creativecommons.org/ns#" xmlns:dc="http://purl.org/dc/elements/1.1/" xmlns:inkscape="http://www.inkscape.org/namespaces/inkscape" xmlns:rdf="http://www.w3.org/1999/02/22-rdf-syntax-ns#" xmlns:svg="http://www.w3.org/2000/svg" xmlns:xlink="http://www.w3.org/1999/xlink">
<!--
UniversalBox - Box with various options for different styles and lids

Created with Boxes.py (https://boxes.hackerspace-bamberg.de/)
Creation date: 2025-07-09 07:05:43
Command line (remove spaces between dashes): boxes UniversalBox - -Lid_style=flat - -top_edge=i - -x=120 - -y=75 - -h=40 - -tabs=5
Url: https://boxes.hackerspace-bamberg.de/UniversalBox?FingerJoint_style=rectangular&FingerJoint_surroundingspaces=2.0&FingerJoint_bottom_lip=0.0&FingerJoint_edge_width=1.0&FingerJoint_extra_length=0.0&FingerJoint_finger=2.0&FingerJoint_play=0.0&FingerJoint_space=2.0&FingerJoint_width=1.0&Stackable_angle=60&Stackable_bottom_stabilizers=0.0&Stackable_height=2.0&Stackable_holedistance=1.0&Stackable_width=4.0&Hinge_grip_percentage=0&Hinge_outset=0&Hinge_outset=1&Hinge_pinwidth=0.5&Hinge_axle=2.0&Hinge_grip_length=0&Hinge_hingestrength=1&CabinetHinge_bore=3.2&CabinetHinge_eyes_per_hinge=5&CabinetHinge_hinges=2&CabinetHinge_style=inside&CabinetHinge_eye=1.5&CabinetHinge_play=0.05&CabinetHinge_spacing=2.0&SlideOnLid_hole_width=0&SlideOnLid_second_pin=0&SlideOnLid_second_pin=1&SlideOnLid_spring=both&SlideOnLid_style=rectangular&SlideOnLid_surroundingspaces=2.0&SlideOnLid_bottom_lip=0.0&SlideOnLid_edge_width=1.0&SlideOnLid_extra_length=0.0&SlideOnLid_finger=3.0&SlideOnLid_play=0.05&SlideOnLid_space=2.0&SlideOnLid_width=1.0&Click_angle=5.0&Click_bottom_radius=0.1&Click_depth=3.0&RoundedTriangleEdge_height=50.0&RoundedTriangleEdge_r_hole=2.0&RoundedTriangleEdge_radius=30.0&RoundedTriangleEdge_outset=1.0&Mounting_d_head=6.5&Mounting_d_shaft=3.0&Mounting_margin=0.125&Mounting_num=2&Mounting_side=back&Mounting_style=straight+edge%2C+within&HandleEdge_height=20.0&HandleEdge_hole_height=75.0&HandleEdge_hole_width=40%3A40&HandleEdge_on_sides=0&HandleEdge_on_sides=1&HandleEdge_radius=10.0&HandleEdge_outset=1.0&Flex_stretch=1.05&Flex_connection=1.0&Flex_distance=0.5&Flex_width=5.0&Lid_handle=none&Lid_style=flat&Lid_handle_height=8.0&Lid_height=4.0&Lid_play=0.1&top_edge=i&bottom_edge=h&x=120&y=75&h=40&outside=0&outside=1&vertical_edges=finger+joints&thickness=3.0&format=svg&tabs=5&qr_code=0&debug=0&labels=0&labels=1&reference=100.0&inner_corners=loop&burn=0.1&language=en&render=2
Url short: https://boxes.hackerspace-bamberg.de/UniversalBox?Lid_style=flat&top_edge=i&x=120&y=75&h=40&tabs=5
SettingsUrl: https://boxes.hackerspace-bamberg.de/UniversalBox?FingerJoint_style=rectangular&FingerJoint_surroundingspaces=2.0&FingerJoint_bottom_lip=0.0&FingerJoint_edge_width=1.0&FingerJoint_extra_length=0.0&FingerJoint_finger=2.0&FingerJoint_play=0.0&FingerJoint_space=2.0&FingerJoint_width=1.0&Stackable_angle=60&Stackable_bottom_stabilizers=0.0&Stackable_height=2.0&Stackable_holedistance=1.0&Stackable_width=4.0&Hinge_grip_percentage=0&Hinge_outset=0&Hinge_outset=1&Hinge_pinwidth=0.5&Hinge_axle=2.0&Hinge_grip_length=0&Hinge_hingestrength=1&CabinetHinge_bore=3.2&CabinetHinge_eyes_per_hinge=5&CabinetHinge_hinges=2&CabinetHinge_style=inside&CabinetHinge_eye=1.5&CabinetHinge_play=0.05&CabinetHinge_spacing=2.0&SlideOnLid_hole_width=0&SlideOnLid_second_pin=0&SlideOnLid_second_pin=1&SlideOnLid_spring=both&SlideOnLid_style=rectangular&SlideOnLid_surroundingspaces=2.0&SlideOnLid_bottom_lip=0.0&SlideOnLid_edge_width=1.0&SlideOnLid_extra_length=0.0&SlideOnLid_finger=3.0&SlideOnLid_play=0.05&SlideOnLid_space=2.0&SlideOnLid_width=1.0&Click_angle=5.0&Click_bottom_radius=0.1&Click_depth=3.0&RoundedTriangleEdge_height=50.0&RoundedTriangleEdge_r_hole=2.0&RoundedTriangleEdge_radius=30.0&RoundedTriangleEdge_outset=1.0&Mounting_d_head=6.5&Mounting_d_shaft=3.0&Mounting_margin=0.125&Mounting_num=2&Mounting_side=back&Mounting_style=straight+edge%2C+within&HandleEdge_height=20.0&HandleEdge_hole_height=75.0&HandleEdge_hole_width=40%3A40&HandleEdge_on_sides=0&HandleEdge_on_sides=1&HandleEdge_radius=10.0&HandleEdge_outset=1.0&Flex_stretch=1.05&Flex_connection=1.0&Flex_distance=0.5&Flex_width=5.0&Lid_handle=none&Lid_style=flat&Lid_handle_height=8.0&Lid_height=4.0&Lid_play=0.1&top_edge=i&bottom_edge=h&x=120&y=75&h=40&outside=0&outside=1&vertical_edges=finger+joints&thickness=3.0&format=svg&tabs=5&qr_code=0&debug=0&labels=0&labels=1&reference=100.0&inner_corners=loop&burn=0.1&language=en&render=2
SettingsUrl short: https://boxes.hackerspace-bamberg.de/UniversalBox?Lid_style=flat&top_edge=i&x=120&y=75&h=40&tabs=5
-->
<title>UniversalBox</title>
<metadata>
<rdf:RDF><cc:Work>
<dc:title>Box - UniversalBox</dc:title>
<dc:date>2025-07-09 07:05:43</dc:date>
<dc:source>https://boxes.hackerspace-bamberg.de/UniversalBox?FingerJoint_style=rectangular&amp;FingerJoint_surroundingspaces=2.0&amp;FingerJoint_bottom_lip=0.0&amp;FingerJoint_edge_width=1.0&amp;FingerJoint_extra_length=0.0&amp;FingerJoint_finger=2.0&amp;FingerJoint_play=0.0&amp;FingerJoint_space=2.0&amp;FingerJoint_width=1.0&amp;Stackable_angle=60&amp;Stackable_bottom_stabilizers=0.0&amp;Stackable_height=2.0&amp;Stackable_holedistance=1.0&amp;Stackable_width=4.0&amp;Hinge_grip_percentage=0&amp;Hinge_outset=0&amp;Hinge_outset=1&amp;Hinge_pinwidth=0.5&amp;Hinge_axle=2.0&amp;Hinge_grip_length=0&amp;Hinge_hingestrength=1&amp;CabinetHinge_bore=3.2&amp;CabinetHinge_eyes_per_hinge=5&amp;CabinetHinge_hinges=2&amp;CabinetHinge_style=inside&amp;CabinetHinge_eye=1.5&amp;CabinetHinge_play=0.05&amp;CabinetHinge_spacing=2.0&amp;SlideOnLid_hole_width=0&amp;SlideOnLid_second_pin=0&amp;SlideOnLid_second_pin=1&amp;SlideOnLid_spring=both&amp;SlideOnLid_style=rectangular&amp;SlideOnLid_surroundingspaces=2.0&amp;SlideOnLid_bottom_lip=0.0&amp;SlideOnLid_edge_width=1.0&amp;SlideOnLid_extra_length=0.0&amp;SlideOnLid_finger=3.0&amp;SlideOnLid_play=0.05&amp;SlideOnLid_space=2.0&amp;SlideOnLid_width=1.0&amp;Click_angle=5.0&amp;Click_bottom_radius=0.1&amp;Click_depth=3.0&amp;RoundedTriangleEdge_height=50.0&amp;RoundedTriangleEdge_r_hole=2.0&amp;RoundedTriangleEdge_radius=30.0&amp;RoundedTriangleEdge_outset=1.0&amp;Mounting_d_head=6.5&amp;Mounting_d_shaft=3.0&amp;Mounting_margin=0.125&amp;Mounting_num=2&amp;Mounting_side=back&amp;Mounting_style=straight+edge%2C+within&amp;HandleEdge_height=20.0&amp;HandleEdge_hole_height=75.0&amp;HandleEdge_hole_width=40%3A40&amp;HandleEdge_on_sides=0&amp;HandleEdge_on_sides=1&amp;HandleEdge_radius=10.0&amp;HandleEdge_outset=1.0&amp;Flex_stretch=1.05&amp;Flex_connection=1.0&amp;Flex_distance=0.5&amp;Flex_width=5.0&amp;Lid_handle=none&amp;Lid_style=flat&amp;Lid_handle_height=8.0&amp;Lid_height=4.0&amp;Lid_play=0.1&amp;top_edge=i&amp;bottom_edge=h&amp;x=120&amp;y=75&amp;h=40&amp;outside=0&amp;outside=1&amp;vertical_edges=finger+joints&amp;thickness=3.0&amp;format=svg&amp;tabs=5&amp;qr_code=0&amp;debug=0&amp;labels=0&amp;labels=1&amp;reference=100.0&amp;inner_corners=loop&amp;burn=0.1&amp;language=en&amp;render=2</dc:source>
<dc:source>https://boxes.hackerspace-bamberg.de/UniversalBox?Lid_style=flat&amp;top_edge=i&amp;x=120&amp;y=75&amp;h=40&amp;tabs=5</dc:source>
<dc:description>Box with various options for different styles and lids

Created with Boxes.py (https://boxes.hackerspace-bamberg.de/)
Command line: boxes UniversalBox --FingerJoint_style=rectangular --FingerJoint_surroundingspaces=2.0 --FingerJoint_bottom_lip=0.0 --FingerJoint_edge_width=1.0 --FingerJoint_extra_length=0.0 --FingerJoint_finger=2.0 --FingerJoint_play=0.0 --FingerJoint_space=2.0 --FingerJoint_width=1.0 --Stackable_angle=60 --Stackable_bottom_stabilizers=0.0 --Stackable_height=2.0 --Stackable_holedistance=1.0 --Stackable_width=4.0 --Hinge_grip_percentage=0 --Hinge_outset=0 --Hinge_outset=1 --Hinge_pinwidth=0.5 --Hinge_axle=2.0 --Hinge_grip_length=0 --Hinge_hingestrength=1 --CabinetHinge_bore=3.2 --CabinetHinge_eyes_per_hinge=5 --CabinetHinge_hinges=2 --CabinetHinge_style=inside --CabinetHinge_eye=1.5 --CabinetHinge_play=0.05 --CabinetHinge_spacing=2.0 --SlideOnLid_hole_width=0 --SlideOnLid_second_pin=0 --SlideOnLid_second_pin=1 --SlideOnLid_spring=both --SlideOnLid_style=rectangular --SlideOnLid_surroundingspaces=2.0 --SlideOnLid_bottom_lip=0.0 --SlideOnLid_edge_width=1.0 --SlideOnLid_extra_length=0.0 --SlideOnLid_finger=3.0 --SlideOnLid_play=0.05 --SlideOnLid_space=2.0 --SlideOnLid_width=1.0 --Click_angle=5.0 --Click_bottom_radius=0.1 --Click_depth=3.0 --RoundedTriangleEdge_height=50.0 --RoundedTriangleEdge_r_hole=2.0 --RoundedTriangleEdge_radius=30.0 --RoundedTriangleEdge_outset=1.0 --Mounting_d_head=6.5 --Mounting_d_shaft=3.0 --Mounting_margin=0.125 --Mounting_num=2 --Mounting_side=back '--Mounting_style=straight edge, within' --HandleEdge_height=20.0 --HandleEdge_hole_height=75.0 --HandleEdge_hole_width=40:40 --HandleEdge_on_sides=0 --HandleEdge_on_sides=1 --HandleEdge_radius=10.0 --HandleEdge_outset=1.0 --Flex_stretch=1.05 --Flex_connection=1.0 --Flex_distance=0.5 --Flex_width=5.0 --Lid_handle=none --Lid_style=flat --Lid_handle_height=8.0 --Lid_height=4.0 --Lid_play=0.1 --top_edge=i --bottom_edge=h --x=120 --y=75 --h=40 --outside=0 --outside=1 '--vertical_edges=finger joints' --thickness=3.0 --format=svg --tabs=5 --qr_code=0 --debug=0 --labels=0 --labels=1 --reference=100.0 --inner_corners=loop --burn=0.1
Command line short: boxes UniversalBox --Lid_style=flat --top_edge=i --x=120 --y=75 --h=40 --tabs=5
Url: https://boxes.hackerspace-bamberg.de/UniversalBox?FingerJoint_style=rectangular&amp;FingerJoint_surroundingspaces=2.0&amp;FingerJoint_bottom_lip=0.0&amp;FingerJoint_edge_width=1.0&amp;FingerJoint_extra_length=0.0&amp;FingerJoint_finger=2.0&amp;FingerJoint_play=0.0&amp;FingerJoint_space=2.0&amp;FingerJoint_width=1.0&amp;Stackable_angle=60&amp;Stackable_bottom_stabilizers=0.0&amp;Stackable_height=2.0&amp;Stackable_holedistance=1.0&amp;Stackable_width=4.0&amp;Hinge_grip_percentage=0&amp;Hinge_outset=0&amp;Hinge_outset=1&amp;Hinge_pinwidth=0.5&amp;Hinge_axle=2.0&amp;Hinge_grip_length=0&amp;Hinge_hingestrength=1&amp;CabinetHinge_bore=3.2&amp;CabinetHinge_eyes_per_hinge=5&amp;CabinetHinge_hinges=2&amp;CabinetHinge_style=inside&amp;CabinetHinge_eye=1.5&amp;CabinetHinge_play=0.05&amp;CabinetHinge_spacing=2.0&amp;SlideOnLid_hole_width=0&amp;SlideOnLid_second_pin=0&amp;SlideOnLid_second_pin=1&amp;SlideOnLid_spring=both&amp;SlideOnLid_style=rectangular&amp;SlideOnLid_surroundingspaces=2.0&amp;SlideOnLid_bottom_lip=0.0&amp;SlideOnLid_edge_width=1.0&amp;SlideOnLid_extra_length=0.0&amp;SlideOnLid_finger=3.0&amp;SlideOnLid_play=0.05&amp;SlideOnLid_space=2.0&amp;SlideOnLid_width=1.0&amp;Click_angle=5.0&amp;Click_bottom_radius=0.1&amp;Click_depth=3.0&amp;RoundedTriangleEdge_height=50.0&amp;RoundedTriangleEdge_r_hole=2.0&amp;RoundedTriangleEdge_radius=30.0&amp;RoundedTriangleEdge_outset=1.0&amp;Mounting_d_head=6.5&amp;Mounting_d_shaft=3.0&amp;Mounting_margin=0.125&amp;Mounting_num=2&amp;Mounting_side=back&amp;Mounting_style=straight+edge%2C+within&amp;HandleEdge_height=20.0&amp;HandleEdge_hole_height=75.0&amp;HandleEdge_hole_width=40%3A40&amp;HandleEdge_on_sides=0&amp;HandleEdge_on_sides=1&amp;HandleEdge_radius=10.0&amp;HandleEdge_outset=1.0&amp;Flex_stretch=1.05&amp;Flex_connection=1.0&amp;Flex_distance=0.5&amp;Flex_width=5.0&amp;Lid_handle=none&amp;Lid_style=flat&amp;Lid_handle_height=8.0&amp;Lid_height=4.0&amp;Lid_play=0.1&amp;top_edge=i&amp;bottom_edge=h&amp;x=120&amp;y=75&amp;h=40&amp;outside=0&amp;outside=1&amp;vertical_edges=finger+joints&amp;thickness=3.0&amp;format=svg&amp;tabs=5&amp;qr_code=0&amp;debug=0&amp;labels=0&amp;labels=1&amp;reference=100.0&amp;inner_corners=loop&amp;burn=0.1&amp;language=en&amp;render=2
Url short: https://boxes.hackerspace-bamberg.de/UniversalBox?Lid_style=flat&amp;top_edge=i&amp;x=120&amp;y=75&amp;h=40&amp;tabs=5
SettingsUrl: https://boxes.hackerspace-bamberg.de/UniversalBox?FingerJoint_style=rectangular&amp;FingerJoint_surroundingspaces=2.0&amp;FingerJoint_bottom_lip=0.0&amp;FingerJoint_edge_width=1.0&amp;FingerJoint_extra_length=0.0&amp;FingerJoint_finger=2.0&amp;FingerJoint_play=0.0&amp;FingerJoint_space=2.0&amp;FingerJoint_width=1.0&amp;Stackable_angle=60&amp;Stackable_bottom_stabilizers=0.0&amp;Stackable_height=2.0&amp;Stackable_holedistance=1.0&amp;Stackable_width=4.0&amp;Hinge_grip_percentage=0&amp;Hinge_outset=0&amp;Hinge_outset=1&amp;Hinge_pinwidth=0.5&amp;Hinge_axle=2.0&amp;Hinge_grip_length=0&amp;Hinge_hingestrength=1&amp;CabinetHinge_bore=3.2&amp;CabinetHinge_eyes_per_hinge=5&amp;CabinetHinge_hinges=2&amp;CabinetHinge_style=inside&amp;CabinetHinge_eye=1.5&amp;CabinetHinge_play=0.05&amp;CabinetHinge_spacing=2.0&amp;SlideOnLid_hole_width=0&amp;SlideOnLid_second_pin=0&amp;SlideOnLid_second_pin=1&amp;SlideOnLid_spring=both&amp;SlideOnLid_style=rectangular&amp;SlideOnLid_surroundingspaces=2.0&amp;SlideOnLid_bottom_lip=0.0&amp;SlideOnLid_edge_width=1.0&amp;SlideOnLid_extra_length=0.0&amp;SlideOnLid_finger=3.0&amp;SlideOnLid_play=0.05&amp;SlideOnLid_space=2.0&amp;SlideOnLid_width=1.0&amp;Click_angle=5.0&amp;Click_bottom_radius=0.1&amp;Click_depth=3.0&amp;RoundedTriangleEdge_height=50.0&amp;RoundedTriangleEdge_r_hole=2.0&amp;RoundedTriangleEdge_radius=30.0&amp;RoundedTriangleEdge_outset=1.0&amp;Mounting_d_head=6.5&amp;Mounting_d_shaft=3.0&amp;Mounting_margin=0.125&amp;Mounting_num=2&amp;Mounting_side=back&amp;Mounting_style=straight+edge%2C+within&amp;HandleEdge_height=20.0&amp;HandleEdge_hole_height=75.0&amp;HandleEdge_hole_width=40%3A40&amp;HandleEdge_on_sides=0&amp;HandleEdge_on_sides=1&amp;HandleEdge_radius=10.0&amp;HandleEdge_outset=1.0&amp;Flex_stretch=1.05&amp;Flex_connection=1.0&amp;Flex_distance=0.5&amp;Flex_width=5.0&amp;Lid_handle=none&amp;Lid_style=flat&amp;Lid_handle_height=8.0&amp;Lid_height=4.0&amp;Lid_play=0.1&amp;top_edge=i&amp;bottom_edge=h&amp;x=120&amp;y=75&amp;h=40&amp;outside=0&amp;outside=1&amp;vertical_edges=finger+joints&amp;thickness=3.0&amp;format=svg&amp;tabs=5&amp;qr_code=0&amp;debug=0&amp;labels=0&amp;labels=1&amp;reference=100.0&amp;inner_corners=loop&amp;burn=0.1&amp;language=en&amp;render=2
SettingsUrl short: https://boxes.hackerspace-bamberg.de/UniversalBox?Lid_style=flat&amp;top_edge=i&amp;x=120&amp;y=75&amp;h=40&amp;tabs=5
</dc:description>
</cc:Work></rdf:RDF></metadata>
<g id="p-0" style="fill:none;stroke-linecap:round;stroke-linejoin:round;">
  <path d="M 10.100 408.204 H 110.100 V 398.204 H 10.100 V 408.204 Z" stroke="rgb(0,0,0)" stroke-width="0.20" />
  <text dominant-baseline="hanging" font-size="6px" style="font-family: sans-serif ; font-weight: normal; font-style: normal; fill: rgb(255,0,0)" text-anchor="middle" transform="matrix( 1.000 0.000 0.000 1.000 60.100 400.204 )">100.0mm, burn:0.10mm</text>
</g>
<g id="p-1" style="fill:none;stroke-linecap:round;stroke-linejoin:round;">
  <path d="M 22.100 393.304 H 19.200 C 19.100 393.304 19.200 393.404 19.200 393.304 V 390.504 C 19.200 390.404 19.100 390.504 19.200 390.504 H 25.000 C 25.100 390.504 25.000 390.404 25.000 390.504 V 393.304 C 25.000 393.404 25.100 393.304 25.000 393.304 H 22.100 Z" stroke="rgb(0,0,255)" stroke-width="0.20" />
  <path d="M 34.100 393.304 H 31.200 C 31.100 393.304 31.200 393.404 31.200 393.304 V 390.504 C 31.200 390.404 31.100 390.504 31.200 390.504 H 37.000 C 37.100 390.504 37.000 390.404 37.000 390.504 V 393.304 C 37.000 393.404 37.100 393.304 37.000 393.304 H 34.100 Z" stroke="rgb(0,0,255)" stroke-width="0.20" />
  <path d="M 46.100 393.304 H 43.200 C 43.100 393.304 43.200 393.404 43.200 393.304 V 390.504 C 43.200 390.404 43.100 390.504 43.200 390.504 H 49.000 C 49.100 390.504 49.000 390.404 49.000 390.504 V 393.304 C 49.000 393.404 49.100 393.304 49.000 393.304 H 46.100 Z" stroke="rgb(0,0,255)" stroke-width="0.20" />
  <path d="M 58.100 393.304 H 55.200 C 55.100 393.304 55.200 393.404 55.200 393.304 V 390.504 C 55.200 390.404 55.100 390.504 55.200 390.504 H 61.000 C 61.100 390.504 61.000 390.404 61.000 390.504 V 393.304 C 61.000 393.404 61.100 393.304 61.000 393.304 H 58.100 Z" stroke="rgb(0,0,255)" stroke-width="0.20" />
  <path d="M 70.100 393.304 H 67.200 C 67.100 393.304 67.200 393.404 67.200 393.304 V 390.504 C 67.200 390.404 67.100 390.504 67.200 390.504 H 73.000 C 73.100 390.504 73.000 390.404 73.000 390.504 V 393.304 C 73.000 393.404 73.100 393.304 73.000 393.304 H 70.100 Z" stroke="rgb(0,0,255)" stroke-width="0.20" />
  <path d="M 82.100 393.304 H 79.200 C 79.100 393.304 79.200 393.404 79.200 393.304 V 390.504 C 79.200 390.404 79.100 390.504 79.200 390.504 H 85.000 C 85.100 390.504 85.000 390.404 85.000 390.504 V 393.304 C 85.000 393.404 85.100 393.304 85.000 393.304 H 82.100 Z" stroke="rgb(0,0,255)" stroke-width="0.20" />
  <path d="M 94.100 393.304 H 91.200 C 91.100 393.304 91.200 393.404 91.200 393.304 V 390.504 C 91.200 390.404 91.100 390.504 91.200 390.504 H 97.000 C 97.100 390.504 97.000 390.404 97.000 390.504 V 393.304 C 97.000 393.404 97.100 393.304 97.000 393.304 H 94.100 Z" stroke="rgb(0,0,255)" stroke-width="0.20" />
  <path d="M 106.100 393.304 H 103.200 C 103.100 393.304 103.200 393.404 103.200 393.304 V 390.504 C 103.200 390.404 103.100 390.504 103.200 390.504 H 109.000 C 109.100 390.504 109.000 390.404 109.000 390.504 V 393.304 C 109.000 393.404 109.100 393.304 109.000 393.304 H 106.100 Z" stroke="rgb(0,0,255)" stroke-width="0.20" />
  <path d="M 118.100 393.304 H 115.200 C 115.100 393.304 115.200 393.404 115.200 393.304 V 390.504 C 115.200 390.404 115.100 390.504 115.200 390.504 H 121.000 C 121.100 390.504 121.000 390.404 121.000 390.504 V 393.304 C 121.000 393.404 121.100 393.304 121.000 393.304 H 118.100 Z" stroke="rgb(0,0,255)" stroke-width="0.20" />
  <text dominant-baseline="hanging" font-size="4px" style="font-family: sans-serif ; font-weight: normal; font-style: normal; fill: rgb(255,0,0)" text-anchor="middle" transform="matrix( 1.000 0.000 0.000 1.000 70.100 374.303 )">front</text><path d="M 13.100 396.504 H 39.100 M 44.100 396.504 H 96.100 M 101.100 396.504 H 127.100 H 130.100 C 130.155 396.504 130.200 396.459 130.200 396.404 V 395.178 M 130.200 390.178 V 388.953 C 130.200 388.898 130.155 388.853 130.100 388.853 H 127.200 C 127.100 388.853 127.200 388.953 127.200 388.853 V 383.053 C 127.200 382.953 127.100 383.053 127.200 383.053 H 130.100 C 130.155 383.053 130.200 383.008 130.200 382.953 V 376.953 C 130.200 376.898 130.155 376.853 130.100 376.853 H 127.200 C 127.100 376.853 127.200 376.953 127.200 376.853 V 371.053 C 127.200 370.953 127.100 371.053 127.200 371.053 H 130.100 C 130.155 371.053 130.200 371.008 130.200 370.953 V 369.727 M 130.200 364.727 V 363.502 C 130.200 363.447 130.155 363.402 130.100 363.402 C 130.155 363.402 130.200 363.447 130.200 363.502 V 362.002 C 130.200 360.931 129.918 359.879 129.383 358.952 C 128.847 358.025 128.077 357.255 127.150 356.719 C 126.223 356.184 125.171 355.902 124.100 355.902 C 123.029 355.902 121.977 356.184 121.050 356.719 C 120.123 357.255 119.353 358.025 118.817 358.952 C 118.282 359.879 118.000 360.931 118.000 362.002 C 118.000 362.248 117.935 362.489 117.812 362.702 C 117.690 362.915 117.513 363.091 117.300 363.214 C 117.087 363.337 116.846 363.402 116.600 363.402 H 92.475 M 87.475 363.402 H 39.225 M 34.225 363.402 H 10.100 C 10.045 363.402 10.000 363.447 10.000 363.502 V 364.727 M 10.000 369.727 V 370.953 C 10.000 371.008 10.045 371.053 10.100 371.053 H 13.000 C 13.100 371.053 13.000 370.953 13.000 371.053 V 376.853 C 13.000 376.953 13.100 376.853 13.000 376.853 H 10.100 C 10.045 376.853 10.000 376.898 10.000 376.953 V 382.953 C 10.000 383.008 10.045 383.053 10.100 383.053 H 13.000 C 13.100 383.053 13.000 382.953 13.000 383.053 V 388.853 C 13.000 388.953 13.100 388.853 13.000 388.853 H 10.100 C 10.045 388.853 10.000 388.898 10.000 388.953 V 390.178 M 10.000 395.178 V 396.404 C 10.000 396.459 10.045 396.504 10.100 396.504 H 13.100" stroke="rgb(0,0,0)" stroke-width="0.20" />
  <path d="M 121.200 361.902 C 121.200 361.346 121.360 360.802 121.660 360.334 C 121.961 359.866 122.390 359.495 122.895 359.264 C 123.401 359.033 123.962 358.952 124.513 359.031 C 125.063 359.111 125.579 359.346 125.999 359.710 C 126.419 360.074 126.726 360.551 126.883 361.085 C 127.039 361.618 127.039 362.186 126.883 362.719 C 126.726 363.252 126.419 363.730 125.999 364.094 C 125.579 364.458 125.063 364.693 124.513 364.772 C 123.962 364.852 123.401 364.771 122.895 364.540 C 122.390 364.309 121.961 363.937 121.660 363.470 C 121.360 363.002 121.200 362.458 121.200 361.902 Z" stroke="rgb(0,0,255)" stroke-width="0.20" />
  <path d="M 124.100 360.502 H 125.299 C 125.399 360.502 125.299 360.402 125.299 360.502 V 363.302 C 125.299 363.402 125.399 363.302 125.299 363.302 H 122.901 C 122.801 363.302 122.901 363.402 122.901 363.302 V 360.502 C 122.901 360.402 122.801 360.502 122.901 360.502 H 124.100 Z" stroke="rgb(0,0,255)" stroke-width="0.20" />
</g>
<g id="p-2" style="fill:none;stroke-linecap:round;stroke-linejoin:round;">
  <path d="M 22.100 351.202 H 19.200 C 19.100 351.202 19.200 351.302 19.200 351.202 V 348.402 C 19.200 348.302 19.100 348.402 19.200 348.402 H 25.000 C 25.100 348.402 25.000 348.302 25.000 348.402 V 351.202 C 25.000 351.302 25.100 351.202 25.000 351.202 H 22.100 Z" stroke="rgb(0,0,255)" stroke-width="0.20" />
  <path d="M 34.100 351.202 H 31.200 C 31.100 351.202 31.200 351.302 31.200 351.202 V 348.402 C 31.200 348.302 31.100 348.402 31.200 348.402 H 37.000 C 37.100 348.402 37.000 348.302 37.000 348.402 V 351.202 C 37.000 351.302 37.100 351.202 37.000 351.202 H 34.100 Z" stroke="rgb(0,0,255)" stroke-width="0.20" />
  <path d="M 46.100 351.202 H 43.200 C 43.100 351.202 43.200 351.302 43.200 351.202 V 348.402 C 43.200 348.302 43.100 348.402 43.200 348.402 H 49.000 C 49.100 348.402 49.000 348.302 49.000 348.402 V 351.202 C 49.000 351.302 49.100 351.202 49.000 351.202 H 46.100 Z" stroke="rgb(0,0,255)" stroke-width="0.20" />
  <path d="M 58.100 351.202 H 55.200 C 55.100 351.202 55.200 351.302 55.200 351.202 V 348.402 C 55.200 348.302 55.100 348.402 55.200 348.402 H 61.000 C 61.100 348.402 61.000 348.302 61.000 348.402 V 351.202 C 61.000 351.302 61.100 351.202 61.000 351.202 H 58.100 Z" stroke="rgb(0,0,255)" stroke-width="0.20" />
  <path d="M 70.100 351.202 H 67.200 C 67.100 351.202 67.200 351.302 67.200 351.202 V 348.402 C 67.200 348.302 67.100 348.402 67.200 348.402 H 73.000 C 73.100 348.402 73.000 348.302 73.000 348.402 V 351.202 C 73.000 351.302 73.100 351.202 73.000 351.202 H 70.100 Z" stroke="rgb(0,0,255)" stroke-width="0.20" />
  <path d="M 82.100 351.202 H 79.200 C 79.100 351.202 79.200 351.302 79.200 351.202 V 348.402 C 79.200 348.302 79.100 348.402 79.200 348.402 H 85.000 C 85.100 348.402 85.000 348.302 85.000 348.402 V 351.202 C 85.000 351.302 85.100 351.202 85.000 351.202 H 82.100 Z" stroke="rgb(0,0,255)" stroke-width="0.20" />
  <path d="M 94.100 351.202 H 91.200 C 91.100 351.202 91.200 351.302 91.200 351.202 V 348.402 C 91.200 348.302 91.100 348.402 91.200 348.402 H 97.000 C 97.100 348.402 97.000 348.302 97.000 348.402 V 351.202 C 97.000 351.302 97.100 351.202 97.000 351.202 H 94.100 Z" stroke="rgb(0,0,255)" stroke-width="0.20" />
  <path d="M 106.100 351.202 H 103.200 C 103.100 351.202 103.200 351.302 103.200 351.202 V 348.402 C 103.200 348.302 103.100 348.402 103.200 348.402 H 109.000 C 109.100 348.402 109.000 348.302 109.000 348.402 V 351.202 C 109.000 351.302 109.100 351.202 109.000 351.202 H 106.100 Z" stroke="rgb(0,0,255)" stroke-width="0.20" />
  <path d="M 118.100 351.202 H 115.200 C 115.100 351.202 115.200 351.302 115.200 351.202 V 348.402 C 115.200 348.302 115.100 348.402 115.200 348.402 H 121.000 C 121.100 348.402 121.000 348.302 121.000 348.402 V 351.202 C 121.000 351.302 121.100 351.202 121.000 351.202 H 118.100 Z" stroke="rgb(0,0,255)" stroke-width="0.20" />
  <text dominant-baseline="hanging" font-size="4px" style="font-family: sans-serif ; font-weight: normal; font-style: normal; fill: rgb(255,0,0)" text-anchor="middle" transform="matrix( 1.000 0.000 0.000 1.000 70.100 332.201 )">back</text><path d="M 13.100 354.402 H 39.100 M 44.100 354.402 H 96.100 M 101.100 354.402 H 127.100 H 130.100 C 130.155 354.402 130.200 354.357 130.200 354.302 V 353.076 M 130.200 348.076 V 346.851 C 130.200 346.796 130.155 346.751 130.100 346.751 H 127.200 C 127.100 346.751 127.200 346.851 127.200 346.751 V 340.951 C 127.200 340.851 127.100 340.951 127.200 340.951 H 130.100 C 130.155 340.951 130.200 340.906 130.200 340.851 V 334.851 C 130.200 334.796 130.155 334.751 130.100 334.751 H 127.200 C 127.100 334.751 127.200 334.851 127.200 334.751 V 328.951 C 127.200 328.851 127.100 328.951 127.200 328.951 H 130.100 C 130.155 328.951 130.200 328.906 130.200 328.851 V 327.625 M 130.200 322.625 V 321.400 C 130.200 321.345 130.155 321.300 130.100 321.300 H 105.975 M 100.975 321.300 H 52.725 M 47.725 321.300 H 23.600 C 23.354 321.300 23.113 321.235 22.900 321.112 C 22.687 320.990 22.510 320.813 22.388 320.600 C 22.265 320.387 22.200 320.146 22.200 319.900 C 22.200 318.829 21.918 317.777 21.383 316.850 C 20.847 315.923 20.077 315.153 19.150 314.617 C 18.223 314.082 17.171 313.800 16.100 313.800 C 15.029 313.800 13.977 314.082 13.050 314.617 C 12.123 315.153 11.353 315.923 10.817 316.850 C 10.282 317.777 10.000 318.829 10.000 319.900 V 321.400 C 10.000 321.345 10.045 321.300 10.100 321.300 C 10.045 321.300 10.000 321.345 10.000 321.400 V 322.625 M 10.000 327.625 V 328.851 C 10.000 328.906 10.045 328.951 10.100 328.951 H 13.000 C 13.100 328.951 13.000 328.851 13.000 328.951 V 334.751 C 13.000 334.851 13.100 334.751 13.000 334.751 H 10.100 C 10.045 334.751 10.000 334.796 10.000 334.851 V 340.851 C 10.000 340.906 10.045 340.951 10.100 340.951 H 13.000 C 13.100 340.951 13.000 340.851 13.000 340.951 V 346.751 C 13.000 346.851 13.100 346.751 13.000 346.751 H 10.100 C 10.045 346.751 10.000 346.796 10.000 346.851 V 348.076 M 10.000 353.076 V 354.302 C 10.000 354.357 10.045 354.402 10.100 354.402 H 13.100" stroke="rgb(0,0,0)" stroke-width="0.20" />
  <path d="M 13.200 319.800 C 13.200 319.244 13.360 318.700 13.660 318.232 C 13.961 317.764 14.390 317.393 14.895 317.162 C 15.401 316.931 15.962 316.850 16.513 316.930 C 17.063 317.009 17.579 317.244 17.999 317.608 C 18.419 317.972 18.726 318.450 18.883 318.983 C 19.039 319.516 19.039 320.084 18.883 320.617 C 18.726 321.150 18.419 321.628 17.999 321.992 C 17.579 322.356 17.063 322.591 16.513 322.670 C 15.962 322.750 15.401 322.669 14.895 322.438 C 14.390 322.207 13.961 321.836 13.660 321.368 C 13.360 320.900 13.200 320.356 13.200 319.800 Z" stroke="rgb(0,0,255)" stroke-width="0.20" />
  <path d="M 16.100 318.400 H 17.299 C 17.399 318.400 17.299 318.300 17.299 318.400 V 321.200 C 17.299 321.300 17.399 321.200 17.299 321.200 H 14.901 C 14.801 321.200 14.901 321.300 14.901 321.200 V 318.400 C 14.901 318.300 14.801 318.400 14.901 318.400 H 16.100 Z" stroke="rgb(0,0,255)" stroke-width="0.20" />
</g>
<g id="p-3" style="fill:none;stroke-linecap:round;stroke-linejoin:round;">
  <text dominant-baseline="hanging" font-size="4px" style="font-family: sans-serif ; font-weight: normal; font-style: normal; fill: rgb(255,0,0)" text-anchor="middle" transform="matrix( 1.000 0.000 0.000 1.000 70.100 272.800 )">bottom</text><path d="M 13.100 309.300 H 13.600 M 18.600 309.300 H 19.000 C 19.100 309.300 19.000 309.200 19.000 309.300 V 312.200 C 19.000 312.255 19.045 312.300 19.100 312.300 H 25.100 C 25.155 312.300 25.200 312.255 25.200 312.200 V 309.300 C 25.200 309.200 25.100 309.300 25.200 309.300 H 31.000 C 31.100 309.300 31.000 309.200 31.000 309.300 V 312.200 C 31.000 312.255 31.045 312.300 31.100 312.300 H 37.100 C 37.155 312.300 37.200 312.255 37.200 312.200 V 309.300 C 37.200 309.200 37.100 309.300 37.200 309.300 H 43.000 C 43.100 309.300 43.000 309.200 43.000 309.300 V 312.200 C 43.000 312.255 43.045 312.300 43.100 312.300 H 49.100 C 49.155 312.300 49.200 312.255 49.200 312.200 V 309.300 C 49.200 309.200 49.100 309.300 49.200 309.300 H 55.000 C 55.100 309.300 55.000 309.200 55.000 309.300 V 312.200 C 55.000 312.255 55.045 312.300 55.100 312.300 H 61.100 C 61.155 312.300 61.200 312.255 61.200 312.200 V 309.300 C 61.200 309.200 61.100 309.300 61.200 309.300 H 67.000 C 67.100 309.300 67.000 309.200 67.000 309.300 V 312.200 C 67.000 312.255 67.045 312.300 67.100 312.300 H 73.100 C 73.155 312.300 73.200 312.255 73.200 312.200 V 309.300 C 73.200 309.200 73.100 309.300 73.200 309.300 H 79.000 C 79.100 309.300 79.000 309.200 79.000 309.300 V 312.200 C 79.000 312.255 79.045 312.300 79.100 312.300 H 85.100 C 85.155 312.300 85.200 312.255 85.200 312.200 V 309.300 C 85.200 309.200 85.100 309.300 85.200 309.300 H 91.000 C 91.100 309.300 91.000 309.200 91.000 309.300 V 312.200 C 91.000 312.255 91.045 312.300 91.100 312.300 H 97.100 C 97.155 312.300 97.200 312.255 97.200 312.200 V 309.300 C 97.200 309.200 97.100 309.300 97.200 309.300 H 103.000 C 103.100 309.300 103.000 309.200 103.000 309.300 V 312.200 C 103.000 312.255 103.045 312.300 103.100 312.300 H 109.100 C 109.155 312.300 109.200 312.255 109.200 312.200 V 309.300 C 109.200 309.200 109.100 309.300 109.200 309.300 H 115.000 C 115.100 309.300 115.000 309.200 115.000 309.300 V 312.200 C 115.000 312.255 115.045 312.300 115.100 312.300 H 121.100 C 121.155 312.300 121.200 312.255 121.200 312.200 V 309.300 C 121.200 309.200 121.100 309.300 121.200 309.300 H 121.600 M 126.600 309.300 H 127.100 C 127.155 309.300 127.200 309.255 127.200 309.200 V 307.950 M 127.200 302.950 V 301.800 C 127.200 301.700 127.100 301.800 127.200 301.800 H 130.100 C 130.155 301.800 130.200 301.755 130.200 301.700 V 295.700 C 130.200 295.645 130.155 295.600 130.100 295.600 H 127.200 C 127.100 295.600 127.200 295.700 127.200 295.600 V 289.800 C 127.200 289.700 127.100 289.800 127.200 289.800 H 130.100 C 130.155 289.800 130.200 289.755 130.200 289.700 V 283.700 C 130.200 283.645 130.155 283.600 130.100 283.600 H 127.200 C 127.100 283.600 127.200 283.700 127.200 283.600 V 277.800 C 127.200 277.700 127.100 277.800 127.200 277.800 H 130.100 C 130.155 277.800 130.200 277.755 130.200 277.700 V 271.700 C 130.200 271.645 130.155 271.600 130.100 271.600 H 127.200 C 127.100 271.600 127.200 271.700 127.200 271.600 V 265.800 C 127.200 265.700 127.100 265.800 127.200 265.800 H 130.100 C 130.155 265.800 130.200 265.755 130.200 265.700 V 259.700 C 130.200 259.645 130.155 259.600 130.100 259.600 H 127.200 C 127.100 259.600 127.200 259.700 127.200 259.600 V 253.800 C 127.200 253.700 127.100 253.800 127.200 253.800 H 130.100 C 130.155 253.800 130.200 253.755 130.200 253.700 V 247.700 C 130.200 247.645 130.155 247.600 130.100 247.600 H 127.200 C 127.100 247.600 127.200 247.700 127.200 247.600 V 246.450 M 127.200 241.450 V 240.200 C 127.200 240.145 127.155 240.100 127.100 240.100 H 126.600 M 121.600 240.100 H 121.200 C 121.100 240.100 121.200 240.200 121.200 240.100 V 237.200 C 121.200 237.145 121.155 237.100 121.100 237.100 H 115.100 C 115.045 237.100 115.000 237.145 115.000 237.200 V 240.100 C 115.000 240.200 115.100 240.100 115.000 240.100 H 109.200 C 109.100 240.100 109.200 240.200 109.200 240.100 V 237.200 C 109.200 237.145 109.155 237.100 109.100 237.100 H 103.100 C 103.045 237.100 103.000 237.145 103.000 237.200 V 240.100 C 103.000 240.200 103.100 240.100 103.000 240.100 H 97.200 C 97.100 240.100 97.200 240.200 97.200 240.100 V 237.200 C 97.200 237.145 97.155 237.100 97.100 237.100 H 91.100 C 91.045 237.100 91.000 237.145 91.000 237.200 V 240.100 C 91.000 240.200 91.100 240.100 91.000 240.100 H 85.200 C 85.100 240.100 85.200 240.200 85.200 240.100 V 237.200 C 85.200 237.145 85.155 237.100 85.100 237.100 H 79.100 C 79.045 237.100 79.000 237.145 79.000 237.200 V 240.100 C 79.000 240.200 79.100 240.100 79.000 240.100 H 73.200 C 73.100 240.100 73.200 240.200 73.200 240.100 V 237.200 C 73.200 237.145 73.155 237.100 73.100 237.100 H 67.100 C 67.045 237.100 67.000 237.145 67.000 237.200 V 240.100 C 67.000 240.200 67.100 240.100 67.000 240.100 H 61.200 C 61.100 240.100 61.200 240.200 61.200 240.100 V 237.200 C 61.200 237.145 61.155 237.100 61.100 237.100 H 55.100 C 55.045 237.100 55.000 237.145 55.000 237.200 V 240.100 C 55.000 240.200 55.100 240.100 55.000 240.100 H 49.200 C 49.100 240.100 49.200 240.200 49.200 240.100 V 237.200 C 49.200 237.145 49.155 237.100 49.100 237.100 H 43.100 C 43.045 237.100 43.000 237.145 43.000 237.200 V 240.100 C 43.000 240.200 43.100 240.100 43.000 240.100 H 37.200 C 37.100 240.100 37.200 240.200 37.200 240.100 V 237.200 C 37.200 237.145 37.155 237.100 37.100 237.100 H 31.100 C 31.045 237.100 31.000 237.145 31.000 237.200 V 240.100 C 31.000 240.200 31.100 240.100 31.000 240.100 H 25.200 C 25.100 240.100 25.200 240.200 25.200 240.100 V 237.200 C 25.200 237.145 25.155 237.100 25.100 237.100 H 19.100 C 19.045 237.100 19.000 237.145 19.000 237.200 V 240.100 C 19.000 240.200 19.100 240.100 19.000 240.100 H 18.600 M 13.600 240.100 H 13.100 C 13.045 240.100 13.000 240.145 13.000 240.200 V 241.450 M 13.000 246.450 V 247.600 C 13.000 247.700 13.100 247.600 13.000 247.600 H 10.100 C 10.045 247.600 10.000 247.645 10.000 247.700 V 253.700 C 10.000 253.755 10.045 253.800 10.100 253.800 H 13.000 C 13.100 253.800 13.000 253.700 13.000 253.800 V 259.600 C 13.000 259.700 13.100 259.600 13.000 259.600 H 10.100 C 10.045 259.600 10.000 259.645 10.000 259.700 V 265.700 C 10.000 265.755 10.045 265.800 10.100 265.800 H 13.000 C 13.100 265.800 13.000 265.700 13.000 265.800 V 271.600 C 13.000 271.700 13.100 271.600 13.000 271.600 H 10.100 C 10.045 271.600 10.000 271.645 10.000 271.700 V 277.700 C 10.000 277.755 10.045 277.800 10.100 277.800 H 13.000 C 13.100 277.800 13.000 277.700 13.000 277.800 V 283.600 C 13.000 283.700 13.100 283.600 13.000 283.600 H 10.100 C 10.045 283.600 10.000 283.645 10.000 283.700 V 289.700 C 10.000 289.755 10.045 289.800 10.100 289.800 H 13.000 C 13.100 289.800 13.000 289.700 13.000 289.800 V 295.600 C 13.000 295.700 13.100 295.600 13.000 295.600 H 10.100 C 10.045 295.600 10.000 295.645 10.000 295.700 V 301.700 C 10.000 301.755 10.045 301.800 10.100 301.800 H 13.000 C 13.100 301.800 13.000 301.700 13.000 301.800 V 302.950 M 13.000 307.950 V 309.200 C 13.000 309.255 13.045 309.300 13.100 309.300" stroke="rgb(0,0,0)" stroke-width="0.20" />
</g>
<g id="p-4" style="fill:none;stroke-linecap:round;stroke-linejoin:round;">
  <text dominant-baseline="hanging" font-size="4px" style="font-family: sans-serif ; font-weight: normal; font-style: normal; fill: rgb(255,0,0)" text-anchor="middle" transform="matrix( 1.000 0.000 0.000 1.000 68.600 194.600 )">lid top</text><path d="M 13.100 232.600 H 36.475 M 41.475 232.600 H 88.225 M 93.225 232.600 H 116.600 C 116.655 232.600 116.700 232.555 116.700 232.500 V 229.600 C 116.700 229.500 116.600 229.600 116.700 229.600 H 121.100 H 122.701 C 122.801 229.600 122.701 229.500 122.701 229.600 V 232.500 C 122.701 232.555 122.746 232.600 122.801 232.600 H 125.399 C 125.454 232.600 125.499 232.555 125.499 232.500 V 229.600 C 125.499 229.500 125.399 229.600 125.499 229.600 H 127.100 C 127.155 229.600 127.200 229.555 127.200 229.500 V 214.750 M 127.200 209.750 V 180.250 M 127.200 175.250 V 160.500 C 127.200 160.445 127.155 160.400 127.100 160.400 H 125.499 C 125.399 160.400 125.499 160.500 125.499 160.400 V 157.500 C 125.499 157.445 125.454 157.400 125.399 157.400 H 122.801 C 122.746 157.400 122.701 157.445 122.701 157.500 V 160.400 C 122.701 160.500 122.801 160.400 122.701 160.400 H 121.100 H 116.700 C 116.600 160.400 116.700 160.500 116.700 160.400 V 157.500 C 116.700 157.445 116.655 157.400 116.600 157.400 H 93.225 M 88.225 157.400 H 41.475 M 36.475 157.400 H 13.100 H 10.100 C 10.045 157.400 10.000 157.445 10.000 157.500 V 160.500 V 175.250 M 10.000 180.250 V 209.750 M 10.000 214.750 V 229.500 V 232.500 C 10.000 232.555 10.045 232.600 10.100 232.600 H 13.100" stroke="rgb(0,0,0)" stroke-width="0.20" />
</g>
<g id="p-5" style="fill:none;stroke-linecap:round;stroke-linejoin:round;">
  <text dominant-baseline="hanging" font-size="4px" style="font-family: sans-serif ; font-weight: normal; font-style: normal; fill: rgb(255,0,0)" text-anchor="middle" transform="matrix( 1.000 0.000 0.000 1.000 67.100 119.400 )">lid bottom</text><path d="M 10.100 155.900 H 36.100 M 41.100 155.900 H 93.100 M 98.100 155.900 H 124.100 C 124.155 155.900 124.200 155.855 124.200 155.800 V 141.050 M 124.200 136.050 V 106.550 M 124.200 101.550 V 86.800 C 124.200 86.745 124.155 86.700 124.100 86.700 H 98.100 M 93.100 86.700 H 41.100 M 36.100 86.700 H 10.100 C 10.045 86.700 10.000 86.745 10.000 86.800 V 101.550 M 10.000 106.550 V 136.050 M 10.000 141.050 V 155.800 C 10.000 155.855 10.045 155.900 10.100 155.900" stroke="rgb(0,0,0)" stroke-width="0.20" />
</g>
<g id="p-6" style="fill:none;stroke-linecap:round;stroke-linejoin:round;">
  <text dominant-baseline="hanging" font-size="4px" style="font-family: sans-serif ; font-weight: normal; font-style: normal; fill: rgb(255,0,0)" text-anchor="middle" transform="matrix( 1.000 0.000 0.000 1.000 70.100 45.700 )">lid top</text><path d="M 13.100 85.200 H 39.100 M 44.100 85.200 H 96.100 M 101.100 85.200 H 127.100 H 130.100 C 130.155 85.200 130.200 85.155 130.200 85.100 V 82.100 V 67.350 M 130.200 62.350 V 32.850 M 130.200 27.850 V 13.100 V 10.100 C 130.200 10.045 130.155 10.000 130.100 10.000 H 127.100 H 101.100 M 96.100 10.000 H 44.100 M 39.100 10.000 H 13.100 H 10.100 C 10.045 10.000 10.000 10.045 10.000 10.100 V 13.100 V 27.850 M 10.000 32.850 V 62.350 M 10.000 67.350 V 82.100 V 85.100 C 10.000 85.155 10.045 85.200 10.100 85.200 H 13.100" stroke="rgb(0,0,0)" stroke-width="0.20" />
</g>
<g id="p-7" style="fill:none;stroke-linecap:round;stroke-linejoin:round;">
  <path d="M 145.300 393.304 H 142.400 C 142.300 393.304 142.400 393.404 142.400 393.304 V 390.504 C 142.400 390.404 142.300 390.504 142.400 390.504 H 148.200 C 148.300 390.504 148.200 390.404 148.200 390.504 V 393.304 C 148.200 393.404 148.300 393.304 148.200 393.304 H 145.300 Z" stroke="rgb(0,0,255)" stroke-width="0.20" />
  <path d="M 157.300 393.304 H 154.400 C 154.300 393.304 154.400 393.404 154.400 393.304 V 390.504 C 154.400 390.404 154.300 390.504 154.400 390.504 H 160.200 C 160.300 390.504 160.200 390.404 160.200 390.504 V 393.304 C 160.200 393.404 160.300 393.304 160.200 393.304 H 157.300 Z" stroke="rgb(0,0,255)" stroke-width="0.20" />
  <path d="M 169.300 393.304 H 166.400 C 166.300 393.304 166.400 393.404 166.400 393.304 V 390.504 C 166.400 390.404 166.300 390.504 166.400 390.504 H 172.200 C 172.300 390.504 172.200 390.404 172.200 390.504 V 393.304 C 172.200 393.404 172.300 393.304 172.200 393.304 H 169.300 Z" stroke="rgb(0,0,255)" stroke-width="0.20" />
  <path d="M 181.300 393.304 H 178.400 C 178.300 393.304 178.400 393.404 178.400 393.304 V 390.504 C 178.400 390.404 178.300 390.504 178.400 390.504 H 184.200 C 184.300 390.504 184.200 390.404 184.200 390.504 V 393.304 C 184.200 393.404 184.300 393.304 184.200 393.304 H 181.300 Z" stroke="rgb(0,0,255)" stroke-width="0.20" />
  <path d="M 193.300 393.304 H 190.400 C 190.300 393.304 190.400 393.404 190.400 393.304 V 390.504 C 190.400 390.404 190.300 390.504 190.400 390.504 H 196.200 C 196.300 390.504 196.200 390.404 196.200 390.504 V 393.304 C 196.200 393.404 196.300 393.304 196.200 393.304 H 193.300 Z" stroke="rgb(0,0,255)" stroke-width="0.20" />
  <text dominant-baseline="hanging" font-size="4px" style="font-family: sans-serif ; font-weight: normal; font-style: normal; fill: rgb(255,0,0)" text-anchor="middle" transform="matrix( 1.000 0.000 0.000 1.000 169.300 378.053 )">left</text><path d="M 134.800 396.504 H 149.550 M 154.550 396.504 H 184.050 M 189.050 396.504 H 203.800 C 203.855 396.504 203.900 396.459 203.900 396.404 V 395.178 M 203.900 390.178 V 389.053 C 203.900 388.953 203.800 389.053 203.900 389.053 H 206.800 C 206.855 389.053 206.900 389.008 206.900 388.953 V 382.953 C 206.900 382.898 206.855 382.853 206.800 382.853 H 203.900 C 203.800 382.853 203.900 382.953 203.900 382.853 V 377.053 C 203.900 376.953 203.800 377.053 203.900 377.053 H 206.800 C 206.855 377.053 206.900 377.008 206.900 376.953 V 370.953 C 206.900 370.898 206.855 370.853 206.800 370.853 H 203.900 C 203.800 370.853 203.900 370.953 203.900 370.853 V 369.727 M 203.900 364.727 V 363.502 C 203.900 363.447 203.855 363.402 203.800 363.402 H 189.050 M 184.050 363.402 H 154.550 M 149.550 363.402 H 134.800 C 134.745 363.402 134.700 363.447 134.700 363.502 V 364.727 M 134.700 369.727 V 370.853 C 134.700 370.953 134.800 370.853 134.700 370.853 H 131.800 C 131.745 370.853 131.700 370.898 131.700 370.953 V 376.953 C 131.700 377.008 131.745 377.053 131.800 377.053 H 134.700 C 134.800 377.053 134.700 376.953 134.700 377.053 V 382.853 C 134.700 382.953 134.800 382.853 134.700 382.853 H 131.800 C 131.745 382.853 131.700 382.898 131.700 382.953 V 388.953 C 131.700 389.008 131.745 389.053 131.800 389.053 H 134.700 C 134.800 389.053 134.700 388.953 134.700 389.053 V 390.178 M 134.700 395.178 V 396.404 C 134.700 396.459 134.745 396.504 134.800 396.504" stroke="rgb(0,0,0)" stroke-width="0.20" />
</g>
<g id="p-8" style="fill:none;stroke-linecap:round;stroke-linejoin:round;">
  <path d="M 145.300 358.702 H 142.400 C 142.300 358.702 142.400 358.802 142.400 358.702 V 355.902 C 142.400 355.802 142.300 355.902 142.400 355.902 H 148.200 C 148.300 355.902 148.200 355.802 148.200 355.902 V 358.702 C 148.200 358.802 148.300 358.702 148.200 358.702 H 145.300 Z" stroke="rgb(0,0,255)" stroke-width="0.20" />
  <path d="M 157.300 358.702 H 154.400 C 154.300 358.702 154.400 358.802 154.400 358.702 V 355.902 C 154.400 355.802 154.300 355.902 154.400 355.902 H 160.200 C 160.300 355.902 160.200 355.802 160.200 355.902 V 358.702 C 160.200 358.802 160.300 358.702 160.200 358.702 H 157.300 Z" stroke="rgb(0,0,255)" stroke-width="0.20" />
  <path d="M 169.300 358.702 H 166.400 C 166.300 358.702 166.400 358.802 166.400 358.702 V 355.902 C 166.400 355.802 166.300 355.902 166.400 355.902 H 172.200 C 172.300 355.902 172.200 355.802 172.200 355.902 V 358.702 C 172.200 358.802 172.300 358.702 172.200 358.702 H 169.300 Z" stroke="rgb(0,0,255)" stroke-width="0.20" />
  <path d="M 181.300 358.702 H 178.400 C 178.300 358.702 178.400 358.802 178.400 358.702 V 355.902 C 178.400 355.802 178.300 355.902 178.400 355.902 H 184.200 C 184.300 355.902 184.200 355.802 184.200 355.902 V 358.702 C 184.200 358.802 184.300 358.702 184.200 358.702 H 181.300 Z" stroke="rgb(0,0,255)" stroke-width="0.20" />
  <path d="M 193.300 358.702 H 190.400 C 190.300 358.702 190.400 358.802 190.400 358.702 V 355.902 C 190.400 355.802 190.300 355.902 190.400 355.902 H 196.200 C 196.300 355.902 196.200 355.802 196.200 355.902 V 358.702 C 196.200 358.802 196.300 358.702 196.200 358.702 H 193.300 Z" stroke="rgb(0,0,255)" stroke-width="0.20" />
  <text dominant-baseline="hanging" font-size="4px" style="font-family: sans-serif ; font-weight: normal; font-style: normal; fill: rgb(255,0,0)" text-anchor="middle" transform="matrix( 1.000 0.000 0.000 1.000 169.300 343.451 )">right</text><path d="M 134.800 361.902 H 149.550 M 154.550 361.902 H 184.050 M 189.050 361.902 H 203.800 C 203.855 361.902 203.900 361.857 203.900 361.802 V 360.576 M 203.900 355.576 V 354.451 C 203.900 354.351 203.800 354.451 203.900 354.451 H 206.800 C 206.855 354.451 206.900 354.406 206.900 354.351 V 348.351 C 206.900 348.296 206.855 348.251 206.800 348.251 H 203.900 C 203.800 348.251 203.900 348.351 203.900 348.251 V 342.451 C 203.900 342.351 203.800 342.451 203.900 342.451 H 206.800 C 206.855 342.451 206.900 342.406 206.900 342.351 V 336.351 C 206.900 336.296 206.855 336.251 206.800 336.251 H 203.900 C 203.800 336.251 203.900 336.351 203.900 336.251 V 335.125 M 203.900 330.125 V 328.900 C 203.900 328.845 203.855 328.800 203.800 328.800 H 189.050 M 184.050 328.800 H 154.550 M 149.550 328.800 H 134.800 C 134.745 328.800 134.700 328.845 134.700 328.900 V 330.125 M 134.700 335.125 V 336.251 C 134.700 336.351 134.800 336.251 134.700 336.251 H 131.800 C 131.745 336.251 131.700 336.296 131.700 336.351 V 342.351 C 131.700 342.406 131.745 342.451 131.800 342.451 H 134.700 C 134.800 342.451 134.700 342.351 134.700 342.451 V 348.251 C 134.700 348.351 134.800 348.251 134.700 348.251 H 131.800 C 131.745 348.251 131.700 348.296 131.700 348.351 V 354.351 C 131.700 354.406 131.745 354.451 131.800 354.451 H 134.700 C 134.800 354.451 134.700 354.351 134.700 354.451 V 355.576 M 134.700 360.576 V 361.802 C 134.700 361.857 134.745 361.902 134.800 361.902" stroke="rgb(0,0,0)" stroke-width="0.20" />
</g>
</svg>